STARTFONT 2.1
FONT -FontForge-Bitstream Vera Sans-Book-R-Normal-Sans--18-170-75-75-P-107-ISO8859-1
SIZE 17 75 75
FONTBOUNDINGBOX 26 21 -3 -4
COMMENT "Generated by fontforge, http://fontforge.sourceforge.net"
COMMENT "Copyright (c) 2003 by Bitstream, Inc. All Rights Reserved."
STARTPROPERTIES 40
FOUNDRY "FontForge"
FAMILY_NAME "Bitstream Vera Sans"
WEIGHT_NAME "Book"
SLANT "R"
SETWIDTH_NAME "Normal"
ADD_STYLE_NAME "Sans"
PIXEL_SIZE 18
POINT_SIZE 170
RESOLUTION_X 75
RESOLUTION_Y 75
SPACING "P"
AVERAGE_WIDTH 107
CHARSET_REGISTRY "ISO8859"
CHARSET_ENCODING "1"
FONTNAME_REGISTRY ""
CHARSET_COLLECTIONS "ISO8859-9 ISOLatin1Encoding"
FONT_NAME "BitstreamVeraSans-Roman"
FACE_NAME "Bitstream Vera Sans"
COPYRIGHT "Copyright (c) 2003 by Bitstream, Inc. All Rights Reserved."
FONT_VERSION "Release 1.10"
FONT_ASCENT 14
FONT_DESCENT 4
UNDERLINE_POSITION -2
UNDERLINE_THICKNESS 2
X_HEIGHT 9
CAP_HEIGHT 12
RAW_ASCENT 759
RAW_DESCENT 240
NORM_SPACE 6
RELATIVE_WEIGHT 40
RELATIVE_SETWIDTH 50
SUPERSCRIPT_X 0
SUPERSCRIPT_Y 5
SUPERSCRIPT_SIZE 10
SUBSCRIPT_X 0
SUBSCRIPT_Y -3
SUBSCRIPT_SIZE 10
FIGURE_WIDTH 11
AVG_LOWERCASE_WIDTH 99
AVG_UPPERCASE_WIDTH 122
ENDPROPERTIES
CHARS 268
STARTCHAR space
ENCODING 32
SWIDTH 317 0
DWIDTH 6 0
BBX 1 1 0 0
BITMAP
00
ENDCHAR
STARTCHAR exclam
ENCODING 33
SWIDTH 400 0
DWIDTH 7 0
BBX 2 13 3 0
BITMAP
C0
C0
C0
C0
C0
C0
C0
C0
C0
00
00
C0
C0
ENDCHAR
STARTCHAR quotedbl
ENCODING 34
SWIDTH 459 0
DWIDTH 8 0
BBX 6 5 1 8
BITMAP
CC
CC
CC
CC
CC
ENDCHAR
STARTCHAR numbersign
ENCODING 35
SWIDTH 837 0
DWIDTH 15 0
BBX 12 14 1 0
BITMAP
0440
0440
0CC0
0C80
7FF0
7FF0
0980
1900
FFE0
FFE0
1300
3300
3200
2200
ENDCHAR
STARTCHAR dollar
ENCODING 36
SWIDTH 636 0
DWIDTH 11 0
BBX 9 17 1 -3
BITMAP
0800
0800
3E00
7F00
E900
C800
F800
7E00
1F00
0980
0980
8B80
FF00
7E00
0800
0800
0800
ENDCHAR
STARTCHAR percent
ENCODING 37
SWIDTH 950 0
DWIDTH 17 0
BBX 15 13 1 0
BITMAP
7810
CC20
CC60
CC40
CC80
CC80
793C
0266
0266
0466
0C66
0866
103C
ENDCHAR
STARTCHAR ampersand
ENCODING 38
SWIDTH 779 0
DWIDTH 13 0
BBX 12 13 1 0
BITMAP
0F00
1F80
3080
3000
3800
3C00
6E60
C760
C3C0
C180
E1C0
7FE0
3E70
ENDCHAR
STARTCHAR quotesingle
ENCODING 39
SWIDTH 274 0
DWIDTH 4 0
BBX 2 5 1 8
BITMAP
C0
C0
C0
C0
C0
ENDCHAR
STARTCHAR parenleft
ENCODING 40
SWIDTH 390 0
DWIDTH 7 0
BBX 4 16 2 -2
BITMAP
30
20
60
60
40
C0
C0
C0
C0
C0
C0
40
60
60
20
30
ENDCHAR
STARTCHAR parenright
ENCODING 41
SWIDTH 390 0
DWIDTH 7 0
BBX 4 16 1 -2
BITMAP
C0
40
60
60
20
30
30
30
30
30
30
20
60
60
40
C0
ENDCHAR
STARTCHAR asterisk
ENCODING 42
SWIDTH 500 0
DWIDTH 9 0
BBX 7 8 1 5
BITMAP
10
92
54
38
38
54
92
10
ENDCHAR
STARTCHAR plus
ENCODING 43
SWIDTH 837 0
DWIDTH 15 0
BBX 12 12 2 0
BITMAP
0600
0600
0600
0600
0600
FFF0
FFF0
0600
0600
0600
0600
0600
ENDCHAR
STARTCHAR comma
ENCODING 44
SWIDTH 317 0
DWIDTH 6 0
BBX 3 4 1 -2
BITMAP
60
60
40
80
ENDCHAR
STARTCHAR hyphen
ENCODING 45
SWIDTH 360 0
DWIDTH 7 0
BBX 5 2 1 4
BITMAP
F8
F8
ENDCHAR
STARTCHAR period
ENCODING 46
SWIDTH 317 0
DWIDTH 6 0
BBX 2 2 2 0
BITMAP
C0
C0
ENDCHAR
STARTCHAR slash
ENCODING 47
SWIDTH 336 0
DWIDTH 6 0
BBX 6 15 0 -2
BITMAP
0C
0C
18
18
18
38
30
30
30
70
60
60
60
C0
C0
ENDCHAR
STARTCHAR zero
ENCODING 48
SWIDTH 636 0
DWIDTH 11 0
BBX 9 13 1 0
BITMAP
3E00
7F00
6300
C180
C180
C180
C180
C180
C180
C180
6300
7F00
3E00
ENDCHAR
STARTCHAR one
ENCODING 49
SWIDTH 636 0
DWIDTH 11 0
BBX 8 13 2 0
BITMAP
38
F8
D8
18
18
18
18
18
18
18
18
FF
FF
ENDCHAR
STARTCHAR two
ENCODING 50
SWIDTH 636 0
DWIDTH 11 0
BBX 8 13 1 0
BITMAP
7C
FE
87
03
03
07
06
0C
18
30
60
FF
FF
ENDCHAR
STARTCHAR three
ENCODING 51
SWIDTH 636 0
DWIDTH 11 0
BBX 9 13 1 0
BITMAP
7E00
FF00
8380
0180
0380
3F00
3F00
0380
0180
0180
8380
FF00
7E00
ENDCHAR
STARTCHAR four
ENCODING 52
SWIDTH 636 0
DWIDTH 11 0
BBX 10 13 1 0
BITMAP
0700
0700
0B00
1B00
1300
2300
6300
4300
FFC0
FFC0
0300
0300
0300
ENDCHAR
STARTCHAR five
ENCODING 53
SWIDTH 636 0
DWIDTH 11 0
BBX 8 13 1 0
BITMAP
7E
7E
60
60
7C
7E
47
03
03
03
87
FE
7C
ENDCHAR
STARTCHAR six
ENCODING 54
SWIDTH 636 0
DWIDTH 11 0
BBX 9 13 1 0
BITMAP
1E00
3F00
7100
E000
C000
DE00
FF00
E380
C180
C180
6380
7F00
3E00
ENDCHAR
STARTCHAR seven
ENCODING 55
SWIDTH 636 0
DWIDTH 11 0
BBX 8 13 1 0
BITMAP
FF
FF
06
06
06
0E
0C
0C
1C
18
18
38
30
ENDCHAR
STARTCHAR eight
ENCODING 56
SWIDTH 636 0
DWIDTH 11 0
BBX 9 13 1 0
BITMAP
3E00
7F00
E380
C180
E380
7F00
7F00
E380
C180
C180
E380
7F00
3E00
ENDCHAR
STARTCHAR nine
ENCODING 57
SWIDTH 636 0
DWIDTH 11 0
BBX 9 13 1 0
BITMAP
3E00
7F00
E300
C180
C180
E380
7F80
3D80
0180
0380
4700
7E00
3C00
ENDCHAR
STARTCHAR colon
ENCODING 58
SWIDTH 336 0
DWIDTH 6 0
BBX 2 9 2 0
BITMAP
C0
C0
00
00
00
00
00
C0
C0
ENDCHAR
STARTCHAR semicolon
ENCODING 59
SWIDTH 336 0
DWIDTH 6 0
BBX 3 11 1 -2
BITMAP
60
60
00
00
00
00
00
60
60
40
80
ENDCHAR
STARTCHAR less
ENCODING 60
SWIDTH 837 0
DWIDTH 15 0
BBX 11 10 2 0
BITMAP
0020
01E0
07C0
3E00
F800
F800
3E00
07C0
01E0
0020
ENDCHAR
STARTCHAR equal
ENCODING 61
SWIDTH 837 0
DWIDTH 15 0
BBX 11 6 2 3
BITMAP
FFE0
FFE0
0000
0000
FFE0
FFE0
ENDCHAR
STARTCHAR greater
ENCODING 62
SWIDTH 837 0
DWIDTH 15 0
BBX 11 10 2 0
BITMAP
8000
F000
7C00
0F80
03E0
03E0
0F80
7C00
F000
8000
ENDCHAR
STARTCHAR question
ENCODING 63
SWIDTH 530 0
DWIDTH 10 0
BBX 7 13 1 0
BITMAP
78
FE
86
06
06
0C
18
30
30
30
00
30
30
ENDCHAR
STARTCHAR at
ENCODING 64
SWIDTH 1000 0
DWIDTH 18 0
BBX 16 16 1 -3
BITMAP
07E0
1FF8
3C1C
7006
6003
E363
C7E3
C663
C666
C7FC
E370
6000
7000
3810
1FF0
07C0
ENDCHAR
STARTCHAR A
ENCODING 65
SWIDTH 684 0
DWIDTH 12 0
BBX 12 13 0 0
BITMAP
0600
0600
0F00
0F00
1980
1980
1980
30C0
3FC0
7FE0
6060
6060
C030
ENDCHAR
STARTCHAR B
ENCODING 66
SWIDTH 686 0
DWIDTH 12 0
BBX 9 13 2 0
BITMAP
FE00
FF00
C300
C300
C300
FE00
FE00
C300
C180
C180
C380
FF00
FE00
ENDCHAR
STARTCHAR C
ENCODING 67
SWIDTH 698 0
DWIDTH 13 0
BBX 11 13 1 0
BITMAP
0FC0
3FE0
7020
6000
C000
C000
C000
C000
C000
6000
7020
3FE0
0FC0
ENDCHAR
STARTCHAR D
ENCODING 68
SWIDTH 770 0
DWIDTH 14 0
BBX 11 13 2 0
BITMAP
FE00
FF80
C1C0
C0E0
C060
C060
C060
C060
C060
C0E0
C1C0
FF80
FE00
ENDCHAR
STARTCHAR E
ENCODING 69
SWIDTH 631 0
DWIDTH 11 0
BBX 8 13 2 0
BITMAP
FF
FF
C0
C0
C0
FF
FF
C0
C0
C0
C0
FF
FF
ENDCHAR
STARTCHAR F
ENCODING 70
SWIDTH 575 0
DWIDTH 10 0
BBX 8 13 2 0
BITMAP
FF
FF
C0
C0
C0
FE
FE
C0
C0
C0
C0
C0
C0
ENDCHAR
STARTCHAR G
ENCODING 71
SWIDTH 774 0
DWIDTH 14 0
BBX 11 13 1 0
BITMAP
0FC0
3FE0
7020
6000
C000
C3E0
C3E0
C060
C060
6060
7060
3FC0
1F80
ENDCHAR
STARTCHAR H
ENCODING 72
SWIDTH 751 0
DWIDTH 14 0
BBX 10 13 2 0
BITMAP
C0C0
C0C0
C0C0
C0C0
C0C0
FFC0
FFC0
C0C0
C0C0
C0C0
C0C0
C0C0
C0C0
ENDCHAR
STARTCHAR I
ENCODING 73
SWIDTH 294 0
DWIDTH 6 0
BBX 2 13 2 0
BITMAP
C0
C0
C0
C0
C0
C0
C0
C0
C0
C0
C0
C0
C0
ENDCHAR
STARTCHAR J
ENCODING 74
SWIDTH 294 0
DWIDTH 6 0
BBX 5 17 -1 -4
BITMAP
18
18
18
18
18
18
18
18
18
18
18
18
18
18
38
F0
E0
ENDCHAR
STARTCHAR K
ENCODING 75
SWIDTH 655 0
DWIDTH 12 0
BBX 10 13 2 0
BITMAP
C180
C300
C600
CC00
D800
F000
F000
D800
CC00
C600
C300
C180
C0C0
ENDCHAR
STARTCHAR L
ENCODING 76
SWIDTH 557 0
DWIDTH 10 0
BBX 8 13 2 0
BITMAP
C0
C0
C0
C0
C0
C0
C0
C0
C0
C0
C0
FF
FF
ENDCHAR
STARTCHAR M
ENCODING 77
SWIDTH 862 0
DWIDTH 16 0
BBX 12 13 2 0
BITMAP
E070
F0F0
F0F0
D8B0
D9B0
D9B0
CF30
CF30
C630
C630
C030
C030
C030
ENDCHAR
STARTCHAR N
ENCODING 78
SWIDTH 748 0
DWIDTH 14 0
BBX 10 13 2 0
BITMAP
E0C0
E0C0
F0C0
F0C0
D8C0
D8C0
CCC0
C6C0
C6C0
C3C0
C3C0
C1C0
C1C0
ENDCHAR
STARTCHAR O
ENCODING 79
SWIDTH 787 0
DWIDTH 14 0
BBX 12 13 1 0
BITMAP
1F80
3FC0
70E0
6060
C030
C030
C030
C030
C030
6060
70E0
3FC0
1F80
ENDCHAR
STARTCHAR P
ENCODING 80
SWIDTH 603 0
DWIDTH 11 0
BBX 8 13 2 0
BITMAP
FC
FE
C7
C3
C3
C7
FE
FC
C0
C0
C0
C0
C0
ENDCHAR
STARTCHAR Q
ENCODING 81
SWIDTH 787 0
DWIDTH 14 0
BBX 12 15 1 -2
BITMAP
1F80
3FC0
70E0
6060
C030
C030
C030
C030
C030
6060
70E0
3FC0
1F80
0180
00C0
ENDCHAR
STARTCHAR R
ENCODING 82
SWIDTH 694 0
DWIDTH 13 0
BBX 10 13 2 0
BITMAP
FC00
FE00
C700
C300
C300
C700
FE00
FC00
C600
C300
C300
C180
C1C0
ENDCHAR
STARTCHAR S
ENCODING 83
SWIDTH 634 0
DWIDTH 11 0
BBX 9 13 1 0
BITMAP
3E00
7F00
E100
C000
C000
7C00
3F00
0380
0180
0180
8380
FF00
7E00
ENDCHAR
STARTCHAR T
ENCODING 84
SWIDTH 610 0
DWIDTH 12 0
BBX 12 13 0 0
BITMAP
FFF0
FFF0
0600
0600
0600
0600
0600
0600
0600
0600
0600
0600
0600
ENDCHAR
STARTCHAR U
ENCODING 85
SWIDTH 731 0
DWIDTH 14 0
BBX 10 13 2 0
BITMAP
C0C0
C0C0
C0C0
C0C0
C0C0
C0C0
C0C0
C0C0
C0C0
C0C0
6180
7F80
3F00
ENDCHAR
STARTCHAR V
ENCODING 86
SWIDTH 684 0
DWIDTH 12 0
BBX 12 13 0 0
BITMAP
C030
6060
6060
6060
30C0
30C0
1980
1980
1980
0F00
0F00
0600
0600
ENDCHAR
STARTCHAR W
ENCODING 87
SWIDTH 988 0
DWIDTH 19 0
BBX 17 13 1 0
BITMAP
C1C180
C1C180
636300
636300
636300
636300
363600
363600
363600
363600
1C1C00
1C1C00
1C1C00
ENDCHAR
STARTCHAR X
ENCODING 88
SWIDTH 685 0
DWIDTH 13 0
BBX 11 13 1 0
BITMAP
E0E0
60C0
3180
3180
1B00
0E00
0E00
0E00
1B00
3180
3180
60C0
E0E0
ENDCHAR
STARTCHAR Y
ENCODING 89
SWIDTH 610 0
DWIDTH 12 0
BBX 12 13 0 0
BITMAP
E070
6060
30C0
1980
1980
0F00
0600
0600
0600
0600
0600
0600
0600
ENDCHAR
STARTCHAR Z
ENCODING 90
SWIDTH 685 0
DWIDTH 13 0
BBX 11 13 1 0
BITMAP
FFE0
FFE0
01C0
0380
0300
0700
0E00
1C00
1800
3000
7000
FFE0
FFE0
ENDCHAR
STARTCHAR bracketleft
ENCODING 91
SWIDTH 390 0
DWIDTH 7 0
BBX 4 16 1 -2
BITMAP
F0
F0
C0
C0
C0
C0
C0
C0
C0
C0
C0
C0
C0
C0
F0
F0
ENDCHAR
STARTCHAR backslash
ENCODING 92
SWIDTH 336 0
DWIDTH 6 0
BBX 6 15 0 -2
BITMAP
C0
C0
60
60
60
70
30
30
30
38
18
18
18
0C
0C
ENDCHAR
STARTCHAR bracketright
ENCODING 93
SWIDTH 390 0
DWIDTH 7 0
BBX 4 16 2 -2
BITMAP
F0
F0
30
30
30
30
30
30
30
30
30
30
30
30
F0
F0
ENDCHAR
STARTCHAR asciicircum
ENCODING 94
SWIDTH 837 0
DWIDTH 15 0
BBX 11 5 2 8
BITMAP
0E00
1B00
3180
60C0
C060
ENDCHAR
STARTCHAR underscore
ENCODING 95
SWIDTH 500 0
DWIDTH 9 0
BBX 9 2 0 -4
BITMAP
FF80
FF80
ENDCHAR
STARTCHAR grave
ENCODING 96
SWIDTH 500 0
DWIDTH 9 0
BBX 4 3 2 11
BITMAP
C0
60
30
ENDCHAR
STARTCHAR a
ENCODING 97
SWIDTH 612 0
DWIDTH 10 0
BBX 8 10 1 0
BITMAP
3C
7E
47
03
3F
FF
C3
C7
FF
7B
ENDCHAR
STARTCHAR b
ENCODING 98
SWIDTH 634 0
DWIDTH 11 0
BBX 9 14 2 0
BITMAP
C000
C000
C000
C000
DE00
FF00
E380
C180
C180
C180
C180
E380
FF00
DE00
ENDCHAR
STARTCHAR c
ENCODING 99
SWIDTH 549 0
DWIDTH 9 0
BBX 8 10 1 0
BITMAP
1E
7F
61
C0
C0
C0
C0
61
7F
1E
ENDCHAR
STARTCHAR d
ENCODING 100
SWIDTH 634 0
DWIDTH 11 0
BBX 9 14 1 0
BITMAP
0180
0180
0180
0180
3D80
7F80
E380
C180
C180
C180
C180
E380
7F80
3D80
ENDCHAR
STARTCHAR e
ENCODING 101
SWIDTH 615 0
DWIDTH 11 0
BBX 10 10 1 0
BITMAP
1F00
7F80
61C0
C0C0
FFC0
FFC0
C000
6040
7FC0
1F80
ENDCHAR
STARTCHAR f
ENCODING 102
SWIDTH 352 0
DWIDTH 6 0
BBX 7 14 0 0
BITMAP
1E
3E
30
30
FE
FE
30
30
30
30
30
30
30
30
ENDCHAR
STARTCHAR g
ENCODING 103
SWIDTH 634 0
DWIDTH 11 0
BBX 9 14 1 -4
BITMAP
3D80
7F80
E380
C180
C180
C180
C180
E380
7F80
3D80
0180
4300
7F00
3E00
ENDCHAR
STARTCHAR h
ENCODING 104
SWIDTH 633 0
DWIDTH 11 0
BBX 8 14 2 0
BITMAP
C0
C0
C0
C0
DE
FE
E7
C3
C3
C3
C3
C3
C3
C3
ENDCHAR
STARTCHAR i
ENCODING 105
SWIDTH 277 0
DWIDTH 5 0
BBX 2 14 2 0
BITMAP
C0
C0
00
00
C0
C0
C0
C0
C0
C0
C0
C0
C0
C0
ENDCHAR
STARTCHAR j
ENCODING 106
SWIDTH 277 0
DWIDTH 5 0
BBX 4 18 0 -4
BITMAP
30
30
00
00
30
30
30
30
30
30
30
30
30
30
30
30
F0
E0
ENDCHAR
STARTCHAR k
ENCODING 107
SWIDTH 579 0
DWIDTH 10 0
BBX 8 14 2 0
BITMAP
C0
C0
C0
C0
C3
C6
CC
D8
F0
F0
D8
CC
C6
C3
ENDCHAR
STARTCHAR l
ENCODING 108
SWIDTH 277 0
DWIDTH 5 0
BBX 2 14 2 0
BITMAP
C0
C0
C0
C0
C0
C0
C0
C0
C0
C0
C0
C0
C0
C0
ENDCHAR
STARTCHAR m
ENCODING 109
SWIDTH 974 0
DWIDTH 17 0
BBX 14 10 2 0
BITMAP
DE78
FEF8
E38C
C30C
C30C
C30C
C30C
C30C
C30C
C30C
ENDCHAR
STARTCHAR n
ENCODING 110
SWIDTH 633 0
DWIDTH 11 0
BBX 8 10 2 0
BITMAP
DE
FE
E7
C3
C3
C3
C3
C3
C3
C3
ENDCHAR
STARTCHAR o
ENCODING 111
SWIDTH 611 0
DWIDTH 11 0
BBX 10 10 1 0
BITMAP
1E00
7F80
6180
C0C0
C0C0
C0C0
C0C0
6180
7F80
1E00
ENDCHAR
STARTCHAR p
ENCODING 112
SWIDTH 634 0
DWIDTH 11 0
BBX 9 14 2 -4
BITMAP
DE00
FF00
E380
C180
C180
C180
C180
E380
FF00
DE00
C000
C000
C000
C000
ENDCHAR
STARTCHAR q
ENCODING 113
SWIDTH 634 0
DWIDTH 11 0
BBX 9 14 1 -4
BITMAP
3D80
7F80
E380
C180
C180
C180
C180
E380
7F80
3D80
0180
0180
0180
0180
ENDCHAR
STARTCHAR r
ENCODING 114
SWIDTH 411 0
DWIDTH 8 0
BBX 6 10 2 0
BITMAP
DC
FC
E0
C0
C0
C0
C0
C0
C0
C0
ENDCHAR
STARTCHAR s
ENCODING 115
SWIDTH 520 0
DWIDTH 8 0
BBX 7 10 1 0
BITMAP
7C
FE
C2
E0
7C
1E
06
86
FE
7C
ENDCHAR
STARTCHAR t
ENCODING 116
SWIDTH 392 0
DWIDTH 7 0
BBX 6 13 1 0
BITMAP
60
60
60
FC
FC
60
60
60
60
60
60
7C
3C
ENDCHAR
STARTCHAR u
ENCODING 117
SWIDTH 633 0
DWIDTH 11 0
BBX 8 10 2 0
BITMAP
C3
C3
C3
C3
C3
C3
C3
E7
7F
7B
ENDCHAR
STARTCHAR v
ENCODING 118
SWIDTH 591 0
DWIDTH 11 0
BBX 10 10 1 0
BITMAP
C0C0
C0C0
6180
6180
3300
3300
3300
1E00
1E00
0C00
ENDCHAR
STARTCHAR w
ENCODING 119
SWIDTH 817 0
DWIDTH 16 0
BBX 13 10 2 0
BITMAP
C718
C718
C518
6DB0
6DB0
6DB0
68B0
38E0
38E0
38E0
ENDCHAR
STARTCHAR x
ENCODING 120
SWIDTH 591 0
DWIDTH 11 0
BBX 10 10 1 0
BITMAP
E1C0
6180
3300
3300
1E00
1E00
3300
3300
6180
E1C0
ENDCHAR
STARTCHAR y
ENCODING 121
SWIDTH 591 0
DWIDTH 11 0
BBX 10 14 1 -4
BITMAP
C0C0
C0C0
6180
6180
3300
3300
1E00
1E00
0C00
0C00
0C00
1800
7800
7000
ENDCHAR
STARTCHAR z
ENCODING 122
SWIDTH 524 0
DWIDTH 9 0
BBX 8 10 1 0
BITMAP
FF
FF
06
0C
1C
38
30
70
FF
FF
ENDCHAR
STARTCHAR braceleft
ENCODING 123
SWIDTH 636 0
DWIDTH 11 0
BBX 8 17 2 -3
BITMAP
0F
1F
18
18
18
18
18
F0
F0
38
18
18
18
18
18
1F
0F
ENDCHAR
STARTCHAR bar
ENCODING 124
SWIDTH 336 0
DWIDTH 6 0
BBX 2 18 2 -4
BITMAP
C0
C0
C0
C0
C0
C0
C0
C0
C0
C0
C0
C0
C0
C0
C0
C0
C0
C0
ENDCHAR
STARTCHAR braceright
ENCODING 125
SWIDTH 636 0
DWIDTH 11 0
BBX 8 17 2 -3
BITMAP
F0
F8
18
18
18
18
18
0F
0F
1C
18
18
18
18
18
F8
F0
ENDCHAR
STARTCHAR asciitilde
ENCODING 126
SWIDTH 837 0
DWIDTH 15 0
BBX 11 3 2 5
BITMAP
7C20
FFE0
87C0
ENDCHAR
STARTCHAR nonbreakingspace
ENCODING 160
SWIDTH 636 0
DWIDTH 11 0
BBX 1 1 0 0
BITMAP
00
ENDCHAR
STARTCHAR exclamdown
ENCODING 161
SWIDTH 400 0
DWIDTH 7 0
BBX 2 13 3 0
BITMAP
C0
C0
00
00
C0
C0
C0
C0
C0
C0
C0
C0
C0
ENDCHAR
STARTCHAR cent
ENCODING 162
SWIDTH 636 0
DWIDTH 11 0
BBX 8 16 2 -3
BITMAP
04
04
04
1E
7F
65
C4
C4
C4
C4
65
7F
1E
04
04
04
ENDCHAR
STARTCHAR sterling
ENCODING 163
SWIDTH 636 0
DWIDTH 11 0
BBX 9 13 1 0
BITMAP
0F00
1F80
3880
3000
3000
3000
FE00
FE00
3000
3000
3000
FF80
FF80
ENDCHAR
STARTCHAR currency
ENCODING 164
SWIDTH 636 0
DWIDTH 11 0
BBX 9 9 1 1
BITMAP
8080
6B00
7F00
2200
6300
2200
7F00
6B00
8080
ENDCHAR
STARTCHAR yen
ENCODING 165
SWIDTH 636 0
DWIDTH 11 0
BBX 10 13 1 0
BITMAP
C0C0
6180
6180
3300
3300
FFC0
1E00
0C00
FFC0
0C00
0C00
0C00
0C00
ENDCHAR
STARTCHAR brokenbar
ENCODING 166
SWIDTH 336 0
DWIDTH 6 0
BBX 2 16 2 -3
BITMAP
C0
C0
C0
C0
C0
C0
C0
00
00
C0
C0
C0
C0
C0
C0
C0
ENDCHAR
STARTCHAR section
ENCODING 167
SWIDTH 500 0
DWIDTH 9 0
BBX 7 15 1 -2
BITMAP
3C
7C
60
60
30
78
CE
C6
66
3C
18
0C
0C
7C
78
ENDCHAR
STARTCHAR dieresis
ENCODING 168
SWIDTH 500 0
DWIDTH 9 0
BBX 6 2 2 12
BITMAP
CC
CC
ENDCHAR
STARTCHAR copyright
ENCODING 169
SWIDTH 1000 0
DWIDTH 18 0
BBX 13 13 2 0
BITMAP
0F80
3060
6030
4790
8808
9008
9008
9008
8888
4710
6030
3060
0F80
ENDCHAR
STARTCHAR ordfeminine
ENCODING 170
SWIDTH 471 0
DWIDTH 8 0
BBX 7 9 1 4
BITMAP
7C
02
7E
C2
82
86
7A
00
FE
ENDCHAR
STARTCHAR guillemotleft
ENCODING 171
SWIDTH 611 0
DWIDTH 11 0
BBX 8 8 1 1
BITMAP
11
33
66
CC
CC
66
33
11
ENDCHAR
STARTCHAR logicalnot
ENCODING 172
SWIDTH 837 0
DWIDTH 15 0
BBX 11 5 2 3
BITMAP
FFE0
FFE0
0060
0060
0060
ENDCHAR
STARTCHAR sfthyphen
ENCODING 173
SWIDTH 360 0
DWIDTH 7 0
BBX 5 2 1 4
BITMAP
F8
F8
ENDCHAR
STARTCHAR registered
ENCODING 174
SWIDTH 1000 0
DWIDTH 18 0
BBX 13 13 2 0
BITMAP
0F80
3060
6030
4F10
8888
8888
8F08
8908
8888
48D0
6030
3060
0F80
ENDCHAR
STARTCHAR macron
ENCODING 175
SWIDTH 500 0
DWIDTH 9 0
BBX 5 2 2 11
BITMAP
F8
F8
ENDCHAR
STARTCHAR degree
ENCODING 176
SWIDTH 500 0
DWIDTH 9 0
BBX 6 6 2 7
BITMAP
78
CC
84
84
CC
78
ENDCHAR
STARTCHAR plusminus
ENCODING 177
SWIDTH 837 0
DWIDTH 15 0
BBX 12 11 2 0
BITMAP
0600
0600
0600
FFF0
FFF0
0600
0600
0600
0000
FFF0
FFF0
ENDCHAR
STARTCHAR twosuperior
ENCODING 178
SWIDTH 400 0
DWIDTH 7 0
BBX 5 7 1 6
BITMAP
70
88
08
10
20
40
F8
ENDCHAR
STARTCHAR threesuperior
ENCODING 179
SWIDTH 400 0
DWIDTH 7 0
BBX 5 7 1 6
BITMAP
F8
08
70
08
08
08
F0
ENDCHAR
STARTCHAR acute
ENCODING 180
SWIDTH 500 0
DWIDTH 9 0
BBX 4 3 3 11
BITMAP
30
60
C0
ENDCHAR
STARTCHAR mu
ENCODING 181
SWIDTH 636 0
DWIDTH 11 0
BBX 9 14 2 -4
BITMAP
C300
C300
C300
C300
C300
C300
C300
E700
FF80
D980
C000
C000
C000
C000
ENDCHAR
STARTCHAR paragraph
ENCODING 182
SWIDTH 636 0
DWIDTH 11 0
BBX 8 15 1 -2
BITMAP
3F
79
F9
F9
F9
F9
79
09
09
09
09
09
09
09
09
ENDCHAR
STARTCHAR periodcentered
ENCODING 183
SWIDTH 317 0
DWIDTH 6 0
BBX 2 2 2 5
BITMAP
C0
C0
ENDCHAR
STARTCHAR cedilla
ENCODING 184
SWIDTH 500 0
DWIDTH 9 0
BBX 4 3 3 -3
BITMAP
20
30
F0
ENDCHAR
STARTCHAR onesuperior
ENCODING 185
SWIDTH 400 0
DWIDTH 7 0
BBX 5 7 1 6
BITMAP
E0
20
20
20
20
20
F8
ENDCHAR
STARTCHAR ordmasculine
ENCODING 186
SWIDTH 471 0
DWIDTH 8 0
BBX 7 9 1 4
BITMAP
3C
46
82
82
82
C6
3C
00
FE
ENDCHAR
STARTCHAR guillemotright
ENCODING 187
SWIDTH 611 0
DWIDTH 11 0
BBX 8 8 2 1
BITMAP
88
CC
66
33
33
66
CC
88
ENDCHAR
STARTCHAR onequarter
ENCODING 188
SWIDTH 969 0
DWIDTH 17 0
BBX 16 13 1 0
BITMAP
E018
2010
2020
2060
2040
2080
F986
010A
0212
0622
043F
0802
1802
ENDCHAR
STARTCHAR onehalf
ENCODING 189
SWIDTH 969 0
DWIDTH 17 0
BBX 15 13 1 0
BITMAP
E018
2010
2020
2060
2040
2080
F99C
0122
0202
0604
0408
0810
183E
ENDCHAR
STARTCHAR threequarters
ENCODING 190
SWIDTH 969 0
DWIDTH 17 0
BBX 16 13 1 0
BITMAP
F818
0810
7020
0860
0840
0880
F186
010A
0212
0622
043F
0802
1802
ENDCHAR
STARTCHAR questiondown
ENCODING 191
SWIDTH 530 0
DWIDTH 10 0
BBX 7 13 2 0
BITMAP
18
18
00
18
18
18
30
60
C0
C0
C2
FE
3C
ENDCHAR
STARTCHAR Agrave
ENCODING 192
SWIDTH 684 0
DWIDTH 12 0
BBX 12 16 0 0
BITMAP
0600
0300
0000
0600
0600
0F00
0F00
1980
1980
1980
30C0
3FC0
7FE0
6060
6060
C030
ENDCHAR
STARTCHAR Aacute
ENCODING 193
SWIDTH 684 0
DWIDTH 12 0
BBX 12 16 0 0
BITMAP
0300
0600
0000
0600
0600
0F00
0F00
1980
1980
1980
30C0
3FC0
7FE0
6060
6060
C030
ENDCHAR
STARTCHAR Acircumflex
ENCODING 194
SWIDTH 684 0
DWIDTH 12 0
BBX 12 16 0 0
BITMAP
0700
0D80
0000
0600
0600
0F00
0F00
1980
1980
1980
30C0
3FC0
7FE0
6060
6060
C030
ENDCHAR
STARTCHAR Atilde
ENCODING 195
SWIDTH 684 0
DWIDTH 12 0
BBX 12 16 0 0
BITMAP
0640
0980
0000
0600
0600
0F00
0F00
1980
1980
1980
30C0
3FC0
7FE0
6060
6060
C030
ENDCHAR
STARTCHAR Adieresis
ENCODING 196
SWIDTH 684 0
DWIDTH 12 0
BBX 12 16 0 0
BITMAP
0CC0
0CC0
0000
0600
0600
0F00
0F00
1980
1980
1980
30C0
3FC0
7FE0
6060
6060
C030
ENDCHAR
STARTCHAR Aring
ENCODING 197
SWIDTH 684 0
DWIDTH 12 0
BBX 12 17 0 0
BITMAP
0600
0900
0900
0900
0600
0600
0F00
0F00
1980
1980
1980
30C0
3FC0
7FE0
6060
6060
C030
ENDCHAR
STARTCHAR AE
ENCODING 198
SWIDTH 974 0
DWIDTH 17 0
BBX 16 13 0 0
BITMAP
07FF
07FF
06C0
0CC0
0CC0
18FF
18FF
30C0
3FC0
3FC0
60C0
60FF
C0FF
ENDCHAR
STARTCHAR Ccedilla
ENCODING 199
SWIDTH 698 0
DWIDTH 13 0
BBX 11 16 1 -3
BITMAP
0FC0
3FE0
7020
6000
C000
C000
C000
C000
C000
6000
7020
3FE0
0FC0
0100
0180
0780
ENDCHAR
STARTCHAR Egrave
ENCODING 200
SWIDTH 631 0
DWIDTH 11 0
BBX 8 16 2 0
BITMAP
30
18
00
FF
FF
C0
C0
C0
FF
FF
C0
C0
C0
C0
FF
FF
ENDCHAR
STARTCHAR Eacute
ENCODING 201
SWIDTH 631 0
DWIDTH 11 0
BBX 8 16 2 0
BITMAP
18
30
00
FF
FF
C0
C0
C0
FF
FF
C0
C0
C0
C0
FF
FF
ENDCHAR
STARTCHAR Ecircumflex
ENCODING 202
SWIDTH 631 0
DWIDTH 11 0
BBX 8 16 2 0
BITMAP
38
6C
00
FF
FF
C0
C0
C0
FF
FF
C0
C0
C0
C0
FF
FF
ENDCHAR
STARTCHAR Edieresis
ENCODING 203
SWIDTH 631 0
DWIDTH 11 0
BBX 8 16 2 0
BITMAP
66
66
00
FF
FF
C0
C0
C0
FF
FF
C0
C0
C0
C0
FF
FF
ENDCHAR
STARTCHAR Igrave
ENCODING 204
SWIDTH 294 0
DWIDTH 6 0
BBX 3 16 1 0
BITMAP
C0
60
00
60
60
60
60
60
60
60
60
60
60
60
60
60
ENDCHAR
STARTCHAR Iacute
ENCODING 205
SWIDTH 294 0
DWIDTH 6 0
BBX 3 16 1 0
BITMAP
60
C0
00
60
60
60
60
60
60
60
60
60
60
60
60
60
ENDCHAR
STARTCHAR Icircumflex
ENCODING 206
SWIDTH 294 0
DWIDTH 6 0
BBX 5 16 0 0
BITMAP
70
D8
00
30
30
30
30
30
30
30
30
30
30
30
30
30
ENDCHAR
STARTCHAR Idieresis
ENCODING 207
SWIDTH 294 0
DWIDTH 6 0
BBX 6 16 0 0
BITMAP
CC
CC
00
30
30
30
30
30
30
30
30
30
30
30
30
30
ENDCHAR
STARTCHAR Eth
ENCODING 208
SWIDTH 774 0
DWIDTH 14 0
BBX 13 13 0 0
BITMAP
3F80
3FE0
3070
3038
3018
FE18
FE18
3018
3018
3038
3070
3FE0
3F80
ENDCHAR
STARTCHAR Ntilde
ENCODING 209
SWIDTH 748 0
DWIDTH 14 0
BBX 10 16 2 0
BITMAP
1900
2600
0000
E0C0
E0C0
F0C0
F0C0
D8C0
D8C0
CCC0
C6C0
C6C0
C3C0
C3C0
C1C0
C1C0
ENDCHAR
STARTCHAR Ograve
ENCODING 210
SWIDTH 787 0
DWIDTH 14 0
BBX 12 16 1 0
BITMAP
0600
0300
0000
1F80
3FC0
70E0
6060
C030
C030
C030
C030
C030
6060
70E0
3FC0
1F80
ENDCHAR
STARTCHAR Oacute
ENCODING 211
SWIDTH 787 0
DWIDTH 14 0
BBX 12 16 1 0
BITMAP
0300
0600
0000
1F80
3FC0
70E0
6060
C030
C030
C030
C030
C030
6060
70E0
3FC0
1F80
ENDCHAR
STARTCHAR Ocircumflex
ENCODING 212
SWIDTH 787 0
DWIDTH 14 0
BBX 12 16 1 0
BITMAP
0700
0D80
0000
1F80
3FC0
70E0
6060
C030
C030
C030
C030
C030
6060
70E0
3FC0
1F80
ENDCHAR
STARTCHAR Otilde
ENCODING 213
SWIDTH 787 0
DWIDTH 14 0
BBX 12 16 1 0
BITMAP
0640
0980
0000
1F80
3FC0
70E0
6060
C030
C030
C030
C030
C030
6060
70E0
3FC0
1F80
ENDCHAR
STARTCHAR Odieresis
ENCODING 214
SWIDTH 787 0
DWIDTH 14 0
BBX 12 16 1 0
BITMAP
0CC0
0CC0
0000
1F80
3FC0
70E0
6060
C030
C030
C030
C030
C030
6060
70E0
3FC0
1F80
ENDCHAR
STARTCHAR multiply
ENCODING 215
SWIDTH 837 0
DWIDTH 15 0
BBX 10 10 2 1
BITMAP
4080
E1C0
7380
3F00
1E00
1E00
3F00
7380
E1C0
4080
ENDCHAR
STARTCHAR Oslash
ENCODING 216
SWIDTH 787 0
DWIDTH 14 0
BBX 12 13 1 0
BITMAP
1F10
3FA0
70E0
E0E0
C1B0
C330
C630
CC30
D830
7070
70E0
5FC0
8F80
ENDCHAR
STARTCHAR Ugrave
ENCODING 217
SWIDTH 731 0
DWIDTH 14 0
BBX 10 16 2 0
BITMAP
1800
0C00
0000
C0C0
C0C0
C0C0
C0C0
C0C0
C0C0
C0C0
C0C0
C0C0
C0C0
6180
7F80
3F00
ENDCHAR
STARTCHAR Uacute
ENCODING 218
SWIDTH 731 0
DWIDTH 14 0
BBX 10 16 2 0
BITMAP
0C00
1800
0000
C0C0
C0C0
C0C0
C0C0
C0C0
C0C0
C0C0
C0C0
C0C0
C0C0
6180
7F80
3F00
ENDCHAR
STARTCHAR Ucircumflex
ENCODING 219
SWIDTH 731 0
DWIDTH 14 0
BBX 10 16 2 0
BITMAP
1C00
3600
0000
C0C0
C0C0
C0C0
C0C0
C0C0
C0C0
C0C0
C0C0
C0C0
C0C0
6180
7F80
3F00
ENDCHAR
STARTCHAR Udieresis
ENCODING 220
SWIDTH 731 0
DWIDTH 14 0
BBX 10 16 2 0
BITMAP
3300
3300
0000
C0C0
C0C0
C0C0
C0C0
C0C0
C0C0
C0C0
C0C0
C0C0
C0C0
6180
7F80
3F00
ENDCHAR
STARTCHAR Yacute
ENCODING 221
SWIDTH 610 0
DWIDTH 12 0
BBX 12 16 0 0
BITMAP
0600
0C00
0000
E070
6060
30C0
1980
1980
0F00
0600
0600
0600
0600
0600
0600
0600
ENDCHAR
STARTCHAR Thorn
ENCODING 222
SWIDTH 604 0
DWIDTH 11 0
BBX 8 13 2 0
BITMAP
C0
C0
FC
FE
C7
C3
C3
C7
FE
FC
C0
C0
C0
ENDCHAR
STARTCHAR germandbls
ENCODING 223
SWIDTH 629 0
DWIDTH 11 0
BBX 9 14 2 0
BITMAP
3C00
7E00
E300
C300
CE00
CC00
CC00
C600
C300
C180
C180
D180
DF80
CF00
ENDCHAR
STARTCHAR agrave
ENCODING 224
SWIDTH 612 0
DWIDTH 10 0
BBX 8 14 1 0
BITMAP
30
18
0C
00
3C
7E
47
03
3F
FF
C3
C7
FF
7B
ENDCHAR
STARTCHAR aacute
ENCODING 225
SWIDTH 612 0
DWIDTH 10 0
BBX 8 14 1 0
BITMAP
06
0C
18
00
3C
7E
47
03
3F
FF
C3
C7
FF
7B
ENDCHAR
STARTCHAR acircumflex
ENCODING 226
SWIDTH 612 0
DWIDTH 10 0
BBX 8 14 1 0
BITMAP
0C
1E
33
00
3C
7E
47
03
3F
FF
C3
C7
FF
7B
ENDCHAR
STARTCHAR atilde
ENCODING 227
SWIDTH 612 0
DWIDTH 10 0
BBX 8 14 1 0
BITMAP
39
27
00
00
3C
7E
47
03
3F
FF
C3
C7
FF
7B
ENDCHAR
STARTCHAR adieresis
ENCODING 228
SWIDTH 612 0
DWIDTH 10 0
BBX 8 14 1 0
BITMAP
33
33
00
00
3C
7E
47
03
3F
FF
C3
C7
FF
7B
ENDCHAR
STARTCHAR aring
ENCODING 229
SWIDTH 612 0
DWIDTH 10 0
BBX 8 16 1 0
BITMAP
1C
22
22
22
1C
00
3C
7E
47
03
3F
FF
C3
C7
FF
7B
ENDCHAR
STARTCHAR ae
ENCODING 230
SWIDTH 981 0
DWIDTH 17 0
BBX 15 10 1 0
BITMAP
3C78
7EFC
478E
0306
3FFE
FFFE
C300
C782
FDFE
787C
ENDCHAR
STARTCHAR ccedilla
ENCODING 231
SWIDTH 549 0
DWIDTH 9 0
BBX 8 13 1 -3
BITMAP
1E
7F
61
C0
C0
C0
C0
61
7F
1E
04
06
1E
ENDCHAR
STARTCHAR egrave
ENCODING 232
SWIDTH 615 0
DWIDTH 11 0
BBX 10 14 1 0
BITMAP
3000
1800
0C00
0000
1F00
7F80
61C0
C0C0
FFC0
FFC0
C000
6040
7FC0
1F80
ENDCHAR
STARTCHAR eacute
ENCODING 233
SWIDTH 615 0
DWIDTH 11 0
BBX 10 14 1 0
BITMAP
0600
0C00
1800
0000
1F00
7F80
61C0
C0C0
FFC0
FFC0
C000
6040
7FC0
1F80
ENDCHAR
STARTCHAR ecircumflex
ENCODING 234
SWIDTH 615 0
DWIDTH 11 0
BBX 10 14 1 0
BITMAP
0C00
1E00
3300
0000
1F00
7F80
61C0
C0C0
FFC0
FFC0
C000
6040
7FC0
1F80
ENDCHAR
STARTCHAR edieresis
ENCODING 235
SWIDTH 615 0
DWIDTH 11 0
BBX 10 14 1 0
BITMAP
3300
3300
0000
0000
1F00
7F80
61C0
C0C0
FFC0
FFC0
C000
6040
7FC0
1F80
ENDCHAR
STARTCHAR igrave
ENCODING 236
SWIDTH 277 0
DWIDTH 5 0
BBX 4 14 0 0
BITMAP
C0
60
30
00
30
30
30
30
30
30
30
30
30
30
ENDCHAR
STARTCHAR iacute
ENCODING 237
SWIDTH 277 0
DWIDTH 5 0
BBX 4 14 1 0
BITMAP
30
60
C0
00
60
60
60
60
60
60
60
60
60
60
ENDCHAR
STARTCHAR icircumflex
ENCODING 238
SWIDTH 277 0
DWIDTH 5 0
BBX 6 14 0 0
BITMAP
30
78
CC
00
30
30
30
30
30
30
30
30
30
30
ENDCHAR
STARTCHAR idieresis
ENCODING 239
SWIDTH 277 0
DWIDTH 5 0
BBX 6 14 0 0
BITMAP
CC
CC
00
00
30
30
30
30
30
30
30
30
30
30
ENDCHAR
STARTCHAR eth
ENCODING 240
SWIDTH 611 0
DWIDTH 11 0
BBX 10 14 1 0
BITMAP
1080
1F00
7C00
0600
1F00
7F80
61C0
C0C0
C0C0
C0C0
C0C0
6180
7F80
1E00
ENDCHAR
STARTCHAR ntilde
ENCODING 241
SWIDTH 633 0
DWIDTH 11 0
BBX 8 14 2 0
BITMAP
72
4E
00
00
DE
FE
E7
C3
C3
C3
C3
C3
C3
C3
ENDCHAR
STARTCHAR ograve
ENCODING 242
SWIDTH 611 0
DWIDTH 11 0
BBX 10 14 1 0
BITMAP
3000
1800
0C00
0000
1E00
7F80
6180
C0C0
C0C0
C0C0
C0C0
6180
7F80
1E00
ENDCHAR
STARTCHAR oacute
ENCODING 243
SWIDTH 611 0
DWIDTH 11 0
BBX 10 14 1 0
BITMAP
0600
0C00
1800
0000
1E00
7F80
6180
C0C0
C0C0
C0C0
C0C0
6180
7F80
1E00
ENDCHAR
STARTCHAR ocircumflex
ENCODING 244
SWIDTH 611 0
DWIDTH 11 0
BBX 10 14 1 0
BITMAP
0C00
1E00
3300
0000
1E00
7F80
6180
C0C0
C0C0
C0C0
C0C0
6180
7F80
1E00
ENDCHAR
STARTCHAR otilde
ENCODING 245
SWIDTH 611 0
DWIDTH 11 0
BBX 10 14 1 0
BITMAP
3900
2700
0000
0000
1E00
7F80
6180
C0C0
C0C0
C0C0
C0C0
6180
7F80
1E00
ENDCHAR
STARTCHAR odieresis
ENCODING 246
SWIDTH 611 0
DWIDTH 11 0
BBX 10 14 1 0
BITMAP
3300
3300
0000
0000
1E00
7F80
6180
C0C0
C0C0
C0C0
C0C0
6180
7F80
1E00
ENDCHAR
STARTCHAR divide
ENCODING 247
SWIDTH 837 0
DWIDTH 15 0
BBX 12 8 2 2
BITMAP
0600
0600
0000
FFF0
FFF0
0000
0600
0600
ENDCHAR
STARTCHAR oslash
ENCODING 248
SWIDTH 611 0
DWIDTH 11 0
BBX 10 12 1 -1
BITMAP
0040
1E40
7F80
6180
C2C0
C4C0
C8C0
D0C0
6180
7F80
9E00
8000
ENDCHAR
STARTCHAR ugrave
ENCODING 249
SWIDTH 633 0
DWIDTH 11 0
BBX 8 14 2 0
BITMAP
60
30
18
00
C3
C3
C3
C3
C3
C3
C3
E7
7F
7B
ENDCHAR
STARTCHAR uacute
ENCODING 250
SWIDTH 633 0
DWIDTH 11 0
BBX 8 14 2 0
BITMAP
0C
18
30
00
C3
C3
C3
C3
C3
C3
C3
E7
7F
7B
ENDCHAR
STARTCHAR ucircumflex
ENCODING 251
SWIDTH 633 0
DWIDTH 11 0
BBX 8 14 2 0
BITMAP
18
3C
66
00
C3
C3
C3
C3
C3
C3
C3
E7
7F
7B
ENDCHAR
STARTCHAR udieresis
ENCODING 252
SWIDTH 633 0
DWIDTH 11 0
BBX 8 14 2 0
BITMAP
66
66
00
00
C3
C3
C3
C3
C3
C3
C3
E7
7F
7B
ENDCHAR
STARTCHAR yacute
ENCODING 253
SWIDTH 591 0
DWIDTH 11 0
BBX 10 18 1 -4
BITMAP
0600
0C00
1800
0000
C0C0
C0C0
6180
6180
3300
3300
1E00
1E00
0C00
0C00
0C00
1800
7800
7000
ENDCHAR
STARTCHAR thorn
ENCODING 254
SWIDTH 634 0
DWIDTH 11 0
BBX 9 18 2 -4
BITMAP
C000
C000
C000
C000
DE00
FF00
E380
C180
C180
C180
C180
E380
FF00
DE00
C000
C000
C000
C000
ENDCHAR
STARTCHAR ydieresis
ENCODING 255
SWIDTH 591 0
DWIDTH 11 0
BBX 10 18 1 -4
BITMAP
3300
3300
0000
0000
C0C0
C0C0
6180
6180
3300
3300
1E00
1E00
0C00
0C00
0C00
1800
7800
7000
ENDCHAR
STARTCHAR .notdef
ENCODING -1
SWIDTH 600 0
DWIDTH 11 0
BBX 9 16 1 -3
BITMAP
FF80
8080
8080
8080
8080
8080
8080
8080
8080
8080
8080
8080
8080
8080
8080
FF80
ENDCHAR
STARTCHAR .null
ENCODING -1
SWIDTH 0 0
DWIDTH 0 0
BBX 1 1 0 0
BITMAP
00
ENDCHAR
STARTCHAR nonmarkingreturn
ENCODING -1
SWIDTH 317 0
DWIDTH 6 0
BBX 1 1 0 0
BITMAP
00
ENDCHAR
STARTCHAR dagger
ENCODING -1
SWIDTH 500 0
DWIDTH 9 0
BBX 8 15 1 -2
BITMAP
18
18
18
18
FF
FF
18
18
18
18
18
18
18
18
18
ENDCHAR
STARTCHAR bullet
ENCODING -1
SWIDTH 589 0
DWIDTH 11 0
BBX 5 5 3 4
BITMAP
70
F8
F8
F8
70
ENDCHAR
STARTCHAR trademark
ENCODING -1
SWIDTH 1000 0
DWIDTH 18 0
BBX 12 5 2 8
BITMAP
FB30
23F0
22D0
2210
2210
ENDCHAR
STARTCHAR notequal
ENCODING -1
SWIDTH 837 0
DWIDTH 15 0
BBX 11 12 2 0
BITMAP
0080
00C0
0180
FFE0
FFE0
0600
0C00
FFE0
FFE0
3000
6000
2000
ENDCHAR
STARTCHAR infinity
ENCODING -1
SWIDTH 833 0
DWIDTH 15 0
BBX 11 7 2 2
BITMAP
71C0
CA60
8620
8420
8C20
CA60
71C0
ENDCHAR
STARTCHAR lessequal
ENCODING -1
SWIDTH 837 0
DWIDTH 15 0
BBX 11 10 2 0
BITMAP
0060
03E0
1FC0
FC00
FC00
1FC0
03E0
0060
FFE0
FFE0
ENDCHAR
STARTCHAR greaterequal
ENCODING -1
SWIDTH 837 0
DWIDTH 15 0
BBX 11 10 2 0
BITMAP
C000
F800
7F00
07E0
07E0
7F00
F800
C000
FFE0
FFE0
ENDCHAR
STARTCHAR partialdiff
ENCODING -1
SWIDTH 517 0
DWIDTH 9 0
BBX 8 12 1 0
BITMAP
1C
32
01
01
01
39
67
C3
C2
C2
C4
78
ENDCHAR
STARTCHAR summation
ENCODING -1
SWIDTH 673 0
DWIDTH 12 0
BBX 12 16 0 -3
BITMAP
FFF0
FFF0
6000
3000
1800
0C00
0600
0300
0380
0700
0E00
1C00
3000
6000
FFF0
FFF0
ENDCHAR
STARTCHAR product
ENCODING -1
SWIDTH 756 0
DWIDTH 14 0
BBX 11 16 1 -3
BITMAP
FFE0
FFE0
C060
C060
C060
C060
C060
C060
C060
C060
C060
C060
C060
C060
C060
C060
ENDCHAR
STARTCHAR pi
ENCODING -1
SWIDTH 588 0
DWIDTH 11 0
BBX 11 9 0 0
BITMAP
7FE0
9180
3180
3180
3100
2300
6300
6300
61C0
ENDCHAR
STARTCHAR integral
ENCODING -1
SWIDTH 520 0
DWIDTH 9 0
BBX 8 17 1 -3
BITMAP
07
0C
08
18
18
18
18
18
18
18
18
18
18
18
10
30
E0
ENDCHAR
STARTCHAR Omega
ENCODING -1
SWIDTH 764 0
DWIDTH 14 0
BBX 12 13 1 0
BITMAP
1F80
3FC0
70E0
E070
C030
C030
C030
C030
6060
6060
30C0
F9F0
F9F0
ENDCHAR
STARTCHAR radical
ENCODING -1
SWIDTH 637 0
DWIDTH 11 0
BBX 11 15 1 0
BITMAP
0060
0040
0080
0080
0080
0100
2100
E100
2200
3200
3400
1400
1C00
0800
0800
ENDCHAR
STARTCHAR florin
ENCODING -1
SWIDTH 636 0
DWIDTH 11 0
BBX 11 18 0 -4
BITMAP
00E0
01E0
0300
0300
0300
0200
0600
1FC0
1FC0
0600
0600
0C00
0C00
0C00
0C00
1800
F800
F000
ENDCHAR
STARTCHAR approxequal
ENCODING -1
SWIDTH 837 0
DWIDTH 15 0
BBX 11 7 2 2
BITMAP
7C20
FFE0
87C0
0000
7C20
FFE0
87C0
ENDCHAR
STARTCHAR Delta
ENCODING -1
SWIDTH 668 0
DWIDTH 12 0
BBX 12 13 0 0
BITMAP
0600
0F00
0F00
0900
1980
1180
3080
30C0
2040
6060
6060
7FE0
FFF0
ENDCHAR
STARTCHAR ellipsis
ENCODING -1
SWIDTH 1000 0
DWIDTH 18 0
BBX 14 2 2 0
BITMAP
C30C
C30C
ENDCHAR
STARTCHAR OE
ENCODING -1
SWIDTH 1069 0
DWIDTH 19 0
BBX 17 13 1 0
BITMAP
0FFF80
3FFF80
786000
606000
C06000
C07F80
C07F80
C06000
C06000
606000
786000
3FFF80
0FFF80
ENDCHAR
STARTCHAR oe
ENCODING -1
SWIDTH 1022 0
DWIDTH 19 0
BBX 18 10 1 0
BITMAP
3E1F00
7FFF80
E1E1C0
C0C0C0
C0FFC0
C0FFC0
C0C000
E1E040
7FFFC0
3E1F80
ENDCHAR
STARTCHAR endash
ENCODING -1
SWIDTH 500 0
DWIDTH 9 0
BBX 9 2 0 4
BITMAP
FF80
FF80
ENDCHAR
STARTCHAR emdash
ENCODING -1
SWIDTH 1000 0
DWIDTH 18 0
BBX 18 2 0 4
BITMAP
FFFFC0
FFFFC0
ENDCHAR
STARTCHAR quotedblleft
ENCODING -1
SWIDTH 518 0
DWIDTH 9 0
BBX 7 4 2 9
BITMAP
22
44
CC
CC
ENDCHAR
STARTCHAR quotedblright
ENCODING -1
SWIDTH 518 0
DWIDTH 9 0
BBX 7 4 1 9
BITMAP
66
66
44
88
ENDCHAR
STARTCHAR quoteleft
ENCODING -1
SWIDTH 317 0
DWIDTH 6 0
BBX 3 4 2 9
BITMAP
20
40
C0
C0
ENDCHAR
STARTCHAR quoteright
ENCODING -1
SWIDTH 317 0
DWIDTH 6 0
BBX 3 4 1 9
BITMAP
60
60
40
80
ENDCHAR
STARTCHAR lozenge
ENCODING -1
SWIDTH 494 0
DWIDTH 9 0
BBX 9 19 0 -4
BITMAP
0800
0800
1400
1400
2200
2200
4100
4100
C180
8080
8080
4100
4100
2200
2200
1400
1400
0800
0800
ENDCHAR
STARTCHAR Ydieresis
ENCODING -1
SWIDTH 610 0
DWIDTH 12 0
BBX 12 16 0 0
BITMAP
1980
1980
0000
E070
6060
30C0
1980
1980
0F00
0600
0600
0600
0600
0600
0600
0600
ENDCHAR
STARTCHAR fraction
ENCODING -1
SWIDTH 166 0
DWIDTH 3 0
BBX 10 13 -3 0
BITMAP
00C0
0080
0100
0300
0200
0400
0C00
0800
1000
3000
2000
4000
C000
ENDCHAR
STARTCHAR guilsinglleft
ENCODING -1
SWIDTH 399 0
DWIDTH 7 0
BBX 4 8 1 1
BITMAP
10
30
60
C0
C0
60
30
10
ENDCHAR
STARTCHAR guilsinglright
ENCODING -1
SWIDTH 399 0
DWIDTH 7 0
BBX 4 8 2 1
BITMAP
80
C0
60
30
30
60
C0
80
ENDCHAR
STARTCHAR fi
ENCODING -1
SWIDTH 629 0
DWIDTH 11 0
BBX 10 14 0 0
BITMAP
1EC0
3EC0
3000
3000
FFC0
FFC0
30C0
30C0
30C0
30C0
30C0
30C0
30C0
30C0
ENDCHAR
STARTCHAR fl
ENCODING -1
SWIDTH 629 0
DWIDTH 11 0
BBX 10 14 0 0
BITMAP
1FC0
3FC0
30C0
30C0
FEC0
FEC0
30C0
30C0
30C0
30C0
30C0
30C0
30C0
30C0
ENDCHAR
STARTCHAR daggerdbl
ENCODING -1
SWIDTH 500 0
DWIDTH 9 0
BBX 8 15 1 -2
BITMAP
18
18
18
18
FF
FF
18
18
18
FF
FF
18
18
18
18
ENDCHAR
STARTCHAR quotesinglbase
ENCODING -1
SWIDTH 317 0
DWIDTH 6 0
BBX 3 4 1 -2
BITMAP
60
60
40
80
ENDCHAR
STARTCHAR quotedblbase
ENCODING -1
SWIDTH 518 0
DWIDTH 9 0
BBX 7 4 1 -2
BITMAP
66
66
44
88
ENDCHAR
STARTCHAR perthousand
ENCODING -1
SWIDTH 1341 0
DWIDTH 24 0
BBX 22 13 1 0
BITMAP
781000
CC2000
CC6000
CC4000
CC8000
CC8000
793C78
0266CC
0266CC
0466CC
0C66CC
0866CC
103C78
ENDCHAR
STARTCHAR dotlessi
ENCODING -1
SWIDTH 277 0
DWIDTH 5 0
BBX 2 10 2 0
BITMAP
C0
C0
C0
C0
C0
C0
C0
C0
C0
C0
ENDCHAR
STARTCHAR circumflex
ENCODING -1
SWIDTH 500 0
DWIDTH 9 0
BBX 6 3 2 11
BITMAP
30
78
CC
ENDCHAR
STARTCHAR tilde
ENCODING -1
SWIDTH 500 0
DWIDTH 9 0
BBX 6 2 2 12
BITMAP
E4
9C
ENDCHAR
STARTCHAR breve
ENCODING -1
SWIDTH 500 0
DWIDTH 9 0
BBX 6 2 2 12
BITMAP
84
78
ENDCHAR
STARTCHAR dotaccent
ENCODING -1
SWIDTH 500 0
DWIDTH 9 0
BBX 2 2 4 12
BITMAP
C0
C0
ENDCHAR
STARTCHAR ring
ENCODING -1
SWIDTH 500 0
DWIDTH 9 0
BBX 5 5 2 11
BITMAP
70
88
88
88
70
ENDCHAR
STARTCHAR hungarumlaut
ENCODING -1
SWIDTH 500 0
DWIDTH 9 0
BBX 6 3 2 11
BITMAP
6C
48
90
ENDCHAR
STARTCHAR ogonek
ENCODING -1
SWIDTH 500 0
DWIDTH 9 0
BBX 3 3 3 -3
BITMAP
40
C0
E0
ENDCHAR
STARTCHAR caron
ENCODING -1
SWIDTH 500 0
DWIDTH 9 0
BBX 6 3 2 11
BITMAP
CC
78
30
ENDCHAR
STARTCHAR Lslash
ENCODING -1
SWIDTH 562 0
DWIDTH 10 0
BBX 10 13 0 0
BITMAP
3000
3000
3000
3200
3600
3800
3000
F000
3000
3000
3000
3FC0
3FC0
ENDCHAR
STARTCHAR lslash
ENCODING -1
SWIDTH 284 0
DWIDTH 5 0
BBX 6 14 0 0
BITMAP
30
30
30
30
30
3C
38
70
B0
30
30
30
30
30
ENDCHAR
STARTCHAR Scaron
ENCODING -1
SWIDTH 634 0
DWIDTH 11 0
BBX 9 16 1 0
BITMAP
3600
1C00
0000
3E00
7F00
E100
C000
C000
7C00
3F00
0380
0180
0180
8380
FF00
7E00
ENDCHAR
STARTCHAR scaron
ENCODING -1
SWIDTH 520 0
DWIDTH 8 0
BBX 7 14 1 0
BITMAP
66
3C
18
00
7C
FE
C2
E0
7C
1E
06
86
FE
7C
ENDCHAR
STARTCHAR Zcaron
ENCODING -1
SWIDTH 685 0
DWIDTH 13 0
BBX 11 16 1 0
BITMAP
1B00
0E00
0000
FFE0
FFE0
01C0
0380
0300
0700
0E00
1C00
1800
3000
7000
FFE0
FFE0
ENDCHAR
STARTCHAR zcaron
ENCODING -1
SWIDTH 524 0
DWIDTH 9 0
BBX 8 14 1 0
BITMAP
66
3C
18
00
FF
FF
06
0C
1C
38
30
70
FF
FF
ENDCHAR
STARTCHAR minus
ENCODING -1
SWIDTH 837 0
DWIDTH 15 0
BBX 11 2 2 5
BITMAP
FFE0
FFE0
ENDCHAR
STARTCHAR Gbreve
ENCODING -1
SWIDTH 774 0
DWIDTH 14 0
BBX 11 16 1 0
BITMAP
1080
0F00
0000
0FC0
3FE0
7020
6000
C000
C3E0
C3E0
C060
C060
6060
7060
3FC0
1F80
ENDCHAR
STARTCHAR gbreve
ENCODING -1
SWIDTH 634 0
DWIDTH 11 0
BBX 9 18 1 -4
BITMAP
2100
1E00
0000
0000
3D80
7F80
E380
C180
C180
C180
C180
E380
7F80
3D80
0180
4300
7F00
3E00
ENDCHAR
STARTCHAR Idotaccent
ENCODING -1
SWIDTH 294 0
DWIDTH 6 0
BBX 2 16 2 0
BITMAP
C0
C0
00
C0
C0
C0
C0
C0
C0
C0
C0
C0
C0
C0
C0
C0
ENDCHAR
STARTCHAR Scedilla
ENCODING -1
SWIDTH 634 0
DWIDTH 11 0
BBX 9 16 1 -3
BITMAP
3E00
7F00
E100
C000
C000
7C00
3F00
0380
0180
0180
8380
FF00
7E00
0400
0600
1E00
ENDCHAR
STARTCHAR scedilla
ENCODING -1
SWIDTH 520 0
DWIDTH 8 0
BBX 7 13 1 -3
BITMAP
7C
FE
C2
E0
7C
1E
06
86
FE
7C
08
0C
3C
ENDCHAR
STARTCHAR Cacute
ENCODING -1
SWIDTH 698 0
DWIDTH 13 0
BBX 11 16 1 0
BITMAP
0300
0600
0000
0FC0
3FE0
7020
6000
C000
C000
C000
C000
C000
6000
7020
3FE0
0FC0
ENDCHAR
STARTCHAR cacute
ENCODING -1
SWIDTH 549 0
DWIDTH 9 0
BBX 8 14 1 0
BITMAP
06
0C
18
00
1E
7F
61
C0
C0
C0
C0
61
7F
1E
ENDCHAR
STARTCHAR Ccaron
ENCODING -1
SWIDTH 698 0
DWIDTH 13 0
BBX 11 16 1 0
BITMAP
0D80
0700
0000
0FC0
3FE0
7020
6000
C000
C000
C000
C000
C000
6000
7020
3FE0
0FC0
ENDCHAR
STARTCHAR ccaron
ENCODING -1
SWIDTH 549 0
DWIDTH 9 0
BBX 8 14 1 0
BITMAP
33
1E
0C
00
1E
7F
61
C0
C0
C0
C0
61
7F
1E
ENDCHAR
STARTCHAR dcroat
ENCODING -1
SWIDTH 634 0
DWIDTH 11 0
BBX 10 14 1 0
BITMAP
0180
0180
0FC0
0180
3D80
7F80
E380
C180
C180
C180
C180
E380
7F80
3D80
ENDCHAR
STARTCHAR periodcentered
ENCODING -1
SWIDTH 317 0
DWIDTH 6 0
BBX 2 2 2 5
BITMAP
C0
C0
ENDCHAR
STARTCHAR Euro
ENCODING -1
SWIDTH 636 0
DWIDTH 11 0
BBX 11 13 0 0
BITMAP
07C0
1FE0
1C20
3800
FF80
3000
3000
FF00
3000
3800
1820
1FE0
07C0
ENDCHAR
STARTCHAR c6459
ENCODING -1
SWIDTH 500 0
DWIDTH 9 0
BBX 6 2 2 11
BITMAP
CC
CC
ENDCHAR
STARTCHAR c6460
ENCODING -1
SWIDTH 500 0
DWIDTH 9 0
BBX 3 2 3 11
BITMAP
60
C0
ENDCHAR
STARTCHAR c6461
ENCODING -1
SWIDTH 500 0
DWIDTH 9 0
BBX 6 2 2 11
BITMAP
64
98
ENDCHAR
STARTCHAR c6462
ENCODING -1
SWIDTH 500 0
DWIDTH 9 0
BBX 3 2 3 11
BITMAP
C0
60
ENDCHAR
STARTCHAR c6463
ENCODING -1
SWIDTH 500 0
DWIDTH 9 0
BBX 5 2 2 11
BITMAP
70
D8
ENDCHAR
STARTCHAR c6466
ENCODING -1
SWIDTH 500 0
DWIDTH 9 0
BBX 5 2 2 11
BITMAP
D8
70
ENDCHAR
STARTCHAR c6467
ENCODING -1
SWIDTH 400 0
DWIDTH 7 0
BBX 6 7 1 6
BITMAP
18
28
48
88
FC
08
08
ENDCHAR
STARTCHAR c6468
ENCODING -1
SWIDTH 500 0
DWIDTH 9 0
BBX 6 2 2 11
BITMAP
84
78
ENDCHAR
STARTCHAR c6469
ENCODING -1
SWIDTH 500 0
DWIDTH 9 0
BBX 2 2 4 11
BITMAP
C0
C0
ENDCHAR
ENDFONT
