STARTFONT 2.1
FONT -FontForge-Bitstream Vera Sans-Book-R-Normal-Sans--26-250-75-75-P-156-ISO8859-1
SIZE 25 75 75
FONTBOUNDINGBOX 38 30 -5 -6
COMMENT "Generated by fontforge, http://fontforge.sourceforge.net"
COMMENT "Copyright (c) 2003 by Bitstream, Inc. All Rights Reserved."
STARTPROPERTIES 40
FOUNDRY "FontForge"
FAMILY_NAME "Bitstream Vera Sans"
WEIGHT_NAME "Book"
SLANT "R"
SETWIDTH_NAME "Normal"
ADD_STYLE_NAME "Sans"
PIXEL_SIZE 26
POINT_SIZE 250
RESOLUTION_X 75
RESOLUTION_Y 75
SPACING "P"
AVERAGE_WIDTH 156
CHARSET_REGISTRY "ISO8859"
CHARSET_ENCODING "1"
FONTNAME_REGISTRY ""
CHARSET_COLLECTIONS "ISO8859-9 ISOLatin1Encoding"
FONT_NAME "BitstreamVeraSans-Roman"
FACE_NAME "Bitstream Vera Sans"
COPYRIGHT "Copyright (c) 2003 by Bitstream, Inc. All Rights Reserved."
FONT_VERSION "Release 1.10"
FONT_ASCENT 20
FONT_DESCENT 6
UNDERLINE_POSITION -4
UNDERLINE_THICKNESS 2
X_HEIGHT 13
CAP_HEIGHT 18
RAW_ASCENT 759
RAW_DESCENT 240
NORM_SPACE 8
RELATIVE_WEIGHT 40
RELATIVE_SETWIDTH 50
SUPERSCRIPT_X 0
SUPERSCRIPT_Y 7
SUPERSCRIPT_SIZE 15
SUBSCRIPT_X 0
SUBSCRIPT_Y -5
SUBSCRIPT_SIZE 15
FIGURE_WIDTH 17
AVG_LOWERCASE_WIDTH 148
AVG_UPPERCASE_WIDTH 173
ENDPROPERTIES
CHARS 268
STARTCHAR space
ENCODING 32
SWIDTH 317 0
DWIDTH 8 0
BBX 1 1 0 0
BITMAP
00
ENDCHAR
STARTCHAR exclam
ENCODING 33
SWIDTH 400 0
DWIDTH 10 0
BBX 3 19 4 0
BITMAP
E0
E0
E0
E0
E0
E0
E0
E0
E0
E0
E0
E0
E0
00
00
00
E0
E0
E0
ENDCHAR
STARTCHAR quotedbl
ENCODING 34
SWIDTH 459 0
DWIDTH 12 0
BBX 7 7 2 12
BITMAP
C6
C6
C6
C6
C6
C6
C6
ENDCHAR
STARTCHAR numbersign
ENCODING 35
SWIDTH 837 0
DWIDTH 22 0
BBX 18 18 2 0
BITMAP
018600
018600
018600
038C00
030C00
7FFFC0
7FFFC0
071800
061800
061800
063800
FFFF80
FFFF80
0C3000
0C7000
186000
186000
186000
ENDCHAR
STARTCHAR dollar
ENCODING 36
SWIDTH 636 0
DWIDTH 17 0
BBX 12 24 2 -4
BITMAP
0400
0400
0400
1F80
7FE0
F460
E400
E400
E400
FC00
7F80
3FC0
07E0
04F0
0470
0470
0470
84E0
FFE0
3F80
0400
0400
0400
0400
ENDCHAR
STARTCHAR percent
ENCODING 37
SWIDTH 950 0
DWIDTH 25 0
BBX 22 19 1 0
BITMAP
3E01C0
7F0180
E38300
C18700
C18600
C18E00
C18C00
E39800
7F3800
3E31F0
0073F8
00671C
00C60C
01C60C
01860C
03860C
03071C
0603F8
0E01F0
ENDCHAR
STARTCHAR ampersand
ENCODING 38
SWIDTH 779 0
DWIDTH 20 0
BBX 17 19 1 0
BITMAP
0FC000
1FE000
3C2000
380000
380000
380000
3C0000
3E0000
3F0000
7F0380
678380
E3C300
E1E700
E0F600
E07C00
F03C00
787E00
3FEF00
0F8780
ENDCHAR
STARTCHAR quotesingle
ENCODING 39
SWIDTH 274 0
DWIDTH 7 0
BBX 2 7 2 12
BITMAP
C0
C0
C0
C0
C0
C0
C0
ENDCHAR
STARTCHAR parenleft
ENCODING 40
SWIDTH 390 0
DWIDTH 10 0
BBX 6 23 2 -3
BITMAP
0C
18
18
30
30
70
70
E0
E0
E0
E0
E0
E0
E0
E0
E0
70
70
30
30
18
18
0C
ENDCHAR
STARTCHAR parenright
ENCODING 41
SWIDTH 390 0
DWIDTH 10 0
BBX 6 23 2 -3
BITMAP
C0
60
60
30
30
38
38
18
1C
1C
1C
1C
1C
1C
1C
18
38
38
30
30
60
60
C0
ENDCHAR
STARTCHAR asterisk
ENCODING 42
SWIDTH 500 0
DWIDTH 13 0
BBX 11 12 1 7
BITMAP
0400
0400
C460
E4E0
3F80
0E00
0E00
3F80
E4E0
C460
0400
0400
ENDCHAR
STARTCHAR plus
ENCODING 43
SWIDTH 837 0
DWIDTH 22 0
BBX 16 16 3 0
BITMAP
0180
0180
0180
0180
0180
0180
0180
FFFF
FFFF
0180
0180
0180
0180
0180
0180
0180
ENDCHAR
STARTCHAR comma
ENCODING 44
SWIDTH 317 0
DWIDTH 8 0
BBX 4 6 2 -3
BITMAP
70
70
70
60
E0
C0
ENDCHAR
STARTCHAR hyphen
ENCODING 45
SWIDTH 360 0
DWIDTH 9 0
BBX 7 2 1 6
BITMAP
FE
FE
ENDCHAR
STARTCHAR period
ENCODING 46
SWIDTH 317 0
DWIDTH 8 0
BBX 3 3 3 0
BITMAP
E0
E0
E0
ENDCHAR
STARTCHAR slash
ENCODING 47
SWIDTH 336 0
DWIDTH 9 0
BBX 9 21 0 -2
BITMAP
0180
0380
0300
0300
0700
0600
0600
0E00
0C00
0C00
1C00
1800
1800
3800
3000
3000
7000
6000
6000
E000
C000
ENDCHAR
STARTCHAR zero
ENCODING 48
SWIDTH 636 0
DWIDTH 17 0
BBX 13 19 2 0
BITMAP
0F80
3FE0
38E0
7070
7070
E038
E038
E038
E038
E038
E038
E038
E038
E038
7070
7070
38E0
3FE0
0F80
ENDCHAR
STARTCHAR one
ENCODING 49
SWIDTH 636 0
DWIDTH 17 0
BBX 12 19 2 0
BITMAP
1F00
FF00
E700
0700
0700
0700
0700
0700
0700
0700
0700
0700
0700
0700
0700
0700
0700
7FF0
7FF0
ENDCHAR
STARTCHAR two
ENCODING 50
SWIDTH 636 0
DWIDTH 17 0
BBX 12 19 2 0
BITMAP
3F00
FFC0
E1E0
80F0
0070
0070
0070
00F0
00F0
01E0
03C0
0780
0F00
1E00
3C00
7800
F800
FFF0
FFF0
ENDCHAR
STARTCHAR three
ENCODING 51
SWIDTH 636 0
DWIDTH 17 0
BBX 12 19 2 0
BITMAP
3F00
7FC0
41C0
00E0
00E0
00E0
00E0
01C0
1F80
1F80
01E0
00F0
0070
0070
0070
00F0
81E0
FFC0
3F00
ENDCHAR
STARTCHAR four
ENCODING 52
SWIDTH 636 0
DWIDTH 17 0
BBX 14 19 1 0
BITMAP
01E0
01E0
03E0
07E0
06E0
0CE0
1CE0
18E0
30E0
70E0
60E0
C0E0
FFFC
FFFC
00E0
00E0
00E0
00E0
00E0
ENDCHAR
STARTCHAR five
ENCODING 53
SWIDTH 636 0
DWIDTH 17 0
BBX 12 19 2 0
BITMAP
7FE0
7FE0
7000
7000
7000
7000
7F80
7FC0
41E0
00E0
0070
0070
0070
0070
0070
00E0
81E0
FFC0
3F00
ENDCHAR
STARTCHAR six
ENCODING 54
SWIDTH 636 0
DWIDTH 17 0
BBX 13 19 2 0
BITMAP
07E0
1FF0
3C10
7800
7000
7000
E000
E7C0
EFE0
F8F0
F078
E038
E038
E038
6038
7078
38F0
1FE0
0F80
ENDCHAR
STARTCHAR seven
ENCODING 55
SWIDTH 636 0
DWIDTH 17 0
BBX 12 19 2 0
BITMAP
FFF0
FFF0
00F0
00E0
00E0
01E0
01C0
01C0
03C0
0380
0380
0780
0700
0700
0F00
0E00
0E00
1E00
1C00
ENDCHAR
STARTCHAR eight
ENCODING 56
SWIDTH 636 0
DWIDTH 17 0
BBX 13 19 2 0
BITMAP
1FC0
7FF0
7070
E038
E038
E038
E038
7070
1FC0
3FE0
70F0
E078
E038
E038
E038
E078
70F0
3FE0
1FC0
ENDCHAR
STARTCHAR nine
ENCODING 57
SWIDTH 636 0
DWIDTH 17 0
BBX 13 19 2 0
BITMAP
0F80
3FC0
78E0
F070
E030
E038
E038
E038
F078
78F8
3FB8
1F38
0038
0070
0070
00F0
41E0
7FC0
3F00
ENDCHAR
STARTCHAR colon
ENCODING 58
SWIDTH 336 0
DWIDTH 9 0
BBX 3 13 3 0
BITMAP
E0
E0
E0
00
00
00
00
00
00
00
E0
E0
E0
ENDCHAR
STARTCHAR semicolon
ENCODING 59
SWIDTH 336 0
DWIDTH 9 0
BBX 4 16 2 -3
BITMAP
70
70
70
00
00
00
00
00
00
00
70
70
70
60
E0
C0
ENDCHAR
STARTCHAR less
ENCODING 60
SWIDTH 837 0
DWIDTH 22 0
BBX 16 14 3 1
BITMAP
0001
000F
007E
01F0
0FC0
7E00
F000
F000
7E00
0FC0
01F0
007E
000F
0001
ENDCHAR
STARTCHAR equal
ENCODING 61
SWIDTH 837 0
DWIDTH 22 0
BBX 16 7 3 5
BITMAP
FFFF
FFFF
0000
0000
0000
FFFF
FFFF
ENDCHAR
STARTCHAR greater
ENCODING 62
SWIDTH 837 0
DWIDTH 22 0
BBX 16 14 3 1
BITMAP
8000
F000
7E00
0F80
03F0
007E
000F
000F
007E
03F0
0F80
7E00
F000
8000
ENDCHAR
STARTCHAR question
ENCODING 63
SWIDTH 530 0
DWIDTH 14 0
BBX 10 19 2 0
BITMAP
3E00
7F80
C3C0
81C0
01C0
01C0
0180
0300
0600
0E00
1C00
1C00
1C00
1C00
0000
0000
1C00
1C00
1C00
ENDCHAR
STARTCHAR at
ENCODING 64
SWIDTH 1000 0
DWIDTH 26 0
BBX 23 23 2 -5
BITMAP
00FE00
03FFC0
0F81E0
1C0070
380018
30000C
60798C
61FF86
C1C786
C30386
C30186
C30186
C3018E
C3038C
C1C798
61FFF0
6079C0
300000
380000
1C0040
0F81E0
03FF80
00FE00
ENDCHAR
STARTCHAR A
ENCODING 65
SWIDTH 684 0
DWIDTH 18 0
BBX 17 19 0 0
BITMAP
01C000
01C000
03E000
03E000
07F000
077000
077000
0F3800
0E3800
0E3800
1C1C00
1C1C00
3FFE00
3FFE00
380E00
780F00
700700
700700
E00380
ENDCHAR
STARTCHAR B
ENCODING 66
SWIDTH 686 0
DWIDTH 18 0
BBX 13 19 2 0
BITMAP
FF80
FFE0
E0E0
E070
E070
E070
E070
E0E0
FFC0
FFC0
E070
E030
E038
E038
E038
E038
E070
FFE0
FFC0
ENDCHAR
STARTCHAR C
ENCODING 67
SWIDTH 698 0
DWIDTH 18 0
BBX 15 19 1 0
BITMAP
03F0
0FFC
3E0E
3806
7000
7000
E000
E000
E000
E000
E000
E000
E000
7000
7000
3806
3E0E
0FFC
03F0
ENDCHAR
STARTCHAR D
ENCODING 68
SWIDTH 770 0
DWIDTH 20 0
BBX 16 19 2 0
BITMAP
FFC0
FFF0
E07C
E01E
E00E
E00E
E007
E007
E007
E007
E007
E007
E007
E00E
E00E
E01C
E07C
FFF0
FFC0
ENDCHAR
STARTCHAR E
ENCODING 69
SWIDTH 631 0
DWIDTH 16 0
BBX 12 19 2 0
BITMAP
FFF0
FFF0
E000
E000
E000
E000
E000
E000
FFE0
FFE0
E000
E000
E000
E000
E000
E000
E000
FFF0
FFF0
ENDCHAR
STARTCHAR F
ENCODING 70
SWIDTH 575 0
DWIDTH 15 0
BBX 11 19 2 0
BITMAP
FFE0
FFE0
E000
E000
E000
E000
E000
E000
FFC0
FFC0
E000
E000
E000
E000
E000
E000
E000
E000
E000
ENDCHAR
STARTCHAR G
ENCODING 71
SWIDTH 774 0
DWIDTH 20 0
BBX 17 19 1 0
BITMAP
03F800
0FFE00
1E0F00
380300
700100
700000
E00000
E00000
E00000
E03F80
E03F80
E00380
E00380
700380
700380
380380
1E0780
0FFF00
03FC00
ENDCHAR
STARTCHAR H
ENCODING 72
SWIDTH 751 0
DWIDTH 20 0
BBX 14 19 2 0
BITMAP
E01C
E01C
E01C
E01C
E01C
E01C
E01C
E01C
FFFC
FFFC
E01C
E01C
E01C
E01C
E01C
E01C
E01C
E01C
E01C
ENDCHAR
STARTCHAR I
ENCODING 73
SWIDTH 294 0
DWIDTH 8 0
BBX 3 19 2 0
BITMAP
E0
E0
E0
E0
E0
E0
E0
E0
E0
E0
E0
E0
E0
E0
E0
E0
E0
E0
E0
ENDCHAR
STARTCHAR J
ENCODING 74
SWIDTH 294 0
DWIDTH 8 0
BBX 7 24 -2 -5
BITMAP
0E
0E
0E
0E
0E
0E
0E
0E
0E
0E
0E
0E
0E
0E
0E
0E
0E
0E
0E
0E
0E
1C
FC
F0
ENDCHAR
STARTCHAR K
ENCODING 75
SWIDTH 655 0
DWIDTH 17 0
BBX 15 19 2 0
BITMAP
E03C
E078
E0F0
E1E0
E3C0
E780
EF00
FE00
FC00
FC00
FE00
EF00
E780
E3C0
E1E0
E0F0
E078
E03C
E01E
ENDCHAR
STARTCHAR L
ENCODING 76
SWIDTH 557 0
DWIDTH 14 0
BBX 12 19 2 0
BITMAP
E000
E000
E000
E000
E000
E000
E000
E000
E000
E000
E000
E000
E000
E000
E000
E000
E000
FFF0
FFF0
ENDCHAR
STARTCHAR M
ENCODING 77
SWIDTH 862 0
DWIDTH 22 0
BBX 17 19 2 0
BITMAP
FC1F80
FC1F80
FC1F80
FE3F80
EE3B80
EE3B80
EF7B80
E77380
E77380
E7F380
E3E380
E3E380
E1E380
E1C380
E1C380
E00380
E00380
E00380
E00380
ENDCHAR
STARTCHAR N
ENCODING 78
SWIDTH 748 0
DWIDTH 19 0
BBX 14 19 2 0
BITMAP
F01C
F81C
F81C
FC1C
FC1C
FE1C
EE1C
EF1C
E71C
E79C
E39C
E3DC
E1DC
E1FC
E0FC
E0FC
E07C
E07C
E03C
ENDCHAR
STARTCHAR O
ENCODING 79
SWIDTH 787 0
DWIDTH 20 0
BBX 18 19 1 0
BITMAP
03F000
0FFC00
1E1E00
380700
700380
700380
E001C0
E001C0
E001C0
E001C0
E001C0
E001C0
E001C0
700380
700380
380700
1E1E00
0FFC00
03F000
ENDCHAR
STARTCHAR P
ENCODING 80
SWIDTH 603 0
DWIDTH 16 0
BBX 12 19 2 0
BITMAP
FF80
FFE0
E0E0
E070
E070
E070
E070
E070
E0E0
FFE0
FF80
E000
E000
E000
E000
E000
E000
E000
E000
ENDCHAR
STARTCHAR Q
ENCODING 81
SWIDTH 787 0
DWIDTH 20 0
BBX 18 22 1 -3
BITMAP
03F000
0FFC00
1E1E00
380700
700380
700380
E001C0
E001C0
E001C0
E001C0
E001C0
E001C0
E001C0
700380
700380
380700
1E1E00
0FFC00
03F800
001C00
000E00
000700
ENDCHAR
STARTCHAR R
ENCODING 82
SWIDTH 694 0
DWIDTH 18 0
BBX 15 19 2 0
BITMAP
FF80
FFE0
E0E0
E070
E070
E070
E070
E070
E0E0
FFC0
FF80
E1C0
E0E0
E0F0
E070
E078
E03C
E01C
E01E
ENDCHAR
STARTCHAR S
ENCODING 83
SWIDTH 634 0
DWIDTH 17 0
BBX 13 19 2 0
BITMAP
1FC0
3FF0
7870
E010
E000
E000
F000
FE00
7FC0
1FF0
03F0
0078
0038
0038
0038
8038
E0F0
FFE0
3F80
ENDCHAR
STARTCHAR T
ENCODING 84
SWIDTH 610 0
DWIDTH 16 0
BBX 17 19 0 0
BITMAP
FFFF80
FFFF80
01C000
01C000
01C000
01C000
01C000
01C000
01C000
01C000
01C000
01C000
01C000
01C000
01C000
01C000
01C000
01C000
01C000
ENDCHAR
STARTCHAR U
ENCODING 85
SWIDTH 731 0
DWIDTH 19 0
BBX 14 19 3 0
BITMAP
E01C
E01C
E01C
E01C
E01C
E01C
E01C
E01C
E01C
E01C
E01C
E01C
E01C
E01C
E01C
7038
7878
3FF0
0FC0
ENDCHAR
STARTCHAR V
ENCODING 86
SWIDTH 684 0
DWIDTH 18 0
BBX 17 19 0 0
BITMAP
E00380
700700
700700
780F00
380E00
380E00
3C1E00
1C1C00
1C1C00
0E3800
0E3800
0E7800
077000
077000
07F000
03E000
03E000
01C000
01C000
ENDCHAR
STARTCHAR W
ENCODING 87
SWIDTH 988 0
DWIDTH 26 0
BBX 24 19 1 0
BITMAP
E03C07
E03C07
703C0E
703C0E
707E0E
70660E
38661C
38661C
38E71C
38C31C
1CC338
1CC338
1DC3B8
1D81B8
0F81F0
0F81F0
0F81F0
0F00F0
0700E0
ENDCHAR
STARTCHAR X
ENCODING 88
SWIDTH 685 0
DWIDTH 18 0
BBX 16 19 1 0
BITMAP
780F
3C1E
1C1C
1E3C
0F78
0770
07F0
03E0
01C0
03C0
03E0
07E0
0FF0
0E78
1E38
3C3C
381C
780E
F00F
ENDCHAR
STARTCHAR Y
ENCODING 89
SWIDTH 610 0
DWIDTH 16 0
BBX 17 19 0 0
BITMAP
F00780
780F00
380E00
3C1E00
1E3C00
0F7800
077000
07F000
03E000
01C000
01C000
01C000
01C000
01C000
01C000
01C000
01C000
01C000
01C000
ENDCHAR
STARTCHAR Z
ENCODING 90
SWIDTH 685 0
DWIDTH 18 0
BBX 15 19 1 0
BITMAP
FFFE
FFFE
001E
003C
0078
0070
00F0
01E0
03C0
0380
0780
0F00
1E00
1C00
3C00
7800
F000
FFFE
FFFE
ENDCHAR
STARTCHAR bracketleft
ENCODING 91
SWIDTH 390 0
DWIDTH 10 0
BBX 6 23 2 -3
BITMAP
FC
FC
E0
E0
E0
E0
E0
E0
E0
E0
E0
E0
E0
E0
E0
E0
E0
E0
E0
E0
E0
FC
FC
ENDCHAR
STARTCHAR backslash
ENCODING 92
SWIDTH 336 0
DWIDTH 9 0
BBX 9 21 0 -2
BITMAP
C000
E000
6000
6000
7000
3000
3000
3800
1800
1800
1C00
0C00
0C00
0E00
0600
0600
0700
0300
0300
0380
0180
ENDCHAR
STARTCHAR bracketright
ENCODING 93
SWIDTH 390 0
DWIDTH 10 0
BBX 6 23 2 -3
BITMAP
FC
FC
1C
1C
1C
1C
1C
1C
1C
1C
1C
1C
1C
1C
1C
1C
1C
1C
1C
1C
1C
FC
FC
ENDCHAR
STARTCHAR asciicircum
ENCODING 94
SWIDTH 837 0
DWIDTH 22 0
BBX 16 7 3 12
BITMAP
03C0
07E0
0EF0
1C38
381C
700E
E007
ENDCHAR
STARTCHAR underscore
ENCODING 95
SWIDTH 500 0
DWIDTH 13 0
BBX 13 2 0 -6
BITMAP
FFF8
FFF8
ENDCHAR
STARTCHAR grave
ENCODING 96
SWIDTH 500 0
DWIDTH 13 0
BBX 6 5 2 16
BITMAP
E0
70
30
18
0C
ENDCHAR
STARTCHAR a
ENCODING 97
SWIDTH 612 0
DWIDTH 16 0
BBX 12 14 1 0
BITMAP
3F80
7FC0
40E0
0070
0070
1FF0
7FF0
F070
E070
E070
E0F0
F1F0
7F70
3E70
ENDCHAR
STARTCHAR b
ENCODING 98
SWIDTH 634 0
DWIDTH 17 0
BBX 13 20 2 0
BITMAP
E000
E000
E000
E000
E000
E000
E7C0
EFE0
F8F0
F070
E038
E038
E038
E038
E038
E038
F070
F8F0
EFE0
E7C0
ENDCHAR
STARTCHAR c
ENCODING 99
SWIDTH 549 0
DWIDTH 14 0
BBX 11 14 1 0
BITMAP
0FC0
3FE0
7820
7000
E000
E000
E000
E000
E000
E000
7000
7820
3FE0
0FC0
ENDCHAR
STARTCHAR d
ENCODING 100
SWIDTH 634 0
DWIDTH 17 0
BBX 13 20 1 0
BITMAP
0038
0038
0038
0038
0038
0038
1F38
3FB8
78F8
7078
E038
E038
E038
E038
E038
E038
7078
78F8
3FB8
1F38
ENDCHAR
STARTCHAR e
ENCODING 101
SWIDTH 615 0
DWIDTH 16 0
BBX 13 14 1 0
BITMAP
0FC0
3FE0
78F0
7070
E038
E038
FFF8
FFF8
E000
E000
7000
7810
3FF0
0FC0
ENDCHAR
STARTCHAR f
ENCODING 102
SWIDTH 352 0
DWIDTH 9 0
BBX 9 20 1 0
BITMAP
0F80
1F80
3C00
3800
3800
3800
FF80
FF80
3800
3800
3800
3800
3800
3800
3800
3800
3800
3800
3800
3800
ENDCHAR
STARTCHAR g
ENCODING 103
SWIDTH 634 0
DWIDTH 17 0
BBX 13 19 1 -5
BITMAP
1F38
3FB8
78F8
7078
E038
E038
E038
E038
E038
E038
7078
78F8
3FB8
1F38
0038
0070
20F0
3FE0
1FC0
ENDCHAR
STARTCHAR h
ENCODING 104
SWIDTH 633 0
DWIDTH 16 0
BBX 12 20 2 0
BITMAP
E000
E000
E000
E000
E000
E000
E7C0
EFE0
F8E0
F070
E070
E070
E070
E070
E070
E070
E070
E070
E070
E070
ENDCHAR
STARTCHAR i
ENCODING 105
SWIDTH 277 0
DWIDTH 7 0
BBX 3 20 2 0
BITMAP
E0
E0
E0
00
00
00
E0
E0
E0
E0
E0
E0
E0
E0
E0
E0
E0
E0
E0
E0
ENDCHAR
STARTCHAR j
ENCODING 106
SWIDTH 277 0
DWIDTH 7 0
BBX 6 25 -1 -5
BITMAP
1C
1C
1C
00
00
00
1C
1C
1C
1C
1C
1C
1C
1C
1C
1C
1C
1C
1C
1C
1C
1C
3C
F8
F0
ENDCHAR
STARTCHAR k
ENCODING 107
SWIDTH 579 0
DWIDTH 15 0
BBX 13 20 2 0
BITMAP
E000
E000
E000
E000
E000
E000
E0F0
E1E0
E3C0
EF80
FF00
FE00
F800
FC00
FE00
EF00
E780
E3C0
E1E0
E0F8
ENDCHAR
STARTCHAR l
ENCODING 108
SWIDTH 277 0
DWIDTH 7 0
BBX 3 20 2 0
BITMAP
E0
E0
E0
E0
E0
E0
E0
E0
E0
E0
E0
E0
E0
E0
E0
E0
E0
E0
E0
E0
ENDCHAR
STARTCHAR m
ENCODING 109
SWIDTH 974 0
DWIDTH 25 0
BBX 21 14 2 0
BITMAP
E783E0
EFE7F0
F8EC70
F07838
E07038
E07038
E07038
E07038
E07038
E07038
E07038
E07038
E07038
E07038
ENDCHAR
STARTCHAR n
ENCODING 110
SWIDTH 633 0
DWIDTH 16 0
BBX 12 14 2 0
BITMAP
E7C0
EFE0
F8E0
F070
E070
E070
E070
E070
E070
E070
E070
E070
E070
E070
ENDCHAR
STARTCHAR o
ENCODING 111
SWIDTH 611 0
DWIDTH 16 0
BBX 13 14 1 0
BITMAP
0F80
3FE0
78F0
7070
E038
E038
E038
E038
E038
E038
7070
78F0
3FE0
0F80
ENDCHAR
STARTCHAR p
ENCODING 112
SWIDTH 634 0
DWIDTH 17 0
BBX 13 19 2 -5
BITMAP
E7C0
EFE0
F8F0
F070
E038
E038
E038
E038
E038
E038
F070
F8F0
EFE0
E7C0
E000
E000
E000
E000
E000
ENDCHAR
STARTCHAR q
ENCODING 113
SWIDTH 634 0
DWIDTH 17 0
BBX 13 19 1 -5
BITMAP
1F38
3FB8
78F8
7078
E038
E038
E038
E038
E038
E038
7078
78F8
3FB8
1F38
0038
0038
0038
0038
0038
ENDCHAR
STARTCHAR r
ENCODING 114
SWIDTH 411 0
DWIDTH 11 0
BBX 8 14 2 0
BITMAP
E7
EF
F8
F0
E0
E0
E0
E0
E0
E0
E0
E0
E0
E0
ENDCHAR
STARTCHAR s
ENCODING 115
SWIDTH 520 0
DWIDTH 14 0
BBX 11 14 1 0
BITMAP
3F80
7FC0
F040
E000
E000
FC00
7F80
1FC0
01E0
00E0
00E0
81E0
FFC0
3F00
ENDCHAR
STARTCHAR t
ENCODING 116
SWIDTH 392 0
DWIDTH 10 0
BBX 10 18 0 0
BITMAP
3800
3800
3800
3800
FFC0
FFC0
3800
3800
3800
3800
3800
3800
3800
3800
3800
3800
1FC0
0FC0
ENDCHAR
STARTCHAR u
ENCODING 117
SWIDTH 633 0
DWIDTH 16 0
BBX 12 14 2 0
BITMAP
E070
E070
E070
E070
E070
E070
E070
E070
E070
E070
E0F0
71F0
7F70
3E70
ENDCHAR
STARTCHAR v
ENCODING 118
SWIDTH 591 0
DWIDTH 15 0
BBX 14 14 1 0
BITMAP
E01C
7038
7038
7878
3870
3870
3CF0
1CE0
1DE0
0FC0
0FC0
0FC0
0780
0780
ENDCHAR
STARTCHAR w
ENCODING 119
SWIDTH 817 0
DWIDTH 21 0
BBX 19 14 1 0
BITMAP
E0E0E0
E0E1E0
71F1C0
71B1C0
71B1C0
79B3C0
3B1B80
3B1B80
3B1B80
1F1F80
1E0F00
1E0F00
1E0F00
0E0E00
ENDCHAR
STARTCHAR x
ENCODING 120
SWIDTH 591 0
DWIDTH 15 0
BBX 14 14 1 0
BITMAP
F03C
7878
3CF0
1FE0
0FC0
0FC0
0780
0780
0FC0
1FE0
1CE0
3CF0
7878
F03C
ENDCHAR
STARTCHAR y
ENCODING 121
SWIDTH 591 0
DWIDTH 15 0
BBX 14 19 1 -5
BITMAP
E01C
7038
7038
7870
3870
3CF0
1CE0
1DE0
1FC0
0FC0
0F80
0780
0780
0700
0F00
0E00
1E00
7C00
7800
ENDCHAR
STARTCHAR z
ENCODING 122
SWIDTH 524 0
DWIDTH 14 0
BBX 11 14 1 0
BITMAP
FFE0
FFE0
01E0
03C0
0380
0780
0F00
1E00
1C00
3C00
7800
F000
FFE0
FFE0
ENDCHAR
STARTCHAR braceleft
ENCODING 123
SWIDTH 636 0
DWIDTH 17 0
BBX 11 24 3 -4
BITMAP
03E0
07E0
0F00
0E00
0E00
0E00
0E00
0E00
0E00
0E00
1C00
F800
F800
1C00
0E00
0E00
0E00
0E00
0E00
0E00
0E00
0F00
07E0
03E0
ENDCHAR
STARTCHAR bar
ENCODING 124
SWIDTH 336 0
DWIDTH 9 0
BBX 2 26 3 -6
BITMAP
C0
C0
C0
C0
C0
C0
C0
C0
C0
C0
C0
C0
C0
C0
C0
C0
C0
C0
C0
C0
C0
C0
C0
C0
C0
C0
ENDCHAR
STARTCHAR braceright
ENCODING 125
SWIDTH 636 0
DWIDTH 17 0
BBX 11 24 3 -4
BITMAP
F800
FC00
1E00
0E00
0E00
0E00
0E00
0E00
0E00
0E00
0700
03E0
03E0
0700
0E00
0E00
0E00
0E00
0E00
0E00
0E00
1E00
FC00
F800
ENDCHAR
STARTCHAR asciitilde
ENCODING 126
SWIDTH 837 0
DWIDTH 22 0
BBX 16 4 3 6
BITMAP
3E01
7F83
C1FE
807C
ENDCHAR
STARTCHAR nonbreakingspace
ENCODING 160
SWIDTH 636 0
DWIDTH 17 0
BBX 1 1 0 0
BITMAP
00
ENDCHAR
STARTCHAR exclamdown
ENCODING 161
SWIDTH 400 0
DWIDTH 10 0
BBX 3 19 4 0
BITMAP
E0
E0
E0
00
00
00
E0
E0
E0
E0
E0
E0
E0
E0
E0
E0
E0
E0
E0
ENDCHAR
STARTCHAR cent
ENCODING 162
SWIDTH 636 0
DWIDTH 17 0
BBX 11 22 2 -4
BITMAP
0200
0200
0200
0200
0FC0
3FE0
7A20
7200
E200
E200
E200
E200
E200
E200
7200
7A20
3FE0
0FC0
0200
0200
0200
0200
ENDCHAR
STARTCHAR sterling
ENCODING 163
SWIDTH 636 0
DWIDTH 17 0
BBX 13 19 2 0
BITMAP
03F0
0FF8
0E08
1C00
1C00
1C00
1C00
1C00
1C00
FFE0
FFE0
1C00
1C00
1C00
1C00
1C00
1C00
FFF8
FFF8
ENDCHAR
STARTCHAR currency
ENCODING 164
SWIDTH 636 0
DWIDTH 17 0
BBX 15 15 1 1
BITMAP
4004
E00E
77DC
3FF8
1C70
3838
3018
3018
3018
3838
1C70
3FF8
77DC
E00E
4004
ENDCHAR
STARTCHAR yen
ENCODING 165
SWIDTH 636 0
DWIDTH 17 0
BBX 15 19 1 0
BITMAP
F01E
701C
783C
3838
1C70
1C70
0EE0
7EFC
7FFC
07C0
0380
0380
7FFC
7FFC
0380
0380
0380
0380
0380
ENDCHAR
STARTCHAR brokenbar
ENCODING 166
SWIDTH 336 0
DWIDTH 9 0
BBX 2 23 3 -4
BITMAP
C0
C0
C0
C0
C0
C0
C0
C0
C0
C0
00
00
00
C0
C0
C0
C0
C0
C0
C0
C0
C0
C0
ENDCHAR
STARTCHAR section
ENCODING 167
SWIDTH 500 0
DWIDTH 13 0
BBX 11 21 1 -2
BITMAP
1F80
3FC0
7040
6000
6000
7800
3E00
6F00
C3C0
C0E0
C060
7060
7860
1FC0
0780
01C0
00C0
00C0
41C0
7F80
3F00
ENDCHAR
STARTCHAR dieresis
ENCODING 168
SWIDTH 500 0
DWIDTH 13 0
BBX 8 3 3 17
BITMAP
E7
E7
E7
ENDCHAR
STARTCHAR copyright
ENCODING 169
SWIDTH 1000 0
DWIDTH 26 0
BBX 19 19 4 0
BITMAP
03F800
0E0E00
180300
30F880
6304C0
460040
C60060
8C0020
8C0020
8C0020
8C0020
8C0020
C60060
460040
6304C0
30F980
180300
0E0E00
03F800
ENDCHAR
STARTCHAR ordfeminine
ENCODING 170
SWIDTH 471 0
DWIDTH 12 0
BBX 10 12 1 7
BITMAP
3F00
4180
00C0
3FC0
60C0
C0C0
C0C0
C1C0
63C0
3EC0
0000
FFC0
ENDCHAR
STARTCHAR guillemotleft
ENCODING 171
SWIDTH 611 0
DWIDTH 16 0
BBX 12 12 2 1
BITMAP
0410
0C30
1C70
38E0
71C0
E380
E380
71C0
38E0
1C70
0C30
0410
ENDCHAR
STARTCHAR logicalnot
ENCODING 172
SWIDTH 837 0
DWIDTH 22 0
BBX 16 7 3 4
BITMAP
FFFF
FFFF
0003
0003
0003
0003
0003
ENDCHAR
STARTCHAR sfthyphen
ENCODING 173
SWIDTH 360 0
DWIDTH 9 0
BBX 7 2 1 6
BITMAP
FE
FE
ENDCHAR
STARTCHAR registered
ENCODING 174
SWIDTH 1000 0
DWIDTH 26 0
BBX 19 19 4 0
BITMAP
03F800
0E0E00
180300
37F080
661CC0
460C40
C60C60
861C20
87F020
867020
863820
861820
C61C60
460C40
660CC0
360F80
180300
0E0E00
03F800
ENDCHAR
STARTCHAR macron
ENCODING 175
SWIDTH 500 0
DWIDTH 13 0
BBX 8 2 3 17
BITMAP
FF
FF
ENDCHAR
STARTCHAR degree
ENCODING 176
SWIDTH 500 0
DWIDTH 13 0
BBX 8 8 2 11
BITMAP
3C
7E
E7
C3
C3
E7
7E
3C
ENDCHAR
STARTCHAR plusminus
ENCODING 177
SWIDTH 837 0
DWIDTH 22 0
BBX 16 16 3 0
BITMAP
0180
0180
0180
0180
0180
FFFF
FFFF
0180
0180
0180
0180
0180
0000
0000
FFFF
FFFF
ENDCHAR
STARTCHAR twosuperior
ENCODING 178
SWIDTH 400 0
DWIDTH 10 0
BBX 8 11 1 8
BITMAP
7C
86
03
03
07
06
0C
1C
38
60
FF
ENDCHAR
STARTCHAR threesuperior
ENCODING 179
SWIDTH 400 0
DWIDTH 10 0
BBX 8 11 1 8
BITMAP
7C
87
03
07
3C
06
03
03
03
86
7C
ENDCHAR
STARTCHAR acute
ENCODING 180
SWIDTH 500 0
DWIDTH 13 0
BBX 6 5 5 16
BITMAP
1C
38
30
60
C0
ENDCHAR
STARTCHAR mu
ENCODING 181
SWIDTH 636 0
DWIDTH 17 0
BBX 14 19 2 -5
BITMAP
E070
E070
E070
E070
E070
E070
E070
E070
E070
E070
E070
F0F0
FFFC
EF3C
E000
E000
E000
E000
E000
ENDCHAR
STARTCHAR paragraph
ENCODING 182
SWIDTH 636 0
DWIDTH 17 0
BBX 12 22 2 -3
BITMAP
0FF0
3FF0
7F30
FF30
FF30
FF30
FF30
FF30
7F30
3F30
1F30
0330
0330
0330
0330
0330
0330
0330
0330
0330
0330
0330
ENDCHAR
STARTCHAR periodcentered
ENCODING 183
SWIDTH 317 0
DWIDTH 8 0
BBX 3 3 3 8
BITMAP
E0
E0
E0
ENDCHAR
STARTCHAR cedilla
ENCODING 184
SWIDTH 500 0
DWIDTH 13 0
BBX 5 5 4 -5
BITMAP
30
18
18
F8
F0
ENDCHAR
STARTCHAR onesuperior
ENCODING 185
SWIDTH 400 0
DWIDTH 10 0
BBX 8 11 2 8
BITMAP
38
D8
18
18
18
18
18
18
18
18
FF
ENDCHAR
STARTCHAR ordmasculine
ENCODING 186
SWIDTH 471 0
DWIDTH 12 0
BBX 10 12 1 7
BITMAP
1E00
6180
6180
C0C0
C0C0
C0C0
C0C0
E180
6180
3F00
0000
7F80
ENDCHAR
STARTCHAR guillemotright
ENCODING 187
SWIDTH 611 0
DWIDTH 16 0
BBX 12 12 2 1
BITMAP
8200
C300
E380
71C0
38E0
1C70
1C70
38E0
71C0
E380
C300
8200
ENDCHAR
STARTCHAR onequarter
ENCODING 188
SWIDTH 969 0
DWIDTH 25 0
BBX 23 19 2 0
BITMAP
380380
D80300
180600
180E00
180C00
181C00
181800
183000
187018
186038
FFE058
00C0D8
018098
038118
030318
0703FE
060018
0C0018
1C0018
ENDCHAR
STARTCHAR onehalf
ENCODING 189
SWIDTH 969 0
DWIDTH 25 0
BBX 22 19 2 0
BITMAP
380380
D80300
180600
180E00
180C00
181C00
181800
183000
1871F0
186218
FFE00C
00C00C
01801C
038018
030030
070070
0600E0
0C0180
1C03FC
ENDCHAR
STARTCHAR threequarters
ENCODING 190
SWIDTH 969 0
DWIDTH 25 0
BBX 24 19 1 0
BITMAP
7C01C0
870180
030300
070700
3C0600
060E00
030C00
031800
03380C
86301C
7C702C
00606C
00C04C
01C08C
01818C
0381FF
03000C
06000C
0E000C
ENDCHAR
STARTCHAR questiondown
ENCODING 191
SWIDTH 530 0
DWIDTH 14 0
BBX 10 19 2 0
BITMAP
0E00
0E00
0E00
0000
0000
0E00
0E00
0E00
0E00
1C00
1800
3000
6000
E000
E000
E040
F0C0
7F80
1F00
ENDCHAR
STARTCHAR Agrave
ENCODING 192
SWIDTH 684 0
DWIDTH 18 0
BBX 17 24 0 0
BITMAP
070000
038000
018000
000000
000000
01C000
01C000
03E000
03E000
07F000
077000
077000
0F3800
0E3800
0E3800
1C1C00
1C1C00
3FFE00
3FFE00
380E00
780F00
700700
700700
E00380
ENDCHAR
STARTCHAR Aacute
ENCODING 193
SWIDTH 684 0
DWIDTH 18 0
BBX 17 24 0 0
BITMAP
006000
00C000
018000
000000
000000
01C000
01C000
03E000
03E000
07F000
077000
077000
0F3800
0E3800
0E3800
1C1C00
1C1C00
3FFE00
3FFE00
380E00
780F00
700700
700700
E00380
ENDCHAR
STARTCHAR Acircumflex
ENCODING 194
SWIDTH 684 0
DWIDTH 18 0
BBX 17 24 0 0
BITMAP
01E000
033000
061800
000000
000000
01C000
01C000
03E000
03E000
07F000
077000
077000
0F3800
0E3800
0E3800
1C1C00
1C1C00
3FFE00
3FFE00
380E00
780F00
700700
700700
E00380
ENDCHAR
STARTCHAR Atilde
ENCODING 195
SWIDTH 684 0
DWIDTH 18 0
BBX 17 24 0 0
BITMAP
073000
0FF000
0CE000
000000
000000
01C000
01C000
03E000
03E000
07F000
077000
077000
0F3800
0E3800
0E3800
1C1C00
1C1C00
3FFE00
3FFE00
380E00
780F00
700700
700700
E00380
ENDCHAR
STARTCHAR Adieresis
ENCODING 196
SWIDTH 684 0
DWIDTH 18 0
BBX 17 24 0 0
BITMAP
073800
073800
073800
000000
000000
01C000
01C000
03E000
03E000
07F000
077000
077000
0F3800
0E3800
0E3800
1C1C00
1C1C00
3FFE00
3FFE00
380E00
780F00
700700
700700
E00380
ENDCHAR
STARTCHAR Aring
ENCODING 197
SWIDTH 684 0
DWIDTH 18 0
BBX 17 24 0 0
BITMAP
01C000
03E000
063000
063000
063000
03E000
01C000
03E000
03E000
03E000
077000
077000
0F7800
0E3800
0E3800
1E3C00
1C1C00
1FFC00
3FFE00
380E00
780F00
700700
700700
E00380
ENDCHAR
STARTCHAR AE
ENCODING 198
SWIDTH 974 0
DWIDTH 25 0
BBX 23 19 0 0
BITMAP
01FFFE
01FFFE
01DC00
03DC00
039C00
079C00
071C00
071C00
0E1FFC
0E1FFC
1E1C00
1C1C00
1FFC00
3FFC00
381C00
781C00
701C00
701FFE
E01FFE
ENDCHAR
STARTCHAR Ccedilla
ENCODING 199
SWIDTH 698 0
DWIDTH 18 0
BBX 15 24 1 -5
BITMAP
03F0
0FFC
3E0E
3806
7000
7000
E000
E000
E000
E000
E000
E000
E000
7000
7000
3806
3E0E
0FFC
03F0
0060
0030
0030
01F0
01E0
ENDCHAR
STARTCHAR Egrave
ENCODING 200
SWIDTH 631 0
DWIDTH 16 0
BBX 12 24 2 0
BITMAP
1C00
0E00
0600
0000
0000
FFF0
FFF0
E000
E000
E000
E000
E000
E000
FFE0
FFE0
E000
E000
E000
E000
E000
E000
E000
FFF0
FFF0
ENDCHAR
STARTCHAR Eacute
ENCODING 201
SWIDTH 631 0
DWIDTH 16 0
BBX 12 24 2 0
BITMAP
0180
0300
0600
0000
0000
FFF0
FFF0
E000
E000
E000
E000
E000
E000
FFE0
FFE0
E000
E000
E000
E000
E000
E000
E000
FFF0
FFF0
ENDCHAR
STARTCHAR Ecircumflex
ENCODING 202
SWIDTH 631 0
DWIDTH 16 0
BBX 12 24 2 0
BITMAP
0780
0CC0
1860
0000
0000
FFF0
FFF0
E000
E000
E000
E000
E000
E000
FFE0
FFE0
E000
E000
E000
E000
E000
E000
E000
FFF0
FFF0
ENDCHAR
STARTCHAR Edieresis
ENCODING 203
SWIDTH 631 0
DWIDTH 16 0
BBX 12 24 2 0
BITMAP
1CE0
1CE0
1CE0
0000
0000
FFF0
FFF0
E000
E000
E000
E000
E000
E000
FFE0
FFE0
E000
E000
E000
E000
E000
E000
E000
FFF0
FFF0
ENDCHAR
STARTCHAR Igrave
ENCODING 204
SWIDTH 294 0
DWIDTH 8 0
BBX 5 24 0 0
BITMAP
E0
70
30
00
00
38
38
38
38
38
38
38
38
38
38
38
38
38
38
38
38
38
38
38
ENDCHAR
STARTCHAR Iacute
ENCODING 205
SWIDTH 294 0
DWIDTH 8 0
BBX 4 24 2 0
BITMAP
30
60
C0
00
00
E0
E0
E0
E0
E0
E0
E0
E0
E0
E0
E0
E0
E0
E0
E0
E0
E0
E0
E0
ENDCHAR
STARTCHAR Icircumflex
ENCODING 206
SWIDTH 294 0
DWIDTH 8 0
BBX 8 24 0 0
BITMAP
3C
66
C3
00
00
38
38
38
38
38
38
38
38
38
38
38
38
38
38
38
38
38
38
38
ENDCHAR
STARTCHAR Idieresis
ENCODING 207
SWIDTH 294 0
DWIDTH 8 0
BBX 8 24 0 0
BITMAP
E7
E7
E7
00
00
38
38
38
38
38
38
38
38
38
38
38
38
38
38
38
38
38
38
38
ENDCHAR
STARTCHAR Eth
ENCODING 208
SWIDTH 774 0
DWIDTH 20 0
BBX 19 19 0 0
BITMAP
1FF800
1FFE00
1C0F80
1C03C0
1C01C0
1C01C0
1C00E0
1C00E0
FFC0E0
FFC0E0
1C00E0
1C00E0
1C00E0
1C01C0
1C01C0
1C0380
1C0F80
1FFE00
1FF800
ENDCHAR
STARTCHAR Ntilde
ENCODING 209
SWIDTH 748 0
DWIDTH 19 0
BBX 14 24 2 0
BITMAP
0E60
1FE0
19C0
0000
0000
F01C
F81C
F81C
FC1C
FC1C
FE1C
EE1C
EF1C
E71C
E79C
E39C
E3DC
E1DC
E1FC
E0FC
E0FC
E07C
E07C
E03C
ENDCHAR
STARTCHAR Ograve
ENCODING 210
SWIDTH 787 0
DWIDTH 20 0
BBX 18 24 1 0
BITMAP
038000
01C000
00C000
000000
000000
03F000
0FFC00
1E1E00
380700
700380
700380
E001C0
E001C0
E001C0
E001C0
E001C0
E001C0
E001C0
700380
700380
380700
1E1E00
0FFC00
03F000
ENDCHAR
STARTCHAR Oacute
ENCODING 211
SWIDTH 787 0
DWIDTH 20 0
BBX 18 24 1 0
BITMAP
003000
006000
00C000
000000
000000
03F000
0FFC00
1E1E00
380700
700380
700380
E001C0
E001C0
E001C0
E001C0
E001C0
E001C0
E001C0
700380
700380
380700
1E1E00
0FFC00
03F000
ENDCHAR
STARTCHAR Ocircumflex
ENCODING 212
SWIDTH 787 0
DWIDTH 20 0
BBX 18 24 1 0
BITMAP
00F000
019800
030C00
000000
000000
03F000
0FFC00
1E1E00
380700
700380
700380
E001C0
E001C0
E001C0
E001C0
E001C0
E001C0
E001C0
700380
700380
380700
1E1E00
0FFC00
03F000
ENDCHAR
STARTCHAR Otilde
ENCODING 213
SWIDTH 787 0
DWIDTH 20 0
BBX 18 24 1 0
BITMAP
039800
07F800
067000
000000
000000
03F000
0FFC00
1E1E00
380700
700380
700380
E001C0
E001C0
E001C0
E001C0
E001C0
E001C0
E001C0
700380
700380
380700
1E1E00
0FFC00
03F000
ENDCHAR
STARTCHAR Odieresis
ENCODING 214
SWIDTH 787 0
DWIDTH 20 0
BBX 18 24 1 0
BITMAP
039C00
039C00
039C00
000000
000000
03F000
0FFC00
1E1E00
380700
700380
700380
E001C0
E001C0
E001C0
E001C0
E001C0
E001C0
E001C0
700380
700380
380700
1E1E00
0FFC00
03F000
ENDCHAR
STARTCHAR multiply
ENCODING 215
SWIDTH 837 0
DWIDTH 22 0
BBX 15 15 4 1
BITMAP
4004
E00E
701C
3838
1C70
0EE0
07C0
0380
07C0
0EE0
1C70
3838
701C
E00E
4004
ENDCHAR
STARTCHAR Oslash
ENCODING 216
SWIDTH 787 0
DWIDTH 20 0
BBX 18 19 1 0
BITMAP
03F0C0
0FFD80
1E1F00
380700
700F80
701F80
E039C0
E031C0
E061C0
E0C1C0
E181C0
E301C0
E701C0
7E0380
7C0380
380700
3E1F00
6FFC00
C3F000
ENDCHAR
STARTCHAR Ugrave
ENCODING 217
SWIDTH 731 0
DWIDTH 19 0
BBX 14 24 3 0
BITMAP
1C00
0E00
0600
0000
0000
E01C
E01C
E01C
E01C
E01C
E01C
E01C
E01C
E01C
E01C
E01C
E01C
E01C
E01C
E01C
7038
7878
3FF0
0FC0
ENDCHAR
STARTCHAR Uacute
ENCODING 218
SWIDTH 731 0
DWIDTH 19 0
BBX 14 24 3 0
BITMAP
0180
0300
0600
0000
0000
E01C
E01C
E01C
E01C
E01C
E01C
E01C
E01C
E01C
E01C
E01C
E01C
E01C
E01C
E01C
7038
7878
3FF0
0FC0
ENDCHAR
STARTCHAR Ucircumflex
ENCODING 219
SWIDTH 731 0
DWIDTH 19 0
BBX 14 24 3 0
BITMAP
0780
0CC0
1860
0000
0000
E01C
E01C
E01C
E01C
E01C
E01C
E01C
E01C
E01C
E01C
E01C
E01C
E01C
E01C
E01C
7038
7878
3FF0
0FC0
ENDCHAR
STARTCHAR Udieresis
ENCODING 220
SWIDTH 731 0
DWIDTH 19 0
BBX 14 24 3 0
BITMAP
1CE0
1CE0
1CE0
0000
0000
E01C
E01C
E01C
E01C
E01C
E01C
E01C
E01C
E01C
E01C
E01C
E01C
E01C
E01C
E01C
7038
7878
3FF0
0FC0
ENDCHAR
STARTCHAR Yacute
ENCODING 221
SWIDTH 610 0
DWIDTH 16 0
BBX 17 24 0 0
BITMAP
00C000
018000
030000
000000
000000
F00780
780F00
380E00
3C1E00
1E3C00
0F7800
077000
07F000
03E000
01C000
01C000
01C000
01C000
01C000
01C000
01C000
01C000
01C000
01C000
ENDCHAR
STARTCHAR Thorn
ENCODING 222
SWIDTH 604 0
DWIDTH 16 0
BBX 12 19 2 0
BITMAP
E000
E000
E000
FF80
FFE0
E0E0
E070
E070
E070
E070
E070
E0E0
FFE0
FF80
E000
E000
E000
E000
E000
ENDCHAR
STARTCHAR germandbls
ENCODING 223
SWIDTH 629 0
DWIDTH 16 0
BBX 13 20 2 0
BITMAP
1F00
7FC0
71C0
E0E0
E0E0
E3E0
E780
E700
E700
E700
E300
E1C0
E0E0
E070
E038
E038
E038
E878
EFF0
E7C0
ENDCHAR
STARTCHAR agrave
ENCODING 224
SWIDTH 612 0
DWIDTH 16 0
BBX 12 21 1 0
BITMAP
3800
1C00
0C00
0600
0300
0000
0000
3F80
7FC0
40E0
0070
0070
1FF0
7FF0
F070
E070
E070
E0F0
F1F0
7F70
3E70
ENDCHAR
STARTCHAR aacute
ENCODING 225
SWIDTH 612 0
DWIDTH 16 0
BBX 12 21 1 0
BITMAP
00E0
01C0
0180
0300
0600
0000
0000
3F80
7FC0
40E0
0070
0070
1FF0
7FF0
F070
E070
E070
E0F0
F1F0
7F70
3E70
ENDCHAR
STARTCHAR acircumflex
ENCODING 226
SWIDTH 612 0
DWIDTH 16 0
BBX 12 21 1 0
BITMAP
0600
0F00
0900
1980
30C0
0000
0000
3F80
7FC0
40E0
0070
0070
1FF0
7FF0
F070
E070
E070
E0F0
F1F0
7F70
3E70
ENDCHAR
STARTCHAR atilde
ENCODING 227
SWIDTH 612 0
DWIDTH 16 0
BBX 12 20 1 0
BITMAP
1CC0
3CC0
33C0
3380
0000
0000
3F80
7FC0
40E0
0070
0070
1FF0
7FF0
F070
E070
E070
E0F0
F1F0
7F70
3E70
ENDCHAR
STARTCHAR adieresis
ENCODING 228
SWIDTH 612 0
DWIDTH 16 0
BBX 12 20 1 0
BITMAP
1CE0
1CE0
1CE0
0000
0000
0000
3F80
7FC0
40E0
0070
0070
1FF0
7FF0
F070
E070
E070
E0F0
F1F0
7F70
3E70
ENDCHAR
STARTCHAR aring
ENCODING 229
SWIDTH 612 0
DWIDTH 16 0
BBX 12 23 1 0
BITMAP
0700
0F80
18C0
18C0
18C0
0F80
0700
0000
0000
3F80
7FC0
40E0
0070
0070
1FF0
7FF0
F070
E070
E070
E0F0
F1F0
7F70
3E70
ENDCHAR
STARTCHAR ae
ENCODING 230
SWIDTH 981 0
DWIDTH 26 0
BBX 22 14 1 0
BITMAP
3F87E0
7FDFF0
40FC78
007838
00701C
1FF01C
7FFFFC
F07FFC
E07000
E07000
E0F800
F1DC08
7F9FF8
3F07F0
ENDCHAR
STARTCHAR ccedilla
ENCODING 231
SWIDTH 549 0
DWIDTH 14 0
BBX 11 19 1 -5
BITMAP
0FC0
3FE0
7820
7000
E000
E000
E000
E000
E000
E000
7000
7820
3FE0
0FC0
0180
00C0
00C0
07C0
0780
ENDCHAR
STARTCHAR egrave
ENCODING 232
SWIDTH 615 0
DWIDTH 16 0
BBX 13 21 1 0
BITMAP
1C00
0E00
0600
0300
0180
0000
0000
0FC0
3FE0
78F0
7070
E038
E038
FFF8
FFF8
E000
E000
7000
7810
3FF0
0FC0
ENDCHAR
STARTCHAR eacute
ENCODING 233
SWIDTH 615 0
DWIDTH 16 0
BBX 13 21 1 0
BITMAP
0070
00E0
00C0
0180
0300
0000
0000
0FC0
3FE0
78F0
7070
E038
E038
FFF8
FFF8
E000
E000
7000
7810
3FF0
0FC0
ENDCHAR
STARTCHAR ecircumflex
ENCODING 234
SWIDTH 615 0
DWIDTH 16 0
BBX 13 21 1 0
BITMAP
0300
0780
0480
0CC0
1860
0000
0000
0FC0
3FE0
78F0
7070
E038
E038
FFF8
FFF8
E000
E000
7000
7810
3FF0
0FC0
ENDCHAR
STARTCHAR edieresis
ENCODING 235
SWIDTH 615 0
DWIDTH 16 0
BBX 13 20 1 0
BITMAP
0E70
0E70
0E70
0000
0000
0000
0FC0
3FE0
78F0
7070
E038
E038
FFF8
FFF8
E000
E000
7000
7810
3FF0
0FC0
ENDCHAR
STARTCHAR igrave
ENCODING 236
SWIDTH 277 0
DWIDTH 7 0
BBX 6 21 -1 0
BITMAP
E0
70
30
18
0C
00
00
1C
1C
1C
1C
1C
1C
1C
1C
1C
1C
1C
1C
1C
1C
ENDCHAR
STARTCHAR iacute
ENCODING 237
SWIDTH 277 0
DWIDTH 7 0
BBX 6 21 2 0
BITMAP
1C
38
30
60
C0
00
00
E0
E0
E0
E0
E0
E0
E0
E0
E0
E0
E0
E0
E0
E0
ENDCHAR
STARTCHAR icircumflex
ENCODING 238
SWIDTH 277 0
DWIDTH 7 0
BBX 8 21 -1 0
BITMAP
18
3C
24
66
C3
00
00
1C
1C
1C
1C
1C
1C
1C
1C
1C
1C
1C
1C
1C
1C
ENDCHAR
STARTCHAR idieresis
ENCODING 239
SWIDTH 277 0
DWIDTH 7 0
BBX 8 20 0 0
BITMAP
E7
E7
E7
00
00
00
38
38
38
38
38
38
38
38
38
38
38
38
38
38
ENDCHAR
STARTCHAR eth
ENCODING 240
SWIDTH 611 0
DWIDTH 16 0
BBX 13 20 1 0
BITMAP
1C00
0EE0
0780
1F00
3380
01C0
0FE0
3FE0
7870
7070
E038
E038
E038
E038
E038
E038
7070
78F0
3FE0
0F80
ENDCHAR
STARTCHAR ntilde
ENCODING 241
SWIDTH 633 0
DWIDTH 16 0
BBX 12 20 2 0
BITMAP
1CC0
3CC0
33C0
3380
0000
0000
E7C0
EFE0
F8E0
F070
E070
E070
E070
E070
E070
E070
E070
E070
E070
E070
ENDCHAR
STARTCHAR ograve
ENCODING 242
SWIDTH 611 0
DWIDTH 16 0
BBX 13 21 1 0
BITMAP
3800
1C00
0C00
0600
0300
0000
0000
0F80
3FE0
78F0
7070
E038
E038
E038
E038
E038
E038
7070
78F0
3FE0
0F80
ENDCHAR
STARTCHAR oacute
ENCODING 243
SWIDTH 611 0
DWIDTH 16 0
BBX 13 21 1 0
BITMAP
00E0
01C0
0180
0300
0600
0000
0000
0F80
3FE0
78F0
7070
E038
E038
E038
E038
E038
E038
7070
78F0
3FE0
0F80
ENDCHAR
STARTCHAR ocircumflex
ENCODING 244
SWIDTH 611 0
DWIDTH 16 0
BBX 13 21 1 0
BITMAP
0600
0F00
0900
1980
30C0
0000
0000
0F80
3FE0
78F0
7070
E038
E038
E038
E038
E038
E038
7070
78F0
3FE0
0F80
ENDCHAR
STARTCHAR otilde
ENCODING 245
SWIDTH 611 0
DWIDTH 16 0
BBX 13 20 1 0
BITMAP
1CC0
3CC0
33C0
3380
0000
0000
0F80
3FE0
78F0
7070
E038
E038
E038
E038
E038
E038
7070
78F0
3FE0
0F80
ENDCHAR
STARTCHAR odieresis
ENCODING 246
SWIDTH 611 0
DWIDTH 16 0
BBX 13 20 1 0
BITMAP
1CE0
1CE0
1CE0
0000
0000
0000
0F80
3FE0
78F0
7070
E038
E038
E038
E038
E038
E038
7070
78F0
3FE0
0F80
ENDCHAR
STARTCHAR divide
ENCODING 247
SWIDTH 837 0
DWIDTH 22 0
BBX 17 12 3 2
BITMAP
01C000
01C000
01C000
000000
000000
FFFF80
FFFF80
000000
000000
01C000
01C000
01C000
ENDCHAR
STARTCHAR oslash
ENCODING 248
SWIDTH 611 0
DWIDTH 16 0
BBX 13 16 1 -1
BITMAP
0008
0F98
3FF0
78E0
70F0
E0B8
E1B8
E338
E638
EC38
E838
7870
38F0
7FE0
CF80
8000
ENDCHAR
STARTCHAR ugrave
ENCODING 249
SWIDTH 633 0
DWIDTH 16 0
BBX 12 21 2 0
BITMAP
3800
1C00
0C00
0600
0300
0000
0000
E070
E070
E070
E070
E070
E070
E070
E070
E070
E070
E0F0
71F0
7F70
3E70
ENDCHAR
STARTCHAR uacute
ENCODING 250
SWIDTH 633 0
DWIDTH 16 0
BBX 12 21 2 0
BITMAP
00E0
01C0
0180
0300
0600
0000
0000
E070
E070
E070
E070
E070
E070
E070
E070
E070
E070
E0F0
71F0
7F70
3E70
ENDCHAR
STARTCHAR ucircumflex
ENCODING 251
SWIDTH 633 0
DWIDTH 16 0
BBX 12 21 2 0
BITMAP
0600
0F00
0900
1980
30C0
0000
0000
E070
E070
E070
E070
E070
E070
E070
E070
E070
E070
E0F0
71F0
7F70
3E70
ENDCHAR
STARTCHAR udieresis
ENCODING 252
SWIDTH 633 0
DWIDTH 16 0
BBX 12 20 2 0
BITMAP
1CE0
1CE0
1CE0
0000
0000
0000
E070
E070
E070
E070
E070
E070
E070
E070
E070
E070
E0F0
71F0
7F70
3E70
ENDCHAR
STARTCHAR yacute
ENCODING 253
SWIDTH 591 0
DWIDTH 15 0
BBX 14 26 1 -5
BITMAP
00E0
01C0
0180
0300
0600
0000
0000
E01C
7038
7038
7870
3870
3CF0
1CE0
1DE0
1FC0
0FC0
0F80
0780
0780
0700
0F00
0E00
1E00
7C00
7800
ENDCHAR
STARTCHAR thorn
ENCODING 254
SWIDTH 634 0
DWIDTH 17 0
BBX 13 25 2 -5
BITMAP
E000
E000
E000
E000
E000
E000
E7C0
EFE0
F8F0
F070
E038
E038
E038
E038
E038
E038
F070
F8F0
EFE0
E7C0
E000
E000
E000
E000
E000
ENDCHAR
STARTCHAR ydieresis
ENCODING 255
SWIDTH 591 0
DWIDTH 15 0
BBX 14 25 1 -5
BITMAP
1CE0
1CE0
1CE0
0000
0000
0000
E01C
7038
7038
7870
3870
3CF0
1CE0
1DE0
1FC0
0FC0
0F80
0780
0780
0700
0F00
0E00
1E00
7C00
7800
ENDCHAR
STARTCHAR .notdef
ENCODING -1
SWIDTH 600 0
DWIDTH 16 0
BBX 13 23 1 -5
BITMAP
FFF8
8008
8008
8008
8008
8008
8008
8008
8008
8008
8008
8008
8008
8008
8008
8008
8008
8008
8008
8008
8008
8008
FFF8
ENDCHAR
STARTCHAR .null
ENCODING -1
SWIDTH 0 0
DWIDTH 0 0
BBX 1 1 0 0
BITMAP
00
ENDCHAR
STARTCHAR nonmarkingreturn
ENCODING -1
SWIDTH 317 0
DWIDTH 8 0
BBX 1 1 0 0
BITMAP
00
ENDCHAR
STARTCHAR dagger
ENCODING -1
SWIDTH 500 0
DWIDTH 13 0
BBX 12 22 0 -3
BITMAP
0600
0600
0600
0600
0600
FFF0
FFF0
0600
0600
0600
0600
0600
0600
0600
0600
0600
0600
0600
0600
0600
0600
0600
ENDCHAR
STARTCHAR bullet
ENCODING -1
SWIDTH 589 0
DWIDTH 15 0
BBX 8 8 4 5
BITMAP
3C
7E
FF
FF
FF
FF
7E
3C
ENDCHAR
STARTCHAR trademark
ENCODING -1
SWIDTH 1000 0
DWIDTH 26 0
BBX 17 7 3 12
BITMAP
FEE380
10E380
10B680
109C80
108880
108080
108080
ENDCHAR
STARTCHAR notequal
ENCODING -1
SWIDTH 837 0
DWIDTH 22 0
BBX 16 15 3 1
BITMAP
0008
000C
0018
0038
FFFF
FFFF
01C0
0180
0300
FFFF
FFFF
1C00
1800
3000
1000
ENDCHAR
STARTCHAR infinity
ENCODING -1
SWIDTH 833 0
DWIDTH 22 0
BBX 16 10 3 3
BITMAP
3C3C
7E7E
C2E3
81C1
8181
8181
8381
C763
7E7E
3C1C
ENDCHAR
STARTCHAR lessequal
ENCODING -1
SWIDTH 837 0
DWIDTH 22 0
BBX 16 15 3 0
BITMAP
0003
001F
01FC
1FE0
FE00
F000
FE00
1FE0
01FE
001F
0003
0000
0000
FFFF
FFFF
ENDCHAR
STARTCHAR greaterequal
ENCODING -1
SWIDTH 837 0
DWIDTH 22 0
BBX 16 15 3 0
BITMAP
C000
F800
7F80
07F8
007F
000F
007F
07F8
3F80
F800
C000
0000
0000
FFFF
FFFF
ENDCHAR
STARTCHAR partialdiff
ENCODING -1
SWIDTH 517 0
DWIDTH 13 0
BBX 11 17 1 0
BITMAP
0F00
1F80
3CC0
0040
0060
0060
0060
1E60
7160
60E0
C0E0
C0C0
C0C0
C0C0
C180
6300
3E00
ENDCHAR
STARTCHAR summation
ENCODING -1
SWIDTH 673 0
DWIDTH 18 0
BBX 17 24 0 -5
BITMAP
FFFF80
FFFF80
780000
3C0000
1E0000
1E0000
0F0000
078000
03C000
01E000
00F000
007800
007000
00E000
01C000
03C000
078000
0F0000
1E0000
3C0000
780000
F00000
FFFF80
FFFF80
ENDCHAR
STARTCHAR product
ENCODING -1
SWIDTH 756 0
DWIDTH 20 0
BBX 16 24 2 -5
BITMAP
FFFF
FFFF
E007
E007
E007
E007
E007
E007
E007
E007
E007
E007
E007
E007
E007
E007
E007
E007
E007
E007
E007
E007
E007
E007
ENDCHAR
STARTCHAR pi
ENCODING -1
SWIDTH 588 0
DWIDTH 15 0
BBX 16 14 0 0
BITMAP
3FFF
7FFF
CE18
CE18
0E18
0C18
1C18
1C38
1C30
1830
3830
3830
383C
301C
ENDCHAR
STARTCHAR integral
ENCODING -1
SWIDTH 520 0
DWIDTH 14 0
BBX 13 24 1 -4
BITMAP
00F0
01B8
01B8
0300
0300
0300
0700
0700
0700
0700
0700
0700
0700
0700
0700
0700
0700
0700
0600
0600
0600
EC00
EC00
7000
ENDCHAR
STARTCHAR Omega
ENCODING -1
SWIDTH 764 0
DWIDTH 20 0
BBX 17 19 1 0
BITMAP
07F000
0FF800
3C1E00
380E00
700700
700700
E00380
E00380
E00380
E00380
E00380
E00380
700700
700700
380E00
380E00
1C1C00
FE3F80
FE3F80
ENDCHAR
STARTCHAR radical
ENCODING -1
SWIDTH 637 0
DWIDTH 17 0
BBX 16 22 1 -1
BITMAP
0007
0004
0004
000C
0008
0018
0018
0010
0030
7020
B020
3860
1840
18C0
1CC0
0C80
0F80
0F80
0700
0700
0200
0200
ENDCHAR
STARTCHAR florin
ENCODING -1
SWIDTH 636 0
DWIDTH 17 0
BBX 16 25 0 -5
BITMAP
001E
003F
0071
0070
0060
00F0
00E0
00E0
00E0
0FFC
0FFC
01C0
01C0
01C0
0180
0380
0380
0380
0380
0780
0700
0700
8F00
FE00
7800
ENDCHAR
STARTCHAR approxequal
ENCODING -1
SWIDTH 837 0
DWIDTH 22 0
BBX 16 9 3 4
BITMAP
3E01
7F83
C1FE
807C
0000
3E01
7F83
C1FE
807C
ENDCHAR
STARTCHAR Delta
ENCODING -1
SWIDTH 668 0
DWIDTH 17 0
BBX 18 19 0 0
BITMAP
01E000
01E000
01E000
03F000
033000
073800
073800
061800
0E1C00
0C0C00
1C0E00
1C0E00
180600
380700
300700
700380
700380
7FFF80
FFFFC0
ENDCHAR
STARTCHAR ellipsis
ENCODING -1
SWIDTH 1000 0
DWIDTH 26 0
BBX 21 3 3 0
BITMAP
E07038
E07038
E07038
ENDCHAR
STARTCHAR OE
ENCODING -1
SWIDTH 1069 0
DWIDTH 28 0
BBX 25 19 1 0
BITMAP
01FFFF80
0FFFFF80
1F070000
3C070000
70070000
70070000
E0070000
E0070000
E007FF00
E007FF00
E0070000
E0070000
E0070000
70070000
70070000
3C070000
1F070000
0FFFFF80
01FFFF80
ENDCHAR
STARTCHAR oe
ENCODING -1
SWIDTH 1022 0
DWIDTH 27 0
BBX 23 14 1 0
BITMAP
0F83F0
3FC7F8
78EE3C
707C1C
E0380E
E0380E
E03FFE
E03FFE
E03800
E03800
707C00
78EE04
3FC7FC
0F83F8
ENDCHAR
STARTCHAR endash
ENCODING -1
SWIDTH 500 0
DWIDTH 13 0
BBX 13 2 0 6
BITMAP
FFF8
FFF8
ENDCHAR
STARTCHAR emdash
ENCODING -1
SWIDTH 1000 0
DWIDTH 26 0
BBX 26 2 0 6
BITMAP
FFFFFFC0
FFFFFFC0
ENDCHAR
STARTCHAR quotedblleft
ENCODING -1
SWIDTH 518 0
DWIDTH 13 0
BBX 10 6 2 13
BITMAP
30C0
71C0
6180
E380
E380
E380
ENDCHAR
STARTCHAR quotedblright
ENCODING -1
SWIDTH 518 0
DWIDTH 13 0
BBX 10 6 2 13
BITMAP
71C0
71C0
71C0
6180
E380
C300
ENDCHAR
STARTCHAR quoteleft
ENCODING -1
SWIDTH 317 0
DWIDTH 8 0
BBX 4 6 2 13
BITMAP
30
70
60
E0
E0
E0
ENDCHAR
STARTCHAR quoteright
ENCODING -1
SWIDTH 317 0
DWIDTH 8 0
BBX 4 6 2 13
BITMAP
70
70
70
60
E0
C0
ENDCHAR
STARTCHAR lozenge
ENCODING -1
SWIDTH 494 0
DWIDTH 13 0
BBX 13 27 0 -6
BITMAP
0200
0200
0700
0500
0D80
0880
18C0
1040
3060
2020
6030
4010
C018
C018
C018
4010
6030
2020
3060
1040
18C0
0880
0D80
0500
0700
0200
0200
ENDCHAR
STARTCHAR Ydieresis
ENCODING -1
SWIDTH 610 0
DWIDTH 16 0
BBX 17 24 0 0
BITMAP
0E7000
0E7000
0E7000
000000
000000
F00780
780F00
380E00
3C1E00
1E3C00
0F7800
077000
07F000
03E000
01C000
01C000
01C000
01C000
01C000
01C000
01C000
01C000
01C000
01C000
ENDCHAR
STARTCHAR fraction
ENCODING -1
SWIDTH 166 0
DWIDTH 4 0
BBX 14 19 -5 0
BITMAP
001C
0018
0030
0070
0060
00E0
00C0
0180
0380
0300
0700
0600
0C00
1C00
1800
3800
3000
6000
E000
ENDCHAR
STARTCHAR guilsinglleft
ENCODING -1
SWIDTH 399 0
DWIDTH 10 0
BBX 6 12 2 1
BITMAP
04
0C
1C
38
70
E0
E0
70
38
1C
0C
04
ENDCHAR
STARTCHAR guilsinglright
ENCODING -1
SWIDTH 399 0
DWIDTH 10 0
BBX 6 12 2 1
BITMAP
80
C0
E0
70
38
1C
1C
38
70
E0
C0
80
ENDCHAR
STARTCHAR fi
ENCODING -1
SWIDTH 629 0
DWIDTH 16 0
BBX 13 20 1 0
BITMAP
0FB8
1FB8
3C38
3800
3800
3800
FFF8
FFF8
3838
3838
3838
3838
3838
3838
3838
3838
3838
3838
3838
3838
ENDCHAR
STARTCHAR fl
ENCODING -1
SWIDTH 629 0
DWIDTH 16 0
BBX 13 20 1 0
BITMAP
0FF8
1FF8
3C38
3838
3838
3838
FFB8
FFB8
3838
3838
3838
3838
3838
3838
3838
3838
3838
3838
3838
3838
ENDCHAR
STARTCHAR daggerdbl
ENCODING -1
SWIDTH 500 0
DWIDTH 13 0
BBX 12 22 0 -3
BITMAP
0600
0600
0600
0600
0600
FFF0
FFF0
0600
0600
0600
0600
0600
0600
0600
0600
FFF0
FFF0
0600
0600
0600
0600
0600
ENDCHAR
STARTCHAR quotesinglbase
ENCODING -1
SWIDTH 317 0
DWIDTH 8 0
BBX 4 6 2 -3
BITMAP
70
70
70
60
E0
C0
ENDCHAR
STARTCHAR quotedblbase
ENCODING -1
SWIDTH 518 0
DWIDTH 13 0
BBX 10 6 2 -3
BITMAP
71C0
71C0
71C0
6180
E380
C300
ENDCHAR
STARTCHAR perthousand
ENCODING -1
SWIDTH 1341 0
DWIDTH 35 0
BBX 32 19 1 0
BITMAP
3E01C000
7F018000
E3830000
C1870000
C1860000
C18E0000
C18C0000
E3980000
7F380000
3E31F07C
0073F8FE
00671DC7
00C60D83
01C60D83
01860D83
03860D83
03071DC7
0603F8FE
0E01F07C
ENDCHAR
STARTCHAR dotlessi
ENCODING -1
SWIDTH 277 0
DWIDTH 7 0
BBX 3 14 2 0
BITMAP
E0
E0
E0
E0
E0
E0
E0
E0
E0
E0
E0
E0
E0
E0
ENDCHAR
STARTCHAR circumflex
ENCODING -1
SWIDTH 500 0
DWIDTH 13 0
BBX 8 5 2 16
BITMAP
18
3C
24
66
C3
ENDCHAR
STARTCHAR tilde
ENCODING -1
SWIDTH 500 0
DWIDTH 13 0
BBX 8 4 2 16
BITMAP
73
F3
CF
CE
ENDCHAR
STARTCHAR breve
ENCODING -1
SWIDTH 500 0
DWIDTH 13 0
BBX 8 4 3 17
BITMAP
C3
E7
7E
3C
ENDCHAR
STARTCHAR dotaccent
ENCODING -1
SWIDTH 500 0
DWIDTH 13 0
BBX 3 3 5 17
BITMAP
E0
E0
E0
ENDCHAR
STARTCHAR ring
ENCODING -1
SWIDTH 500 0
DWIDTH 13 0
BBX 7 7 3 16
BITMAP
38
7C
C6
C6
C6
7C
38
ENDCHAR
STARTCHAR hungarumlaut
ENCODING -1
SWIDTH 500 0
DWIDTH 13 0
BBX 9 5 3 16
BITMAP
3980
3300
6600
6600
CC00
ENDCHAR
STARTCHAR ogonek
ENCODING -1
SWIDTH 500 0
DWIDTH 13 0
BBX 5 5 4 -5
BITMAP
60
C0
C0
F8
78
ENDCHAR
STARTCHAR caron
ENCODING -1
SWIDTH 500 0
DWIDTH 13 0
BBX 8 5 2 16
BITMAP
C3
66
24
3C
18
ENDCHAR
STARTCHAR Lslash
ENCODING -1
SWIDTH 562 0
DWIDTH 15 0
BBX 15 19 0 0
BITMAP
1C00
1C00
1C00
1C00
1C00
1C40
1CE0
1DC0
1F00
1E00
3C00
FC00
DC00
1C00
1C00
1C00
1C00
1FFE
1FFE
ENDCHAR
STARTCHAR lslash
ENCODING -1
SWIDTH 284 0
DWIDTH 7 0
BBX 9 20 0 0
BITMAP
1C00
1C00
1C00
1C00
1C00
1C00
1C00
1F80
1F00
1C00
7C00
FC00
1C00
1C00
1C00
1C00
1C00
1C00
1C00
1C00
ENDCHAR
STARTCHAR Scaron
ENCODING -1
SWIDTH 634 0
DWIDTH 17 0
BBX 13 24 2 0
BITMAP
1860
0CC0
0780
0000
0000
1FC0
3FF0
7870
E010
E000
E000
F000
FE00
7FC0
1FF0
03F0
0078
0038
0038
0038
8038
E0F0
FFE0
3F80
ENDCHAR
STARTCHAR scaron
ENCODING -1
SWIDTH 520 0
DWIDTH 14 0
BBX 11 21 1 0
BITMAP
6180
3300
1200
1E00
0C00
0000
0000
3F80
7FC0
F040
E000
E000
FC00
7F80
1FC0
01E0
00E0
00E0
81E0
FFC0
3F00
ENDCHAR
STARTCHAR Zcaron
ENCODING -1
SWIDTH 685 0
DWIDTH 18 0
BBX 15 24 1 0
BITMAP
0C30
0660
03C0
0000
0000
FFFE
FFFE
001E
003C
0078
0070
00F0
01E0
03C0
0380
0780
0F00
1E00
1C00
3C00
7800
F000
FFFE
FFFE
ENDCHAR
STARTCHAR zcaron
ENCODING -1
SWIDTH 524 0
DWIDTH 14 0
BBX 11 21 1 0
BITMAP
6180
3300
1200
1E00
0C00
0000
0000
FFE0
FFE0
01E0
03C0
0380
0780
0F00
1E00
1C00
3C00
7800
F000
FFE0
FFE0
ENDCHAR
STARTCHAR minus
ENCODING -1
SWIDTH 837 0
DWIDTH 22 0
BBX 16 2 3 7
BITMAP
FFFF
FFFF
ENDCHAR
STARTCHAR Gbreve
ENCODING -1
SWIDTH 774 0
DWIDTH 20 0
BBX 17 24 1 0
BITMAP
030C00
03FC00
00F000
000000
000000
03F800
0FFE00
1E0F00
380300
700100
700000
E00000
E00000
E00000
E03F80
E03F80
E00380
E00380
700380
700380
380380
1E0780
0FFF00
03FC00
ENDCHAR
STARTCHAR gbreve
ENCODING -1
SWIDTH 634 0
DWIDTH 17 0
BBX 13 26 1 -5
BITMAP
0C30
0E70
07E0
03C0
0000
0000
0000
1F38
3FB8
78F8
7078
E038
E038
E038
E038
E038
E038
7078
78F8
3FB8
1F38
0038
0070
20F0
3FE0
1FC0
ENDCHAR
STARTCHAR Idotaccent
ENCODING -1
SWIDTH 294 0
DWIDTH 8 0
BBX 3 24 2 0
BITMAP
E0
E0
E0
00
00
E0
E0
E0
E0
E0
E0
E0
E0
E0
E0
E0
E0
E0
E0
E0
E0
E0
E0
E0
ENDCHAR
STARTCHAR Scedilla
ENCODING -1
SWIDTH 634 0
DWIDTH 17 0
BBX 13 24 2 -5
BITMAP
1FC0
3FF0
7870
E010
E000
E000
F000
FE00
7FC0
1FF0
03F0
0078
0038
0038
0038
8038
E0F0
FFE0
3F80
0300
0180
0180
0F80
0F00
ENDCHAR
STARTCHAR scedilla
ENCODING -1
SWIDTH 520 0
DWIDTH 14 0
BBX 11 19 1 -5
BITMAP
3F80
7FC0
F040
E000
E000
FC00
7F80
1FC0
01E0
00E0
00E0
81E0
FFC0
3F00
0600
0300
0300
1F00
1E00
ENDCHAR
STARTCHAR Cacute
ENCODING -1
SWIDTH 698 0
DWIDTH 18 0
BBX 15 24 1 0
BITMAP
0030
0060
00C0
0000
0000
03F0
0FFC
3E0E
3806
7000
7000
E000
E000
E000
E000
E000
E000
E000
7000
7000
3806
3E0E
0FFC
03F0
ENDCHAR
STARTCHAR cacute
ENCODING -1
SWIDTH 549 0
DWIDTH 14 0
BBX 12 21 1 0
BITMAP
0070
00E0
00C0
0180
0300
0000
0000
0FC0
3FE0
7820
7000
E000
E000
E000
E000
E000
E000
7000
7820
3FE0
0FC0
ENDCHAR
STARTCHAR Ccaron
ENCODING -1
SWIDTH 698 0
DWIDTH 18 0
BBX 15 24 1 0
BITMAP
030C
0198
00F0
0000
0000
03F0
0FFC
3E0E
3806
7000
7000
E000
E000
E000
E000
E000
E000
E000
7000
7000
3806
3E0E
0FFC
03F0
ENDCHAR
STARTCHAR ccaron
ENCODING -1
SWIDTH 549 0
DWIDTH 14 0
BBX 11 21 1 0
BITMAP
1860
0CC0
0480
0780
0300
0000
0000
0FC0
3FE0
7820
7000
E000
E000
E000
E000
E000
E000
7000
7820
3FE0
0FC0
ENDCHAR
STARTCHAR dcroat
ENCODING -1
SWIDTH 634 0
DWIDTH 17 0
BBX 15 20 1 0
BITMAP
0038
0038
0038
03FE
03FE
0038
1F38
3FB8
78F8
7078
E038
E038
E038
E038
E038
E038
7078
78F8
3FB8
1F38
ENDCHAR
STARTCHAR periodcentered
ENCODING -1
SWIDTH 317 0
DWIDTH 8 0
BBX 3 3 3 8
BITMAP
E0
E0
E0
ENDCHAR
STARTCHAR Euro
ENCODING -1
SWIDTH 636 0
DWIDTH 17 0
BBX 14 19 0 0
BITMAP
01F0
07F8
0F0C
1C04
1C00
3800
FFF8
FFF0
3800
3800
3800
FFE0
FFC0
3800
1C00
1C04
0F0C
07F8
01F0
ENDCHAR
STARTCHAR c6459
ENCODING -1
SWIDTH 500 0
DWIDTH 13 0
BBX 8 3 3 16
BITMAP
E7
E7
E7
ENDCHAR
STARTCHAR c6460
ENCODING -1
SWIDTH 500 0
DWIDTH 13 0
BBX 4 3 5 16
BITMAP
30
60
C0
ENDCHAR
STARTCHAR c6461
ENCODING -1
SWIDTH 500 0
DWIDTH 13 0
BBX 8 3 2 16
BITMAP
73
FF
CE
ENDCHAR
STARTCHAR c6462
ENCODING -1
SWIDTH 500 0
DWIDTH 13 0
BBX 4 3 3 16
BITMAP
E0
70
30
ENDCHAR
STARTCHAR c6463
ENCODING -1
SWIDTH 500 0
DWIDTH 13 0
BBX 8 3 3 16
BITMAP
3C
66
C3
ENDCHAR
STARTCHAR c6466
ENCODING -1
SWIDTH 500 0
DWIDTH 13 0
BBX 8 3 3 16
BITMAP
C3
66
3C
ENDCHAR
STARTCHAR c6467
ENCODING -1
SWIDTH 400 0
DWIDTH 10 0
BBX 9 11 1 8
BITMAP
0600
0E00
1600
3600
2600
4600
C600
FF80
0600
0600
0600
ENDCHAR
STARTCHAR c6468
ENCODING -1
SWIDTH 500 0
DWIDTH 13 0
BBX 8 3 3 16
BITMAP
C3
FF
3C
ENDCHAR
STARTCHAR c6469
ENCODING -1
SWIDTH 500 0
DWIDTH 13 0
BBX 3 3 5 16
BITMAP
E0
E0
E0
ENDCHAR
ENDFONT
