STARTFONT 2.1
FONT -FontForge-Bitstream Vera Sans Mono-Book-R-Normal-SansMono--14-100-100-100-P-79-ISO8859-1
SIZE 10 100 100
FONTBOUNDINGBOX 9 17 0 -3
COMMENT "Generated by fontforge, http://fontforge.sourceforge.net"
COMMENT "Copyright (c) 2003 by Bitstream, Inc. All Rights Reserved."
STARTPROPERTIES 40
FOUNDRY "FontForge"
FAMILY_NAME "Bitstream Vera Sans Mono"
WEIGHT_NAME "Book"
SLANT "R"
SETWIDTH_NAME "Normal"
ADD_STYLE_NAME "SansMono"
PIXEL_SIZE 14
POINT_SIZE 100
RESOLUTION_X 100
RESOLUTION_Y 100
SPACING "P"
AVERAGE_WIDTH 79
CHARSET_REGISTRY "ISO8859"
CHARSET_ENCODING "1"
FONTNAME_REGISTRY ""
CHARSET_COLLECTIONS "ISO8859-9 ISOLatin1Encoding"
FONT_NAME "BitstreamVeraSansMono-Roman"
FACE_NAME "Bitstream Vera Sans Mono"
COPYRIGHT "Copyright (c) 2003 by Bitstream, Inc. All Rights Reserved."
FONT_VERSION "Release 1.10"
FONT_ASCENT 11
FONT_DESCENT 3
UNDERLINE_POSITION -2
UNDERLINE_THICKNESS 1
X_HEIGHT 7
CAP_HEIGHT 9
RAW_ASCENT 759
RAW_DESCENT 240
NORM_SPACE 8
RELATIVE_WEIGHT 40
RELATIVE_SETWIDTH 50
SUPERSCRIPT_X 0
SUPERSCRIPT_Y 4
SUPERSCRIPT_SIZE 8
SUBSCRIPT_X 0
SUBSCRIPT_Y -3
SUBSCRIPT_SIZE 8
FIGURE_WIDTH 8
AVG_LOWERCASE_WIDTH 80
AVG_UPPERCASE_WIDTH 80
ENDPROPERTIES
CHARS 269
STARTCHAR space
ENCODING 32
SWIDTH 602 0
DWIDTH 8 0
BBX 1 1 0 0
BITMAP
00
ENDCHAR
STARTCHAR exclam
ENCODING 33
SWIDTH 602 0
DWIDTH 8 0
BBX 1 10 4 0
BITMAP
80
80
80
80
80
80
00
00
80
80
ENDCHAR
STARTCHAR quotedbl
ENCODING 34
SWIDTH 602 0
DWIDTH 8 0
BBX 3 4 3 6
BITMAP
A0
A0
A0
A0
ENDCHAR
STARTCHAR numbersign
ENCODING 35
SWIDTH 602 0
DWIDTH 8 0
BBX 8 10 0 0
BITMAP
12
12
16
7F
24
24
FE
28
48
48
ENDCHAR
STARTCHAR dollar
ENCODING 36
SWIDTH 602 0
DWIDTH 8 0
BBX 7 13 1 -2
BITMAP
10
10
7C
92
90
D0
7C
16
12
92
7C
10
10
ENDCHAR
STARTCHAR percent
ENCODING 37
SWIDTH 602 0
DWIDTH 8 0
BBX 8 10 0 0
BITMAP
60
90
90
62
0C
30
46
09
09
06
ENDCHAR
STARTCHAR ampersand
ENCODING 38
SWIDTH 602 0
DWIDTH 8 0
BBX 7 10 1 0
BITMAP
38
40
40
60
60
92
8A
8A
C4
7A
ENDCHAR
STARTCHAR quotesingle
ENCODING 39
SWIDTH 602 0
DWIDTH 8 0
BBX 1 4 4 6
BITMAP
80
80
80
80
ENDCHAR
STARTCHAR parenleft
ENCODING 40
SWIDTH 602 0
DWIDTH 8 0
BBX 3 12 3 -1
BITMAP
60
40
40
80
80
80
80
80
80
40
40
20
ENDCHAR
STARTCHAR parenright
ENCODING 41
SWIDTH 602 0
DWIDTH 8 0
BBX 3 12 2 -1
BITMAP
C0
40
40
20
20
20
20
20
20
40
40
C0
ENDCHAR
STARTCHAR asterisk
ENCODING 42
SWIDTH 602 0
DWIDTH 8 0
BBX 7 6 1 4
BITMAP
10
92
7C
38
D6
10
ENDCHAR
STARTCHAR plus
ENCODING 43
SWIDTH 602 0
DWIDTH 8 0
BBX 7 7 1 1
BITMAP
10
10
10
FE
10
10
10
ENDCHAR
STARTCHAR comma
ENCODING 44
SWIDTH 602 0
DWIDTH 8 0
BBX 3 4 2 -2
BITMAP
60
60
40
80
ENDCHAR
STARTCHAR hyphen
ENCODING 45
SWIDTH 602 0
DWIDTH 8 0
BBX 4 1 2 3
BITMAP
F0
ENDCHAR
STARTCHAR period
ENCODING 46
SWIDTH 602 0
DWIDTH 8 0
BBX 2 2 3 0
BITMAP
C0
C0
ENDCHAR
STARTCHAR slash
ENCODING 47
SWIDTH 602 0
DWIDTH 8 0
BBX 6 12 1 -2
BITMAP
04
08
08
08
10
10
20
20
40
40
40
80
ENDCHAR
STARTCHAR zero
ENCODING 48
SWIDTH 602 0
DWIDTH 8 0
BBX 7 10 1 0
BITMAP
38
44
82
82
92
82
82
82
44
38
ENDCHAR
STARTCHAR one
ENCODING 49
SWIDTH 602 0
DWIDTH 8 0
BBX 5 10 2 0
BITMAP
60
A0
20
20
20
20
20
20
20
F8
ENDCHAR
STARTCHAR two
ENCODING 50
SWIDTH 602 0
DWIDTH 8 0
BBX 7 10 1 0
BITMAP
7C
86
02
02
04
0C
18
20
40
FE
ENDCHAR
STARTCHAR three
ENCODING 51
SWIDTH 602 0
DWIDTH 8 0
BBX 7 10 1 0
BITMAP
7C
82
02
06
38
06
02
02
86
7C
ENDCHAR
STARTCHAR four
ENCODING 52
SWIDTH 602 0
DWIDTH 8 0
BBX 7 10 1 0
BITMAP
0C
14
34
24
44
84
FE
04
04
04
ENDCHAR
STARTCHAR five
ENCODING 53
SWIDTH 602 0
DWIDTH 8 0
BBX 7 10 1 0
BITMAP
FC
80
80
F8
84
02
02
02
84
78
ENDCHAR
STARTCHAR six
ENCODING 54
SWIDTH 602 0
DWIDTH 8 0
BBX 7 10 1 0
BITMAP
3C
62
C0
80
BC
C6
82
82
46
3C
ENDCHAR
STARTCHAR seven
ENCODING 55
SWIDTH 602 0
DWIDTH 8 0
BBX 7 10 1 0
BITMAP
FE
06
04
08
08
10
10
20
20
40
ENDCHAR
STARTCHAR eight
ENCODING 56
SWIDTH 602 0
DWIDTH 8 0
BBX 7 10 1 0
BITMAP
7C
82
82
82
7C
C6
82
82
C6
7C
ENDCHAR
STARTCHAR nine
ENCODING 57
SWIDTH 602 0
DWIDTH 8 0
BBX 7 10 1 0
BITMAP
78
C4
82
82
C6
7A
02
06
8C
78
ENDCHAR
STARTCHAR colon
ENCODING 58
SWIDTH 602 0
DWIDTH 8 0
BBX 2 7 3 0
BITMAP
C0
C0
00
00
00
C0
C0
ENDCHAR
STARTCHAR semicolon
ENCODING 59
SWIDTH 602 0
DWIDTH 8 0
BBX 3 9 2 -2
BITMAP
60
60
00
00
00
60
60
40
80
ENDCHAR
STARTCHAR less
ENCODING 60
SWIDTH 602 0
DWIDTH 8 0
BBX 7 7 1 1
BITMAP
02
1C
70
80
70
1C
02
ENDCHAR
STARTCHAR equal
ENCODING 61
SWIDTH 602 0
DWIDTH 8 0
BBX 7 4 1 3
BITMAP
FE
00
00
FE
ENDCHAR
STARTCHAR greater
ENCODING 62
SWIDTH 602 0
DWIDTH 8 0
BBX 7 7 1 1
BITMAP
80
70
1C
02
1C
70
80
ENDCHAR
STARTCHAR question
ENCODING 63
SWIDTH 602 0
DWIDTH 8 0
BBX 5 10 1 0
BITMAP
70
88
08
18
30
20
20
00
20
20
ENDCHAR
STARTCHAR at
ENCODING 64
SWIDTH 602 0
DWIDTH 8 0
BBX 7 12 1 -2
BITMAP
3C
66
42
8E
92
92
92
92
8E
40
60
1C
ENDCHAR
STARTCHAR A
ENCODING 65
SWIDTH 602 0
DWIDTH 8 0
BBX 7 10 1 0
BITMAP
10
28
28
28
28
44
7C
44
82
82
ENDCHAR
STARTCHAR B
ENCODING 66
SWIDTH 602 0
DWIDTH 8 0
BBX 7 10 1 0
BITMAP
FC
82
82
82
FC
86
82
82
86
FC
ENDCHAR
STARTCHAR C
ENCODING 67
SWIDTH 602 0
DWIDTH 8 0
BBX 7 10 1 0
BITMAP
3C
42
80
80
80
80
80
80
42
3C
ENDCHAR
STARTCHAR D
ENCODING 68
SWIDTH 602 0
DWIDTH 8 0
BBX 7 10 1 0
BITMAP
F8
84
82
82
82
82
82
82
84
F8
ENDCHAR
STARTCHAR E
ENCODING 69
SWIDTH 602 0
DWIDTH 8 0
BBX 7 10 1 0
BITMAP
FE
80
80
80
FE
80
80
80
80
FE
ENDCHAR
STARTCHAR F
ENCODING 70
SWIDTH 602 0
DWIDTH 8 0
BBX 7 10 1 0
BITMAP
FE
80
80
80
FE
80
80
80
80
80
ENDCHAR
STARTCHAR G
ENCODING 71
SWIDTH 602 0
DWIDTH 8 0
BBX 7 10 1 0
BITMAP
3C
42
80
80
80
86
82
82
42
3C
ENDCHAR
STARTCHAR H
ENCODING 72
SWIDTH 602 0
DWIDTH 8 0
BBX 7 10 1 0
BITMAP
82
82
82
82
FE
82
82
82
82
82
ENDCHAR
STARTCHAR I
ENCODING 73
SWIDTH 602 0
DWIDTH 8 0
BBX 5 10 2 0
BITMAP
F8
20
20
20
20
20
20
20
20
F8
ENDCHAR
STARTCHAR J
ENCODING 74
SWIDTH 602 0
DWIDTH 8 0
BBX 6 10 1 0
BITMAP
3C
04
04
04
04
04
04
04
8C
78
ENDCHAR
STARTCHAR K
ENCODING 75
SWIDTH 602 0
DWIDTH 8 0
BBX 7 10 1 0
BITMAP
84
88
90
A0
E0
90
98
88
84
82
ENDCHAR
STARTCHAR L
ENCODING 76
SWIDTH 602 0
DWIDTH 8 0
BBX 7 10 1 0
BITMAP
80
80
80
80
80
80
80
80
80
FE
ENDCHAR
STARTCHAR M
ENCODING 77
SWIDTH 602 0
DWIDTH 8 0
BBX 7 10 1 0
BITMAP
C6
C6
AA
AA
AA
92
82
82
82
82
ENDCHAR
STARTCHAR N
ENCODING 78
SWIDTH 602 0
DWIDTH 8 0
BBX 7 10 1 0
BITMAP
C2
C2
A2
A2
92
92
8A
8A
86
86
ENDCHAR
STARTCHAR O
ENCODING 79
SWIDTH 602 0
DWIDTH 8 0
BBX 7 10 1 0
BITMAP
38
44
82
82
82
82
82
82
44
38
ENDCHAR
STARTCHAR P
ENCODING 80
SWIDTH 602 0
DWIDTH 8 0
BBX 7 10 1 0
BITMAP
FC
86
82
82
86
FC
80
80
80
80
ENDCHAR
STARTCHAR Q
ENCODING 81
SWIDTH 602 0
DWIDTH 8 0
BBX 7 12 1 -2
BITMAP
38
44
82
82
82
82
82
82
44
3C
0C
04
ENDCHAR
STARTCHAR R
ENCODING 82
SWIDTH 602 0
DWIDTH 8 0
BBX 8 10 1 0
BITMAP
FC
86
82
82
86
F8
84
82
82
81
ENDCHAR
STARTCHAR S
ENCODING 83
SWIDTH 602 0
DWIDTH 8 0
BBX 7 10 1 0
BITMAP
3C
C2
80
80
60
1C
02
02
86
7C
ENDCHAR
STARTCHAR T
ENCODING 84
SWIDTH 602 0
DWIDTH 8 0
BBX 7 10 1 0
BITMAP
FE
10
10
10
10
10
10
10
10
10
ENDCHAR
STARTCHAR U
ENCODING 85
SWIDTH 602 0
DWIDTH 8 0
BBX 7 10 1 0
BITMAP
82
82
82
82
82
82
82
82
C6
7C
ENDCHAR
STARTCHAR V
ENCODING 86
SWIDTH 602 0
DWIDTH 8 0
BBX 7 10 1 0
BITMAP
82
82
44
44
44
28
28
28
28
10
ENDCHAR
STARTCHAR W
ENCODING 87
SWIDTH 602 0
DWIDTH 8 0
BBX 8 10 0 0
BITMAP
81
81
81
99
5A
5A
5A
24
24
24
ENDCHAR
STARTCHAR X
ENCODING 88
SWIDTH 602 0
DWIDTH 8 0
BBX 7 10 1 0
BITMAP
82
44
28
28
10
28
28
44
44
82
ENDCHAR
STARTCHAR Y
ENCODING 89
SWIDTH 602 0
DWIDTH 8 0
BBX 7 10 1 0
BITMAP
82
44
44
28
38
10
10
10
10
10
ENDCHAR
STARTCHAR Z
ENCODING 90
SWIDTH 602 0
DWIDTH 8 0
BBX 7 10 1 0
BITMAP
FE
06
04
08
10
10
20
40
C0
FE
ENDCHAR
STARTCHAR bracketleft
ENCODING 91
SWIDTH 602 0
DWIDTH 8 0
BBX 3 12 3 -1
BITMAP
E0
80
80
80
80
80
80
80
80
80
80
E0
ENDCHAR
STARTCHAR backslash
ENCODING 92
SWIDTH 602 0
DWIDTH 8 0
BBX 6 12 1 -2
BITMAP
80
40
40
40
20
20
10
10
08
08
08
04
ENDCHAR
STARTCHAR bracketright
ENCODING 93
SWIDTH 602 0
DWIDTH 8 0
BBX 3 12 2 -1
BITMAP
E0
20
20
20
20
20
20
20
20
20
20
E0
ENDCHAR
STARTCHAR asciicircum
ENCODING 94
SWIDTH 602 0
DWIDTH 8 0
BBX 7 4 1 6
BITMAP
10
28
44
C6
ENDCHAR
STARTCHAR underscore
ENCODING 95
SWIDTH 602 0
DWIDTH 8 0
BBX 7 1 0 -3
BITMAP
FE
ENDCHAR
STARTCHAR grave
ENCODING 96
SWIDTH 602 0
DWIDTH 8 0
BBX 3 3 2 9
BITMAP
C0
40
20
ENDCHAR
STARTCHAR a
ENCODING 97
SWIDTH 602 0
DWIDTH 8 0
BBX 6 8 1 0
BITMAP
38
44
04
7C
84
84
8C
74
ENDCHAR
STARTCHAR b
ENCODING 98
SWIDTH 602 0
DWIDTH 8 0
BBX 6 11 1 0
BITMAP
80
80
80
F8
C8
84
84
84
84
C8
B8
ENDCHAR
STARTCHAR c
ENCODING 99
SWIDTH 602 0
DWIDTH 8 0
BBX 6 8 1 0
BITMAP
38
44
80
80
80
80
44
38
ENDCHAR
STARTCHAR d
ENCODING 100
SWIDTH 602 0
DWIDTH 8 0
BBX 6 11 1 0
BITMAP
04
04
04
7C
4C
84
84
84
84
4C
74
ENDCHAR
STARTCHAR e
ENCODING 101
SWIDTH 602 0
DWIDTH 8 0
BBX 6 8 1 0
BITMAP
78
4C
84
FC
80
80
44
38
ENDCHAR
STARTCHAR f
ENCODING 102
SWIDTH 602 0
DWIDTH 8 0
BBX 6 11 1 0
BITMAP
1C
20
20
FC
20
20
20
20
20
20
20
ENDCHAR
STARTCHAR g
ENCODING 103
SWIDTH 602 0
DWIDTH 8 0
BBX 6 11 1 -3
BITMAP
74
4C
84
84
84
84
4C
74
04
44
38
ENDCHAR
STARTCHAR h
ENCODING 104
SWIDTH 602 0
DWIDTH 8 0
BBX 6 11 1 0
BITMAP
80
80
80
B8
C4
84
84
84
84
84
84
ENDCHAR
STARTCHAR i
ENCODING 105
SWIDTH 602 0
DWIDTH 8 0
BBX 7 11 1 0
BITMAP
10
10
00
70
10
10
10
10
10
10
FE
ENDCHAR
STARTCHAR j
ENCODING 106
SWIDTH 602 0
DWIDTH 8 0
BBX 4 14 1 -3
BITMAP
10
10
00
70
10
10
10
10
10
10
10
10
10
E0
ENDCHAR
STARTCHAR k
ENCODING 107
SWIDTH 602 0
DWIDTH 8 0
BBX 6 11 1 0
BITMAP
80
80
80
88
90
A0
E0
90
90
88
84
ENDCHAR
STARTCHAR l
ENCODING 108
SWIDTH 602 0
DWIDTH 8 0
BBX 7 11 0 0
BITMAP
F0
10
10
10
10
10
10
10
10
10
0E
ENDCHAR
STARTCHAR m
ENCODING 109
SWIDTH 602 0
DWIDTH 8 0
BBX 7 8 1 0
BITMAP
FC
92
92
92
92
92
92
92
ENDCHAR
STARTCHAR n
ENCODING 110
SWIDTH 602 0
DWIDTH 8 0
BBX 6 8 1 0
BITMAP
B8
C4
84
84
84
84
84
84
ENDCHAR
STARTCHAR o
ENCODING 111
SWIDTH 602 0
DWIDTH 8 0
BBX 6 8 1 0
BITMAP
78
CC
84
84
84
84
CC
78
ENDCHAR
STARTCHAR p
ENCODING 112
SWIDTH 602 0
DWIDTH 8 0
BBX 6 11 1 -3
BITMAP
B8
C8
84
84
84
84
C8
F8
80
80
80
ENDCHAR
STARTCHAR q
ENCODING 113
SWIDTH 602 0
DWIDTH 8 0
BBX 6 11 1 -3
BITMAP
74
4C
84
84
84
84
4C
74
04
04
04
ENDCHAR
STARTCHAR r
ENCODING 114
SWIDTH 602 0
DWIDTH 8 0
BBX 5 8 2 0
BITMAP
F0
C8
80
80
80
80
80
80
ENDCHAR
STARTCHAR s
ENCODING 115
SWIDTH 602 0
DWIDTH 8 0
BBX 6 8 1 0
BITMAP
78
84
80
E0
1C
04
84
78
ENDCHAR
STARTCHAR t
ENCODING 116
SWIDTH 602 0
DWIDTH 8 0
BBX 6 10 1 0
BITMAP
20
20
FC
20
20
20
20
20
20
1C
ENDCHAR
STARTCHAR u
ENCODING 117
SWIDTH 602 0
DWIDTH 8 0
BBX 6 8 1 0
BITMAP
84
84
84
84
84
84
8C
74
ENDCHAR
STARTCHAR v
ENCODING 118
SWIDTH 602 0
DWIDTH 8 0
BBX 6 8 1 0
BITMAP
84
84
48
48
48
30
30
30
ENDCHAR
STARTCHAR w
ENCODING 119
SWIDTH 602 0
DWIDTH 8 0
BBX 8 8 0 0
BITMAP
81
81
5A
5A
5A
5A
24
24
ENDCHAR
STARTCHAR x
ENCODING 120
SWIDTH 602 0
DWIDTH 8 0
BBX 6 8 1 0
BITMAP
84
48
30
30
30
48
48
84
ENDCHAR
STARTCHAR y
ENCODING 121
SWIDTH 602 0
DWIDTH 8 0
BBX 6 11 1 -3
BITMAP
84
44
48
48
28
30
10
10
10
20
60
ENDCHAR
STARTCHAR z
ENCODING 122
SWIDTH 602 0
DWIDTH 8 0
BBX 6 8 1 0
BITMAP
FC
04
08
10
20
40
80
FC
ENDCHAR
STARTCHAR braceleft
ENCODING 123
SWIDTH 602 0
DWIDTH 8 0
BBX 5 13 2 -2
BITMAP
18
20
20
20
20
20
C0
20
20
20
20
20
18
ENDCHAR
STARTCHAR bar
ENCODING 124
SWIDTH 602 0
DWIDTH 8 0
BBX 1 14 4 -3
BITMAP
80
80
80
80
80
80
80
80
80
80
80
80
80
80
ENDCHAR
STARTCHAR braceright
ENCODING 125
SWIDTH 602 0
DWIDTH 8 0
BBX 5 13 2 -2
BITMAP
C0
20
20
20
20
20
18
20
20
20
20
20
C0
ENDCHAR
STARTCHAR asciitilde
ENCODING 126
SWIDTH 602 0
DWIDTH 8 0
BBX 7 2 1 3
BITMAP
72
8C
ENDCHAR
STARTCHAR nonbreakingspace
ENCODING 160
SWIDTH 602 0
DWIDTH 8 0
BBX 1 1 0 0
BITMAP
00
ENDCHAR
STARTCHAR exclamdown
ENCODING 161
SWIDTH 602 0
DWIDTH 8 0
BBX 1 10 4 0
BITMAP
80
80
00
00
80
80
80
80
80
80
ENDCHAR
STARTCHAR cent
ENCODING 162
SWIDTH 602 0
DWIDTH 8 0
BBX 6 12 1 -2
BITMAP
10
10
38
54
90
90
90
90
54
38
10
10
ENDCHAR
STARTCHAR sterling
ENCODING 163
SWIDTH 602 0
DWIDTH 8 0
BBX 7 10 1 0
BITMAP
1C
32
20
20
20
7C
20
20
20
FE
ENDCHAR
STARTCHAR currency
ENCODING 164
SWIDTH 602 0
DWIDTH 8 0
BBX 7 7 1 1
BITMAP
82
7C
44
44
44
7C
82
ENDCHAR
STARTCHAR yen
ENCODING 165
SWIDTH 602 0
DWIDTH 8 0
BBX 7 10 1 0
BITMAP
82
44
28
EE
10
FE
10
10
10
10
ENDCHAR
STARTCHAR brokenbar
ENCODING 166
SWIDTH 602 0
DWIDTH 8 0
BBX 1 12 4 -2
BITMAP
80
80
80
80
80
00
00
80
80
80
80
80
ENDCHAR
STARTCHAR section
ENCODING 167
SWIDTH 602 0
DWIDTH 8 0
BBX 6 11 1 -1
BITMAP
7C
80
C0
70
8C
84
64
38
0C
04
F8
ENDCHAR
STARTCHAR dieresis
ENCODING 168
SWIDTH 602 0
DWIDTH 8 0
BBX 3 1 3 9
BITMAP
A0
ENDCHAR
STARTCHAR copyright
ENCODING 169
SWIDTH 602 0
DWIDTH 8 0
BBX 8 8 0 1
BITMAP
3C
42
9D
A1
A1
9D
42
3C
ENDCHAR
STARTCHAR ordfeminine
ENCODING 170
SWIDTH 602 0
DWIDTH 8 0
BBX 5 8 2 2
BITMAP
F0
08
78
88
98
68
00
F8
ENDCHAR
STARTCHAR guillemotleft
ENCODING 171
SWIDTH 602 0
DWIDTH 8 0
BBX 6 6 1 1
BITMAP
24
6C
D8
D8
6C
24
ENDCHAR
STARTCHAR logicalnot
ENCODING 172
SWIDTH 602 0
DWIDTH 8 0
BBX 7 3 1 3
BITMAP
FE
02
02
ENDCHAR
STARTCHAR sfthyphen
ENCODING 173
SWIDTH 602 0
DWIDTH 8 0
BBX 4 1 2 3
BITMAP
F0
ENDCHAR
STARTCHAR registered
ENCODING 174
SWIDTH 602 0
DWIDTH 8 0
BBX 8 8 0 1
BITMAP
3C
42
BD
A5
B9
AD
42
3C
ENDCHAR
STARTCHAR macron
ENCODING 175
SWIDTH 602 0
DWIDTH 8 0
BBX 4 1 2 9
BITMAP
F0
ENDCHAR
STARTCHAR degree
ENCODING 176
SWIDTH 602 0
DWIDTH 8 0
BBX 4 4 2 6
BITMAP
60
90
90
60
ENDCHAR
STARTCHAR plusminus
ENCODING 177
SWIDTH 602 0
DWIDTH 8 0
BBX 7 8 1 0
BITMAP
10
10
FE
10
10
00
00
FE
ENDCHAR
STARTCHAR twosuperior
ENCODING 178
SWIDTH 602 0
DWIDTH 8 0
BBX 4 6 2 4
BITMAP
E0
10
10
20
40
F0
ENDCHAR
STARTCHAR threesuperior
ENCODING 179
SWIDTH 602 0
DWIDTH 8 0
BBX 4 6 2 4
BITMAP
F0
10
60
10
10
E0
ENDCHAR
STARTCHAR acute
ENCODING 180
SWIDTH 602 0
DWIDTH 8 0
BBX 3 3 3 9
BITMAP
60
40
80
ENDCHAR
STARTCHAR mu
ENCODING 181
SWIDTH 602 0
DWIDTH 8 0
BBX 7 11 1 -3
BITMAP
84
84
84
84
84
84
8C
FE
80
80
80
ENDCHAR
STARTCHAR paragraph
ENCODING 182
SWIDTH 602 0
DWIDTH 8 0
BBX 7 11 1 -1
BITMAP
3E
FA
FA
FA
FA
3A
0A
0A
0A
0A
0A
ENDCHAR
STARTCHAR periodcentered
ENCODING 183
SWIDTH 602 0
DWIDTH 8 0
BBX 2 2 3 4
BITMAP
C0
C0
ENDCHAR
STARTCHAR cedilla
ENCODING 184
SWIDTH 602 0
DWIDTH 8 0
BBX 3 3 3 -3
BITMAP
40
20
E0
ENDCHAR
STARTCHAR onesuperior
ENCODING 185
SWIDTH 602 0
DWIDTH 8 0
BBX 3 6 3 4
BITMAP
C0
40
40
40
40
E0
ENDCHAR
STARTCHAR ordmasculine
ENCODING 186
SWIDTH 602 0
DWIDTH 8 0
BBX 5 8 2 2
BITMAP
70
88
88
88
88
70
00
F8
ENDCHAR
STARTCHAR guillemotright
ENCODING 187
SWIDTH 602 0
DWIDTH 8 0
BBX 6 6 1 1
BITMAP
90
D8
6C
6C
D8
90
ENDCHAR
STARTCHAR onequarter
ENCODING 188
SWIDTH 602 0
DWIDTH 8 0
BBX 8 13 0 -2
BITMAP
60
20
20
20
20
76
38
C6
06
0A
12
1F
02
ENDCHAR
STARTCHAR onehalf
ENCODING 189
SWIDTH 602 0
DWIDTH 8 0
BBX 7 13 0 -2
BITMAP
60
20
20
20
20
76
38
DC
02
02
04
08
1E
ENDCHAR
STARTCHAR threequarters
ENCODING 190
SWIDTH 602 0
DWIDTH 8 0
BBX 8 13 0 -2
BITMAP
F0
10
60
10
10
E6
38
C6
06
0A
12
1F
02
ENDCHAR
STARTCHAR questiondown
ENCODING 191
SWIDTH 602 0
DWIDTH 8 0
BBX 5 10 2 0
BITMAP
20
20
00
20
20
60
C0
80
88
70
ENDCHAR
STARTCHAR Agrave
ENCODING 192
SWIDTH 602 0
DWIDTH 8 0
BBX 7 13 1 0
BITMAP
60
30
00
10
28
28
28
28
44
7C
44
82
82
ENDCHAR
STARTCHAR Aacute
ENCODING 193
SWIDTH 602 0
DWIDTH 8 0
BBX 7 13 1 0
BITMAP
18
30
00
10
28
28
28
28
44
7C
44
82
82
ENDCHAR
STARTCHAR Acircumflex
ENCODING 194
SWIDTH 602 0
DWIDTH 8 0
BBX 7 13 1 0
BITMAP
30
48
00
10
28
28
28
28
44
7C
44
82
82
ENDCHAR
STARTCHAR Atilde
ENCODING 195
SWIDTH 602 0
DWIDTH 8 0
BBX 7 13 1 0
BITMAP
74
5C
00
10
28
28
28
28
44
7C
44
82
82
ENDCHAR
STARTCHAR Adieresis
ENCODING 196
SWIDTH 602 0
DWIDTH 8 0
BBX 7 12 1 0
BITMAP
28
00
10
28
28
28
28
44
7C
44
82
82
ENDCHAR
STARTCHAR Aring
ENCODING 197
SWIDTH 602 0
DWIDTH 8 0
BBX 7 13 1 0
BITMAP
38
28
28
10
10
28
28
28
44
7C
44
C6
82
ENDCHAR
STARTCHAR AE
ENCODING 198
SWIDTH 602 0
DWIDTH 8 0
BBX 8 10 0 0
BITMAP
3F
28
28
28
4F
48
78
48
88
8F
ENDCHAR
STARTCHAR Ccedilla
ENCODING 199
SWIDTH 602 0
DWIDTH 8 0
BBX 7 13 1 -3
BITMAP
3C
42
80
80
80
80
80
80
42
3C
08
04
1C
ENDCHAR
STARTCHAR Egrave
ENCODING 200
SWIDTH 602 0
DWIDTH 8 0
BBX 7 13 1 0
BITMAP
60
30
00
FE
80
80
80
FE
80
80
80
80
FE
ENDCHAR
STARTCHAR Eacute
ENCODING 201
SWIDTH 602 0
DWIDTH 8 0
BBX 7 13 1 0
BITMAP
18
30
00
FE
80
80
80
FE
80
80
80
80
FE
ENDCHAR
STARTCHAR Ecircumflex
ENCODING 202
SWIDTH 602 0
DWIDTH 8 0
BBX 7 13 1 0
BITMAP
30
48
00
FE
80
80
80
FE
80
80
80
80
FE
ENDCHAR
STARTCHAR Edieresis
ENCODING 203
SWIDTH 602 0
DWIDTH 8 0
BBX 7 12 1 0
BITMAP
28
00
FE
80
80
80
FE
80
80
80
80
FE
ENDCHAR
STARTCHAR Igrave
ENCODING 204
SWIDTH 602 0
DWIDTH 8 0
BBX 5 13 2 0
BITMAP
C0
60
00
F8
20
20
20
20
20
20
20
20
F8
ENDCHAR
STARTCHAR Iacute
ENCODING 205
SWIDTH 602 0
DWIDTH 8 0
BBX 5 13 2 0
BITMAP
30
60
00
F8
20
20
20
20
20
20
20
20
F8
ENDCHAR
STARTCHAR Icircumflex
ENCODING 206
SWIDTH 602 0
DWIDTH 8 0
BBX 5 13 2 0
BITMAP
60
90
00
F8
20
20
20
20
20
20
20
20
F8
ENDCHAR
STARTCHAR Idieresis
ENCODING 207
SWIDTH 602 0
DWIDTH 8 0
BBX 5 12 2 0
BITMAP
50
00
F8
20
20
20
20
20
20
20
20
F8
ENDCHAR
STARTCHAR Eth
ENCODING 208
SWIDTH 602 0
DWIDTH 8 0
BBX 8 10 0 0
BITMAP
7C
42
41
41
F1
41
41
41
42
7C
ENDCHAR
STARTCHAR Ntilde
ENCODING 209
SWIDTH 602 0
DWIDTH 8 0
BBX 7 13 1 0
BITMAP
74
5C
00
C2
C2
A2
A2
92
92
8A
8A
86
86
ENDCHAR
STARTCHAR Ograve
ENCODING 210
SWIDTH 602 0
DWIDTH 8 0
BBX 7 13 1 0
BITMAP
60
30
00
38
44
82
82
82
82
82
82
44
38
ENDCHAR
STARTCHAR Oacute
ENCODING 211
SWIDTH 602 0
DWIDTH 8 0
BBX 7 13 1 0
BITMAP
18
30
00
38
44
82
82
82
82
82
82
44
38
ENDCHAR
STARTCHAR Ocircumflex
ENCODING 212
SWIDTH 602 0
DWIDTH 8 0
BBX 7 13 1 0
BITMAP
30
48
00
38
44
82
82
82
82
82
82
44
38
ENDCHAR
STARTCHAR Otilde
ENCODING 213
SWIDTH 602 0
DWIDTH 8 0
BBX 7 13 1 0
BITMAP
74
5C
00
38
44
82
82
82
82
82
82
44
38
ENDCHAR
STARTCHAR Odieresis
ENCODING 214
SWIDTH 602 0
DWIDTH 8 0
BBX 7 12 1 0
BITMAP
28
00
38
44
82
82
82
82
82
82
44
38
ENDCHAR
STARTCHAR multiply
ENCODING 215
SWIDTH 602 0
DWIDTH 8 0
BBX 6 6 1 2
BITMAP
84
48
30
30
48
84
ENDCHAR
STARTCHAR Oslash
ENCODING 216
SWIDTH 602 0
DWIDTH 8 0
BBX 8 10 0 0
BITMAP
1F
23
43
45
4D
59
71
61
62
BC
ENDCHAR
STARTCHAR Ugrave
ENCODING 217
SWIDTH 602 0
DWIDTH 8 0
BBX 7 13 1 0
BITMAP
60
30
00
82
82
82
82
82
82
82
82
C6
7C
ENDCHAR
STARTCHAR Uacute
ENCODING 218
SWIDTH 602 0
DWIDTH 8 0
BBX 7 13 1 0
BITMAP
18
30
00
82
82
82
82
82
82
82
82
C6
7C
ENDCHAR
STARTCHAR Ucircumflex
ENCODING 219
SWIDTH 602 0
DWIDTH 8 0
BBX 7 13 1 0
BITMAP
30
48
00
82
82
82
82
82
82
82
82
C6
7C
ENDCHAR
STARTCHAR Udieresis
ENCODING 220
SWIDTH 602 0
DWIDTH 8 0
BBX 7 12 1 0
BITMAP
28
00
82
82
82
82
82
82
82
82
C6
7C
ENDCHAR
STARTCHAR Yacute
ENCODING 221
SWIDTH 602 0
DWIDTH 8 0
BBX 7 13 1 0
BITMAP
18
30
00
82
44
44
28
38
10
10
10
10
10
ENDCHAR
STARTCHAR Thorn
ENCODING 222
SWIDTH 602 0
DWIDTH 8 0
BBX 7 10 1 0
BITMAP
80
FC
86
82
82
86
FC
80
80
80
ENDCHAR
STARTCHAR germandbls
ENCODING 223
SWIDTH 602 0
DWIDTH 8 0
BBX 6 11 1 0
BITMAP
70
88
88
90
A0
A0
B8
8C
84
84
B8
ENDCHAR
STARTCHAR agrave
ENCODING 224
SWIDTH 602 0
DWIDTH 8 0
BBX 6 12 1 0
BITMAP
60
20
10
00
38
44
04
7C
84
84
8C
74
ENDCHAR
STARTCHAR aacute
ENCODING 225
SWIDTH 602 0
DWIDTH 8 0
BBX 6 12 1 0
BITMAP
18
10
20
00
38
44
04
7C
84
84
8C
74
ENDCHAR
STARTCHAR acircumflex
ENCODING 226
SWIDTH 602 0
DWIDTH 8 0
BBX 6 12 1 0
BITMAP
30
30
48
00
38
44
04
7C
84
84
8C
74
ENDCHAR
STARTCHAR atilde
ENCODING 227
SWIDTH 602 0
DWIDTH 8 0
BBX 6 11 1 0
BITMAP
74
5C
00
38
44
04
7C
84
84
8C
74
ENDCHAR
STARTCHAR adieresis
ENCODING 228
SWIDTH 602 0
DWIDTH 8 0
BBX 6 10 1 0
BITMAP
28
00
38
44
04
7C
84
84
8C
74
ENDCHAR
STARTCHAR aring
ENCODING 229
SWIDTH 602 0
DWIDTH 8 0
BBX 6 13 1 0
BITMAP
30
48
48
30
00
38
44
04
7C
84
84
8C
74
ENDCHAR
STARTCHAR ae
ENCODING 230
SWIDTH 602 0
DWIDTH 8 0
BBX 6 8 1 0
BITMAP
D8
24
24
7C
A0
A0
A0
DC
ENDCHAR
STARTCHAR ccedilla
ENCODING 231
SWIDTH 602 0
DWIDTH 8 0
BBX 6 11 1 -3
BITMAP
38
44
80
80
80
80
44
38
08
04
1C
ENDCHAR
STARTCHAR egrave
ENCODING 232
SWIDTH 602 0
DWIDTH 8 0
BBX 6 12 1 0
BITMAP
60
20
10
00
78
4C
84
FC
80
80
44
38
ENDCHAR
STARTCHAR eacute
ENCODING 233
SWIDTH 602 0
DWIDTH 8 0
BBX 6 12 1 0
BITMAP
18
10
20
00
78
4C
84
FC
80
80
44
38
ENDCHAR
STARTCHAR ecircumflex
ENCODING 234
SWIDTH 602 0
DWIDTH 8 0
BBX 6 12 1 0
BITMAP
30
30
48
00
78
4C
84
FC
80
80
44
38
ENDCHAR
STARTCHAR edieresis
ENCODING 235
SWIDTH 602 0
DWIDTH 8 0
BBX 6 10 1 0
BITMAP
28
00
78
4C
84
FC
80
80
44
38
ENDCHAR
STARTCHAR igrave
ENCODING 236
SWIDTH 602 0
DWIDTH 8 0
BBX 7 12 1 0
BITMAP
60
20
10
00
70
10
10
10
10
10
10
FE
ENDCHAR
STARTCHAR iacute
ENCODING 237
SWIDTH 602 0
DWIDTH 8 0
BBX 7 12 1 0
BITMAP
18
10
20
00
70
10
10
10
10
10
10
FE
ENDCHAR
STARTCHAR icircumflex
ENCODING 238
SWIDTH 602 0
DWIDTH 8 0
BBX 7 12 1 0
BITMAP
30
30
48
00
70
10
10
10
10
10
10
FE
ENDCHAR
STARTCHAR idieresis
ENCODING 239
SWIDTH 602 0
DWIDTH 8 0
BBX 7 10 1 0
BITMAP
28
00
70
10
10
10
10
10
10
FE
ENDCHAR
STARTCHAR eth
ENCODING 240
SWIDTH 602 0
DWIDTH 8 0
BBX 6 11 1 0
BITMAP
60
78
10
78
4C
84
84
84
84
4C
78
ENDCHAR
STARTCHAR ntilde
ENCODING 241
SWIDTH 602 0
DWIDTH 8 0
BBX 6 11 1 0
BITMAP
74
5C
00
B8
C4
84
84
84
84
84
84
ENDCHAR
STARTCHAR ograve
ENCODING 242
SWIDTH 602 0
DWIDTH 8 0
BBX 6 12 1 0
BITMAP
60
20
10
00
78
CC
84
84
84
84
CC
78
ENDCHAR
STARTCHAR oacute
ENCODING 243
SWIDTH 602 0
DWIDTH 8 0
BBX 6 12 1 0
BITMAP
18
10
20
00
78
CC
84
84
84
84
CC
78
ENDCHAR
STARTCHAR ocircumflex
ENCODING 244
SWIDTH 602 0
DWIDTH 8 0
BBX 6 12 1 0
BITMAP
30
30
48
00
78
CC
84
84
84
84
CC
78
ENDCHAR
STARTCHAR otilde
ENCODING 245
SWIDTH 602 0
DWIDTH 8 0
BBX 6 11 1 0
BITMAP
74
5C
00
78
CC
84
84
84
84
CC
78
ENDCHAR
STARTCHAR odieresis
ENCODING 246
SWIDTH 602 0
DWIDTH 8 0
BBX 6 10 1 0
BITMAP
28
00
78
CC
84
84
84
84
CC
78
ENDCHAR
STARTCHAR divide
ENCODING 247
SWIDTH 602 0
DWIDTH 8 0
BBX 8 7 0 1
BITMAP
18
18
00
FF
00
18
18
ENDCHAR
STARTCHAR oslash
ENCODING 248
SWIDTH 602 0
DWIDTH 8 0
BBX 6 8 1 0
BITMAP
7C
4C
8C
94
A4
C4
C8
F8
ENDCHAR
STARTCHAR ugrave
ENCODING 249
SWIDTH 602 0
DWIDTH 8 0
BBX 6 12 1 0
BITMAP
60
20
10
00
84
84
84
84
84
84
8C
74
ENDCHAR
STARTCHAR uacute
ENCODING 250
SWIDTH 602 0
DWIDTH 8 0
BBX 6 12 1 0
BITMAP
18
10
20
00
84
84
84
84
84
84
8C
74
ENDCHAR
STARTCHAR ucircumflex
ENCODING 251
SWIDTH 602 0
DWIDTH 8 0
BBX 6 12 1 0
BITMAP
30
30
48
00
84
84
84
84
84
84
8C
74
ENDCHAR
STARTCHAR udieresis
ENCODING 252
SWIDTH 602 0
DWIDTH 8 0
BBX 6 10 1 0
BITMAP
28
00
84
84
84
84
84
84
8C
74
ENDCHAR
STARTCHAR yacute
ENCODING 253
SWIDTH 602 0
DWIDTH 8 0
BBX 6 15 1 -3
BITMAP
18
10
20
00
84
44
48
48
28
30
10
10
10
20
60
ENDCHAR
STARTCHAR thorn
ENCODING 254
SWIDTH 602 0
DWIDTH 8 0
BBX 6 14 1 -3
BITMAP
80
80
80
B8
C8
84
84
84
84
C8
F8
80
80
80
ENDCHAR
STARTCHAR ydieresis
ENCODING 255
SWIDTH 602 0
DWIDTH 8 0
BBX 6 13 1 -3
BITMAP
28
00
84
44
48
48
28
30
10
10
10
20
60
ENDCHAR
STARTCHAR .notdef
ENCODING -1
SWIDTH 602 0
DWIDTH 8 0
BBX 7 12 1 -2
BITMAP
FE
82
82
82
82
82
82
82
82
82
82
FE
ENDCHAR
STARTCHAR .null
ENCODING -1
SWIDTH 0 0
DWIDTH 0 0
BBX 1 1 0 0
BITMAP
00
ENDCHAR
STARTCHAR nonmarkingreturn
ENCODING -1
SWIDTH 602 0
DWIDTH 8 0
BBX 1 1 0 0
BITMAP
00
ENDCHAR
STARTCHAR dagger
ENCODING -1
SWIDTH 602 0
DWIDTH 8 0
BBX 7 11 1 -1
BITMAP
10
10
10
FE
10
10
10
10
10
10
10
ENDCHAR
STARTCHAR bullet
ENCODING -1
SWIDTH 602 0
DWIDTH 8 0
BBX 4 4 2 3
BITMAP
60
F0
F0
60
ENDCHAR
STARTCHAR trademark
ENCODING -1
SWIDTH 602 0
DWIDTH 8 0
BBX 8 4 0 6
BITMAP
E9
4F
4F
49
ENDCHAR
STARTCHAR notequal
ENCODING -1
SWIDTH 602 0
DWIDTH 8 0
BBX 7 8 1 1
BITMAP
06
04
FE
10
30
FE
40
80
ENDCHAR
STARTCHAR infinity
ENCODING -1
SWIDTH 602 0
DWIDTH 8 0
BBX 8 5 0 2
BITMAP
66
99
99
99
66
ENDCHAR
STARTCHAR lessequal
ENCODING -1
SWIDTH 602 0
DWIDTH 8 0
BBX 7 7 1 0
BITMAP
02
1C
E0
E0
1C
02
FE
ENDCHAR
STARTCHAR greaterequal
ENCODING -1
SWIDTH 602 0
DWIDTH 8 0
BBX 7 7 1 0
BITMAP
80
70
0E
0E
70
80
FE
ENDCHAR
STARTCHAR partialdiff
ENCODING -1
SWIDTH 602 0
DWIDTH 8 0
BBX 6 9 1 0
BITMAP
38
0C
04
74
CC
8C
8C
98
70
ENDCHAR
STARTCHAR summation
ENCODING -1
SWIDTH 602 0
DWIDTH 8 0
BBX 6 13 1 -3
BITMAP
FC
40
40
20
20
10
10
10
20
20
40
80
FC
ENDCHAR
STARTCHAR product
ENCODING -1
SWIDTH 602 0
DWIDTH 8 0
BBX 6 13 1 -3
BITMAP
FC
84
84
84
84
84
84
84
84
84
84
84
84
ENDCHAR
STARTCHAR pi
ENCODING -1
SWIDTH 602 0
DWIDTH 8 0
BBX 7 8 1 0
BITMAP
FE
44
44
44
44
44
44
46
ENDCHAR
STARTCHAR integral
ENCODING -1
SWIDTH 602 0
DWIDTH 8 0
BBX 7 13 1 -2
BITMAP
0E
08
10
10
10
10
10
10
10
10
10
20
E0
ENDCHAR
STARTCHAR Omega
ENCODING -1
SWIDTH 602 0
DWIDTH 8 0
BBX 7 10 1 0
BITMAP
38
44
82
82
82
82
82
C6
44
EE
ENDCHAR
STARTCHAR radical
ENCODING -1
SWIDTH 602 0
DWIDTH 8 0
BBX 8 12 0 0
BITMAP
01
01
02
02
02
04
E4
24
28
18
18
10
ENDCHAR
STARTCHAR florin
ENCODING -1
SWIDTH 602 0
DWIDTH 8 0
BBX 8 14 0 -3
BITMAP
07
0C
08
08
08
3E
08
18
10
10
10
10
30
E0
ENDCHAR
STARTCHAR approxequal
ENCODING -1
SWIDTH 602 0
DWIDTH 8 0
BBX 7 4 1 2
BITMAP
72
8E
72
8C
ENDCHAR
STARTCHAR Delta
ENCODING -1
SWIDTH 602 0
DWIDTH 8 0
BBX 9 10 0 0
BITMAP
0800
1C00
1C00
3E00
3600
3600
6300
6300
6300
FF80
ENDCHAR
STARTCHAR ellipsis
ENCODING -1
SWIDTH 602 0
DWIDTH 8 0
BBX 8 2 1 0
BITMAP
DB
DB
ENDCHAR
STARTCHAR OE
ENCODING -1
SWIDTH 602 0
DWIDTH 8 0
BBX 7 10 1 0
BITMAP
7E
D0
90
90
9E
90
90
90
D0
7E
ENDCHAR
STARTCHAR oe
ENCODING -1
SWIDTH 602 0
DWIDTH 8 0
BBX 6 8 1 0
BITMAP
58
A4
A4
BC
A0
A0
A0
5C
ENDCHAR
STARTCHAR endash
ENCODING -1
SWIDTH 602 0
DWIDTH 8 0
BBX 8 1 0 3
BITMAP
FF
ENDCHAR
STARTCHAR emdash
ENCODING -1
SWIDTH 602 0
DWIDTH 8 0
BBX 8 1 0 3
BITMAP
FF
ENDCHAR
STARTCHAR quotedblleft
ENCODING -1
SWIDTH 602 0
DWIDTH 8 0
BBX 6 4 1 7
BITMAP
24
48
D8
D8
ENDCHAR
STARTCHAR quotedblright
ENCODING -1
SWIDTH 602 0
DWIDTH 8 0
BBX 6 4 1 7
BITMAP
6C
6C
48
90
ENDCHAR
STARTCHAR quoteleft
ENCODING -1
SWIDTH 602 0
DWIDTH 8 0
BBX 3 4 3 7
BITMAP
20
40
C0
C0
ENDCHAR
STARTCHAR quoteright
ENCODING -1
SWIDTH 602 0
DWIDTH 8 0
BBX 3 4 3 7
BITMAP
60
60
40
80
ENDCHAR
STARTCHAR lozenge
ENCODING -1
SWIDTH 602 0
DWIDTH 8 0
BBX 7 15 1 -3
BITMAP
10
10
28
28
44
44
82
82
82
44
44
28
28
10
10
ENDCHAR
STARTCHAR Ydieresis
ENCODING -1
SWIDTH 602 0
DWIDTH 8 0
BBX 7 12 1 0
BITMAP
28
00
82
44
44
28
38
10
10
10
10
10
ENDCHAR
STARTCHAR fraction
ENCODING -1
SWIDTH 602 0
DWIDTH 8 0
BBX 6 12 1 -2
BITMAP
04
08
08
08
10
10
20
20
40
40
40
80
ENDCHAR
STARTCHAR guilsinglleft
ENCODING -1
SWIDTH 602 0
DWIDTH 8 0
BBX 3 6 2 1
BITMAP
20
60
C0
C0
60
20
ENDCHAR
STARTCHAR guilsinglright
ENCODING -1
SWIDTH 602 0
DWIDTH 8 0
BBX 3 6 3 1
BITMAP
80
C0
60
60
C0
80
ENDCHAR
STARTCHAR fi
ENCODING -1
SWIDTH 602 0
DWIDTH 8 0
BBX 7 11 0 0
BITMAP
32
42
40
FE
42
42
42
42
42
42
42
ENDCHAR
STARTCHAR fl
ENCODING -1
SWIDTH 602 0
DWIDTH 8 0
BBX 7 11 0 0
BITMAP
3E
42
42
F2
42
42
42
42
42
42
42
ENDCHAR
STARTCHAR daggerdbl
ENCODING -1
SWIDTH 602 0
DWIDTH 8 0
BBX 7 11 1 -1
BITMAP
10
10
10
FE
10
10
10
FE
10
10
10
ENDCHAR
STARTCHAR quotesinglbase
ENCODING -1
SWIDTH 602 0
DWIDTH 8 0
BBX 3 4 2 -2
BITMAP
60
60
40
80
ENDCHAR
STARTCHAR quotedblbase
ENCODING -1
SWIDTH 602 0
DWIDTH 8 0
BBX 6 4 1 -2
BITMAP
6C
6C
48
90
ENDCHAR
STARTCHAR perthousand
ENCODING -1
SWIDTH 602 0
DWIDTH 8 0
BBX 9 10 0 0
BITMAP
6000
9000
9000
6700
3800
C000
6300
9480
9480
6300
ENDCHAR
STARTCHAR dotlessi
ENCODING -1
SWIDTH 602 0
DWIDTH 8 0
BBX 7 8 1 0
BITMAP
70
10
10
10
10
10
10
FE
ENDCHAR
STARTCHAR circumflex
ENCODING -1
SWIDTH 602 0
DWIDTH 8 0
BBX 4 3 2 9
BITMAP
60
60
90
ENDCHAR
STARTCHAR tilde
ENCODING -1
SWIDTH 602 0
DWIDTH 8 0
BBX 5 2 2 9
BITMAP
E8
B8
ENDCHAR
STARTCHAR breve
ENCODING -1
SWIDTH 602 0
DWIDTH 8 0
BBX 4 2 2 9
BITMAP
90
60
ENDCHAR
STARTCHAR dotaccent
ENCODING -1
SWIDTH 602 0
DWIDTH 8 0
BBX 1 1 4 9
BITMAP
80
ENDCHAR
STARTCHAR ring
ENCODING -1
SWIDTH 602 0
DWIDTH 8 0
BBX 4 4 2 9
BITMAP
60
90
90
60
ENDCHAR
STARTCHAR hungarumlaut
ENCODING -1
SWIDTH 602 0
DWIDTH 8 0
BBX 5 3 2 9
BITMAP
58
90
A0
ENDCHAR
STARTCHAR ogonek
ENCODING -1
SWIDTH 602 0
DWIDTH 8 0
BBX 3 3 3 -3
BITMAP
80
80
E0
ENDCHAR
STARTCHAR caron
ENCODING -1
SWIDTH 602 0
DWIDTH 8 0
BBX 4 3 2 9
BITMAP
90
60
60
ENDCHAR
STARTCHAR Lslash
ENCODING -1
SWIDTH 602 0
DWIDTH 8 0
BBX 8 10 0 0
BITMAP
40
40
40
58
60
40
C0
40
40
7F
ENDCHAR
STARTCHAR lslash
ENCODING -1
SWIDTH 602 0
DWIDTH 8 0
BBX 6 11 1 0
BITMAP
E0
20
20
2C
30
60
E0
20
20
20
1C
ENDCHAR
STARTCHAR Scaron
ENCODING -1
SWIDTH 602 0
DWIDTH 8 0
BBX 7 13 1 0
BITMAP
48
30
00
3C
C2
80
80
60
1C
02
02
86
7C
ENDCHAR
STARTCHAR scaron
ENCODING -1
SWIDTH 602 0
DWIDTH 8 0
BBX 6 12 1 0
BITMAP
48
30
30
00
78
84
80
E0
1C
04
84
78
ENDCHAR
STARTCHAR Zcaron
ENCODING -1
SWIDTH 602 0
DWIDTH 8 0
BBX 7 13 1 0
BITMAP
48
30
00
FE
06
04
08
10
10
20
40
C0
FE
ENDCHAR
STARTCHAR zcaron
ENCODING -1
SWIDTH 602 0
DWIDTH 8 0
BBX 6 12 1 0
BITMAP
48
30
30
00
FC
04
08
10
20
40
80
FC
ENDCHAR
STARTCHAR minus
ENCODING -1
SWIDTH 602 0
DWIDTH 8 0
BBX 7 1 1 4
BITMAP
FE
ENDCHAR
STARTCHAR Gbreve
ENCODING -1
SWIDTH 602 0
DWIDTH 8 0
BBX 7 14 1 0
BITMAP
48
30
00
00
3C
42
80
80
80
86
82
82
42
3C
ENDCHAR
STARTCHAR gbreve
ENCODING -1
SWIDTH 602 0
DWIDTH 8 0
BBX 6 14 1 -3
BITMAP
48
30
00
74
4C
84
84
84
84
4C
74
04
44
38
ENDCHAR
STARTCHAR Idotaccent
ENCODING -1
SWIDTH 602 0
DWIDTH 8 0
BBX 5 13 2 0
BITMAP
20
00
00
F8
20
20
20
20
20
20
20
20
F8
ENDCHAR
STARTCHAR Scedilla
ENCODING -1
SWIDTH 602 0
DWIDTH 8 0
BBX 7 13 1 -3
BITMAP
3C
C2
80
80
60
1C
02
02
86
7C
10
08
38
ENDCHAR
STARTCHAR scedilla
ENCODING -1
SWIDTH 602 0
DWIDTH 8 0
BBX 6 11 1 -3
BITMAP
78
84
80
E0
1C
04
84
78
10
08
38
ENDCHAR
STARTCHAR Cacute
ENCODING -1
SWIDTH 602 0
DWIDTH 8 0
BBX 7 13 1 0
BITMAP
0C
18
00
3C
42
80
80
80
80
80
80
42
3C
ENDCHAR
STARTCHAR cacute
ENCODING -1
SWIDTH 602 0
DWIDTH 8 0
BBX 6 12 1 0
BITMAP
0C
08
10
00
38
44
80
80
80
80
44
38
ENDCHAR
STARTCHAR Ccaron
ENCODING -1
SWIDTH 602 0
DWIDTH 8 0
BBX 7 13 1 0
BITMAP
24
18
00
3C
42
80
80
80
80
80
80
42
3C
ENDCHAR
STARTCHAR ccaron
ENCODING -1
SWIDTH 602 0
DWIDTH 8 0
BBX 6 12 1 0
BITMAP
24
18
18
00
38
44
80
80
80
80
44
38
ENDCHAR
STARTCHAR dcroat
ENCODING -1
SWIDTH 602 0
DWIDTH 8 0
BBX 7 11 1 0
BITMAP
04
1E
04
7C
4C
84
84
84
84
4C
74
ENDCHAR
STARTCHAR periodcentered
ENCODING -1
SWIDTH 602 0
DWIDTH 8 0
BBX 2 2 3 4
BITMAP
C0
C0
ENDCHAR
STARTCHAR Euro
ENCODING -1
SWIDTH 602 0
DWIDTH 8 0
BBX 7 10 0 0
BITMAP
1C
22
40
FC
40
F8
40
40
22
1C
ENDCHAR
STARTCHAR c6459
ENCODING -1
SWIDTH 602 0
DWIDTH 8 0
BBX 3 1 3 8
BITMAP
A0
ENDCHAR
STARTCHAR c6460
ENCODING -1
SWIDTH 602 0
DWIDTH 8 0
BBX 3 2 3 8
BITMAP
60
C0
ENDCHAR
STARTCHAR c6461
ENCODING -1
SWIDTH 602 0
DWIDTH 8 0
BBX 5 2 2 8
BITMAP
E8
B8
ENDCHAR
STARTCHAR c6468
ENCODING -1
SWIDTH 602 0
DWIDTH 8 0
BBX 3 2 2 8
BITMAP
C0
60
ENDCHAR
STARTCHAR c6470
ENCODING -1
SWIDTH 602 0
DWIDTH 8 0
BBX 4 2 2 8
BITMAP
60
90
ENDCHAR
STARTCHAR c6472
ENCODING -1
SWIDTH 602 0
DWIDTH 8 0
BBX 4 2 2 8
BITMAP
90
60
ENDCHAR
STARTCHAR c6477
ENCODING -1
SWIDTH 602 0
DWIDTH 8 0
BBX 7 3 0 3
BITMAP
06
38
C0
ENDCHAR
STARTCHAR c6478
ENCODING -1
SWIDTH 602 0
DWIDTH 8 0
BBX 5 6 2 4
BITMAP
30
30
50
90
F8
10
ENDCHAR
STARTCHAR c6475
ENCODING -1
SWIDTH 602 0
DWIDTH 8 0
BBX 4 2 2 9
BITMAP
90
60
ENDCHAR
STARTCHAR c6476
ENCODING -1
SWIDTH 602 0
DWIDTH 8 0
BBX 1 1 4 9
BITMAP
80
ENDCHAR
ENDFONT
